<?xml version="1.0" encoding="utf-8"?><svg xmlns="http://www.w3.org/2000/svg" xmlns:xlink="http://www.w3.org/1999/xlink"><symbol viewBox="0 0 9 6" id="arrow-down" xmlns="http://www.w3.org/2000/svg"><path d="M4.536 4.536l-.354.353.354.354.353-.354-.353-.353zM7.718.646L4.182 4.182l.707.707 3.536-3.535-.707-.708zM4.889 4.182L1.354.646l-.708.708 3.536 3.535.707-.707z"/></symbol><symbol viewBox="0 0 15 23" id="arrow-left" xmlns="http://www.w3.org/2000/svg"><path d="M3.1 11.9l-1.06 1.06L.98 11.9l1.06-1.061 1.06 1.06zm-1.06-1.061l9.9-9.9 2.12 2.122-9.899 9.9-2.121-2.122zm9.9 12.02l-9.9-9.899 2.12-2.12 9.9 9.9-2.122 2.12z"/></symbol><symbol viewBox="0 0 8 12" id="arrow-left-b" xmlns="http://www.w3.org/2000/svg"><path d="M2 6l-.707-.707L.586 6l.707.707L2 6zm-.707.707l5 5 1.414-1.414-5-5-1.414 1.414zm5-6.414l-5 5 1.414 1.414 5-5L6.293.293z"/></symbol><symbol viewBox="0 0 16 14" id="arrow-left-line" xmlns="http://www.w3.org/2000/svg"><path fill-rule="evenodd" clip-rule="evenodd" d="M16 8.004v-2H4.046l4.092-3.912L6.762.64 0 7.006l6.763 6.356 1.374-1.453-4.09-3.905H16z"/></symbol><symbol viewBox="0 0 15 23" id="arrow-left-w" xmlns="http://www.w3.org/2000/svg"><path d="M3.1 11.9L2 13l-1-1.1 1-1.06zM2 10.84l9.9-9.9 2.12 2.12L4.16 13zm9.9 12L2 13l2.12-2.12 9.9 9.9z"/></symbol><symbol viewBox="0 0 15 23" id="arrow-right" xmlns="http://www.w3.org/2000/svg"><path d="M11.9 11.9l1.06 1.06 1.06-1.06-1.06-1.061-1.06 1.06zm1.06-1.061l-9.9-9.9L.94 3.061l9.899 9.9 2.121-2.122zm-9.9 12.02l9.9-9.899-2.121-2.121-9.9 9.9 2.122 2.12z"/></symbol><symbol viewBox="0 0 8 12" id="arrow-right-b" xmlns="http://www.w3.org/2000/svg"><path d="M6 6l.707.707L7.414 6l-.707-.707L6 6zm.707-.707l-5-5L.293 1.707l5 5 1.414-1.414zm-5 6.414l5-5-1.414-1.414-5 5 1.414 1.414z"/></symbol><symbol viewBox="0 0 16 14" id="arrow-right-line" xmlns="http://www.w3.org/2000/svg"><path class="ahst0" d="M0 6v2h12l-4.1 3.9 1.4 1.5L16 7 9.2.6 7.9 2.1 12 6H0z"/></symbol><symbol viewBox="0 0 15 23" id="arrow-right-w" xmlns="http://www.w3.org/2000/svg"><path d="M11.9 11.9L13 13l1-1.1-1-1.06zm1.1-1.06L3.06.94.94 3.06l9.9 9.9zm-9.9 12L13 13l-2.12-2.12-9.9 9.9z"/></symbol><symbol viewBox="0 0 9 5" id="arrow-up" xmlns="http://www.w3.org/2000/svg"><path d="M4.536 1L4.182.647l.354-.354.353.354L4.536 1zm3.182 3.89L4.182 1.353l.707-.707 3.536 3.535-.707.707zM4.889 1.353L1.354 4.889l-.708-.707L4.182.647l.707.707z"/></symbol><symbol viewBox="0 0 64 64" id="cart" xmlns="http://www.w3.org/2000/svg"><path d="M60 28a4 4 0 110 8h-.47l-3.59 20.68a3.91 3.91 0 01-1.38 2.38A3.86 3.86 0 0152 60H12a3.86 3.86 0 01-2.56-.94 3.91 3.91 0 01-1.38-2.38L4.47 36H4a3.87 3.87 0 01-2.83-1.17 4 4 0 010-5.66A3.87 3.87 0 014 28zM14.87 13.12L12 26H7.84L11 12.22a7.62 7.62 0 012.78-4.49 7.87 7.87 0 015-1.73H24a2 2 0 012-2h12a2 2 0 012 2h5.22a7.87 7.87 0 015 1.73A7.62 7.62 0 0153 12.22L56.16 26H52l-2.9-12.88a4.22 4.22 0 00-1.43-2.25 3.83 3.83 0 00-2.45-.87H40a2 2 0 01-2 2H26a2 2 0 01-2-2h-5.22a3.81 3.81 0 00-2.48.87 4.16 4.16 0 00-1.43 2.25zM15.16 53A2 2 0 0017 50.84l-1-13A2 2 0 0013.84 36 2 2 0 0012 38.15l1 13a1.93 1.93 0 00.64 1.31A2 2 0 0015 53zM28 51V38a2 2 0 00-.59-1.41 2 2 0 00-2.82 0A2 2 0 0024 38v13a2 2 0 004 0zm12 0V38a2 2 0 00-.59-1.41 2 2 0 00-2.82 0A2 2 0 0036 38v13a2 2 0 004 0zm11 .16l1-13A2 2 0 0050.16 36 2 2 0 0048 37.84l-1 13A2 2 0 0048.84 53H49a2 2 0 001.36-.53 1.93 1.93 0 00.64-1.31z"/></symbol><symbol viewBox="0 0 64 64" id="checkbox-checked" xmlns="http://www.w3.org/2000/svg"><path d="M0 0h64v64H0z"/><path d="M50.6 50.6V29.4H56v21.2c0 1.4-.5 2.7-1.6 3.8-1.1 1.1-2.3 1.6-3.7 1.6H13.4c-1.4 0-2.7-.5-3.8-1.6C8.5 53.3 8 52.1 8 50.6V13.3c0-1.4.5-2.7 1.6-3.7C10.7 8.5 11.9 8 13.4 8H40v5.4H13.4v37.3h37.2v-.1zM21.1 26.9l8.3 8.3 22.9-22.9 3.7 3.8-26.6 26.6-12-12 3.7-3.8z"/></symbol><symbol viewBox="0 0 64 64" id="checkbox-unchecked" xmlns="http://www.w3.org/2000/svg"><path d="M0 0h64v64H0z"/><path d="M50.6 8c1.4 0 2.7.5 3.7 1.6 1.1 1.1 1.6 2.3 1.6 3.7v37.3c0 1.4-.5 2.7-1.6 3.8-1.1 1.1-2.3 1.6-3.7 1.6H13.4c-1.4 0-2.7-.5-3.8-1.6C8.5 53.3 8 52.1 8 50.6V13.3c0-1.4.5-2.7 1.6-3.7C10.7 8.5 11.9 8 13.4 8h37.2zm0 5.4H13.4v37.3h37.3V13.4h-.1z"/></symbol><symbol viewBox="0 0 13 13" id="close" xmlns="http://www.w3.org/2000/svg"><path d="M11.6 12.4L6.5 7.2l-5.1 5.2-.8-.8 5.2-5.1L.6 1.4l.8-.8 5.1 5.2L11.6.6l.8.8-5.2 5.1 5.2 5.1z"/></symbol><symbol viewBox="0 0 42 42" id="delivery-truck" xmlns="http://www.w3.org/2000/svg"><path d="M35.438 30.023a1.64 1.64 0 10-.001 3.28 1.64 1.64 0 000-3.28zm-.821-6.563a.82.82 0 100 1.642.82.82 0 000-1.641zm-24.281 6.563a1.64 1.64 0 10-.001 3.28 1.64 1.64 0 000-3.28z"/><path d="M38.552 20.232l-1.414-5.657c.503-.481.76-1.12.76-1.778a2.464 2.464 0 00-2.46-2.461h-6.563V7.875a2.464 2.464 0 00-2.46-2.46H2.46A2.464 2.464 0 000 7.874v21.328a2.464 2.464 0 002.46 2.461h2.954a4.927 4.927 0 004.922 4.922 4.927 4.927 0 004.922-4.922h15.258a4.927 4.927 0 004.922 4.922 4.927 4.927 0 004.921-4.922c0-.047-.002-.093-.003-.14A2.465 2.465 0 0042 29.204V24.28a4.108 4.108 0 00-3.448-4.049zm-2.935-4.974l1.23 4.922h-6.812l1.88-1.881a.82.82 0 10-1.159-1.16l-1.881 1.88v-3.761h6.742zm.64-2.461a.82.82 0 01-.82.82h-6.562v-1.64h6.563a.82.82 0 01.82.82zm-25.92 22.148a3.285 3.285 0 01-3.281-3.28 3.286 3.286 0 013.28-3.282 3.286 3.286 0 013.282 3.281 3.285 3.285 0 01-3.281 3.281zm4.64-4.922a4.94 4.94 0 00-4.64-3.28 4.939 4.939 0 00-4.64 3.28H2.46a.821.821 0 01-.82-.82V7.875a.82.82 0 01.82-.82h23.953c.452 0 .82.368.82.82v22.148H14.976zm20.462 4.922a3.285 3.285 0 01-3.282-3.28 3.286 3.286 0 013.282-3.282 3.286 3.286 0 013.28 3.281 3.285 3.285 0 01-3.28 3.281zm4.581-5.078a4.94 4.94 0 00-4.581-3.125 4.939 4.939 0 00-4.641 3.281h-1.922V21.82h9.023c1.07 0 1.982.686 2.32 1.64h-2.32a.82.82 0 100 1.642h2.461v4.101a.82.82 0 01-.34.664z"/><path d="M14.438 10.336c-4.071 0-7.383 3.312-7.383 7.383 0 4.07 3.312 7.383 7.383 7.383 4.07 0 7.382-3.312 7.382-7.383s-3.312-7.383-7.383-7.383zm0 13.125a5.749 5.749 0 01-5.743-5.742 5.749 5.749 0 015.742-5.742 5.749 5.749 0 015.743 5.742 5.749 5.749 0 01-5.742 5.742z"/><path d="M17.719 16.898h-2.461v-2.46a.82.82 0 10-1.64 0v3.28a.82.82 0 00.82.821h3.28a.82.82 0 000-1.64z"/></symbol><symbol viewBox="0 0 30 30" id="discount" xmlns="http://www.w3.org/2000/svg"><path class="apcls-1" d="M12 13.16v-2.92A1.17 1.17 0 0010.62 9c-.84 0-1.35.41-1.35 1.26v2.92c0 .85.51 1.26 1.35 1.26A1.17 1.17 0 0012 13.16zm7.07 2.58A1.17 1.17 0 0017.73 17v2.92a1.17 1.17 0 001.34 1.26 1.17 1.17 0 001.34-1.26V17a1.17 1.17 0 00-1.34-1.26z"/><path class="apcls-1" d="M15 0a15 15 0 1015 15A15 15 0 0015 0zM8.11 13.16v-2.92C8.11 8.57 9.2 8 10.62 8s2.5.62 2.5 2.29v2.92c0 1.67-1.11 2.29-2.5 2.29s-2.51-.67-2.51-2.34zm2 8.32a.56.56 0 01-.6.18.61.61 0 01-.47-.72.64.64 0 01.12-.23L19.68 8.43a.52.52 0 01.54-.17.67.67 0 01.49.78.72.72 0 01-.12.25zm11.43-1.56c0 1.67-1.1 2.29-2.5 2.29s-2.51-.62-2.51-2.29V17c0-1.67 1.09-2.29 2.51-2.29s2.5.62 2.5 2.29z"/></symbol><symbol viewBox="0 0 15 20" id="document" xmlns="http://www.w3.org/2000/svg"><path d="M2.87 12.734h8.424a.58.58 0 01.575.586.58.58 0 01-.575.586H2.871a.58.58 0 01-.574-.586.58.58 0 01.574-.586zm3.064-2.929H2.871a.58.58 0 00-.574.586.593.593 0 00.35.54c.07.03.145.046.224.046h3.063a.58.58 0 00.574-.586.58.58 0 00-.574-.586zm2.298 5.859h3.063a.58.58 0 01.575.586.58.58 0 01-.575.586H8.232a.58.58 0 01-.574-.586.58.58 0 01.574-.586z"/><path fill-rule="evenodd" clip-rule="evenodd" d="M3.455 0h10.137a.57.57 0 01.466.243.59.59 0 01.109.343v18.828a.59.59 0 01-.132.373.569.569 0 01-.443.213H.574a.57.57 0 01-.46-.235.591.591 0 01-.114-.35V3.524c0-.155.06-.305.168-.414L3.05.17A.568.568 0 013.455 0zM1.15 18.828h11.87V1.172H3.692L1.15 3.768v15.06z"/></symbol><symbol viewBox="0 0 18 5" id="dots" xmlns="http://www.w3.org/2000/svg"><circle cx="2.143" cy="2.143" r="2.143"/><circle cx="9" cy="2.143" r="2.143"/><circle cx="15.857" cy="2.143" r="2.143"/></symbol><symbol viewBox="0 0 18 18" id="edit" xmlns="http://www.w3.org/2000/svg"><path d="M17.358 16.723H.642a.635.635 0 00-.627.639c0 .342.29.638.627.638h16.732a.635.635 0 00.626-.638.649.649 0 00-.642-.639zM.015 11.07L0 14.108c0 .171.061.343.183.467a.606.606 0 00.443.187l2.965-.015a.61.61 0 00.443-.187L14.272 4.126a.667.667 0 000-.918L11.338.187a.637.637 0 00-.902 0L8.39 2.289.2 10.619a.7.7 0 00-.184.452zm10.88-9.513l2.063 2.102-1.162 1.184L9.733 2.74l1.162-1.183zm-9.611 9.794L8.832 3.66l2.063 2.102-7.549 7.677-2.078.015.016-2.102z"/></symbol><symbol viewBox="0 0 20 20" id="exchange" xmlns="http://www.w3.org/2000/svg"><path d="M19.31 15.638a.502.502 0 00-.503-.503H1.711l3.005-3.01a.499.499 0 10-.706-.706L.15 15.282a.499.499 0 000 .707l3.86 3.864a.497.497 0 00.355.147.499.499 0 00.355-.855l-3.005-3.009h17.1c.27 0 .495-.22.495-.498zm-.147-11.631L15.304.147a.499.499 0 10-.706.707l3.005 3.01H.503a.502.502 0 100 1.005h17.1L14.598 7.87a.499.499 0 00.355.854c.13 0 .257-.049.355-.147l3.859-3.863a.503.503 0 00-.004-.707z"/></symbol><symbol viewBox="0 0 15 9" id="eye" xmlns="http://www.w3.org/2000/svg"><path d="M7.5.9c1.917 0 3.54.865 4.563 1.591 1.213.86 1.837 1.692 1.999 2.009-.162.317-.786 1.15-1.999 2.009C11.04 7.235 9.417 8.1 7.5 8.1c-1.917 0-3.54-.865-4.563-1.591-1.213-.86-1.837-1.692-2-2.009.163-.317.787-1.15 2-2.009C3.96 1.765 5.583.9 7.5.9zm0-.9C3.358 0 0 3.6 0 4.5 0 5.4 3.358 9 7.5 9 11.642 9 15 5.4 15 4.5 15 3.6 11.642 0 7.5 0zm0 1.8c-1.506 0-2.727 1.209-2.727 2.7S5.993 7.2 7.5 7.2c1.506 0 2.727-1.209 2.727-2.7S9.007 1.8 7.5 1.8z"/></symbol><symbol viewBox="0 0 36 36" id="eye-big" xmlns="http://www.w3.org/2000/svg"><path d="M35.114 17.634C31.528 11.566 25.017 7.762 18 7.762c-7.017 0-13.535 3.804-17.114 9.872a.659.659 0 000 .732C4.472 24.434 10.983 28.238 18 28.238c7.017 0 13.535-3.804 17.114-9.872a.66.66 0 000-.732zM18 26.775c-6.363 0-12.29-3.36-15.581-8.775C5.709 12.586 11.637 9.225 18 9.225c6.363 0 12.29 3.36 15.581 8.775-3.29 5.414-9.218 8.775-15.58 8.775z"/><path d="M18 11.419A6.554 6.554 0 0011.42 18 6.554 6.554 0 0018 24.581 6.554 6.554 0 0024.581 18a6.554 6.554 0 00-6.58-6.581zm0 11.7A5.088 5.088 0 0112.881 18a5.093 5.093 0 015.12-5.119A5.092 5.092 0 0123.118 18 5.088 5.088 0 0118 23.119z"/><path d="M18 15.075v1.463c.802 0 1.463.66 1.463 1.462A1.47 1.47 0 0118 19.462 1.47 1.47 0 0116.538 18h-1.463A2.932 2.932 0 0018 20.925 2.932 2.932 0 0020.925 18 2.932 2.932 0 0018 15.075z"/></symbol><symbol viewBox="0 0 38 38" id="eye-glasses" xmlns="http://www.w3.org/2000/svg"><g clip-path="url(#awclip0)"><path d="M37.867 23.288v-.013a8.037 8.037 0 00-.697-2.147.038.038 0 00-.006-.025C33.098 8.607 32.42 7.587 32.192 7.252c-1.412-2.122-5.738-2.185-6.225-2.185a.633.633 0 000 1.266c1.14 0 4.287.292 5.174 1.615.266.406 1.115 2.331 3.762 10.33a8.154 8.154 0 00-5.136-1.811 8.236 8.236 0 00-6.694 3.452A5.7 5.7 0 0019 18.367a5.7 5.7 0 00-4.079 1.552 8.197 8.197 0 00-11.824-1.641c2.647-7.999 3.496-9.924 3.762-10.33.887-1.323 4.034-1.615 5.174-1.615a.633.633 0 000-1.266c-.487 0-4.813.063-6.225 2.185-.228.335-.906 1.355-4.972 13.85 0 .007-.006.013-.006.026a8.04 8.04 0 00-.697 2.147v.013c-.086.466-.13.938-.133 1.412a8.234 8.234 0 1015.605-3.642A4.269 4.269 0 0119 19.633a4.268 4.268 0 013.395 1.425A8.23 8.23 0 1038 24.7a7.958 7.958 0 00-.133-1.412zM8.233 31.667a6.967 6.967 0 110-13.934 6.967 6.967 0 010 13.934zm21.534 0a6.967 6.967 0 110-13.934 6.967 6.967 0 010 13.934z"/><path d="M3.8 23.433a.633.633 0 01-.352-1.16l3.8-2.533a.633.633 0 11.703 1.054l-3.8 2.533a.633.633 0 01-.35.106zM3.167 26.6a.633.633 0 01-.352-1.16l3.8-2.534a.634.634 0 11.703 1.054l-3.8 2.534a.633.633 0 01-.351.106zm22.166-3.8a.633.633 0 01-.352-1.16l3.8-2.534a.633.633 0 11.703 1.054l-3.8 2.534a.633.633 0 01-.35.106zm-.633 3.167a.633.633 0 01-.352-1.16l3.8-2.534a.633.633 0 01.703 1.054l-3.8 2.533a.633.633 0 01-.351.107z"/></g><defs><clipPath id="awclip0"><path d="M0 0h38v38H0z"/></clipPath></defs></symbol><symbol viewBox="0 0 10 19" id="facebook" xmlns="http://www.w3.org/2000/svg"><path d="M6.412 18.994V10.33h2.911l.437-3.377H6.412V4.801c0-.977.274-1.647 1.675-1.647h1.792V.134A24.198 24.198 0 007.272 0C4.689 0 2.92 1.577 2.92 4.464v2.489H0v3.377h2.92v8.664h3.493z"/></symbol><symbol viewBox="0 0 64 64" id="heart" xmlns="http://www.w3.org/2000/svg"><path d="M0 0h64v64H0z"/><path d="M7.334 33.734l-.024-.023-.025-.022A15.856 15.856 0 012 21.831C2 13.07 9.03 6 17.664 6c5.223 0 9.858 2.581 12.709 6.572L32 14.85l1.627-2.278C36.48 8.582 41.11 6 46.336 6 54.97 6 62 13.07 62 21.83c0 4.85-2.156 9.188-5.552 12.092l-.04.035-.038.036-24.443 23.244L7.334 33.734z"/></symbol><symbol viewBox="0 0 64 64" id="heart-red" xmlns="http://www.w3.org/2000/svg"><path d="M0 0h64v64H0z"/><path fill-rule="evenodd" clip-rule="evenodd" d="M5.952 35.18A17.855 17.855 0 010 21.83C0 11.984 7.908 4 17.664 4c5.9 0 11.128 2.92 14.336 7.41C35.208 6.92 40.432 4 46.336 4 56.092 4 64 11.983 64 21.83a17.864 17.864 0 01-6.252 13.612L31.924 60 5.952 35.18z"/></symbol><symbol viewBox="0 0 64 64" id="info" xmlns="http://www.w3.org/2000/svg"><path d="M59.71 15.94A31.28 31.28 0 0164 32a31.28 31.28 0 01-4.29 16.06 32 32 0 01-11.64 11.65A31.35 31.35 0 0132 64a31.31 31.31 0 01-16.06-4.29A31.9 31.9 0 014.29 48.06 31.38 31.38 0 010 32a31.38 31.38 0 014.29-16.06A31.83 31.83 0 0115.94 4.29 31.31 31.31 0 0132 0a31.35 31.35 0 0116.07 4.29 31.88 31.88 0 0111.64 11.65zM42.67 52v-6.67a1.32 1.32 0 00-.38-1 1.3 1.3 0 00-1-.37h-4V22.67A1.28 1.28 0 0036 21.33H22.67a1.28 1.28 0 00-1.33 1.34v6.66a1.28 1.28 0 001.33 1.34h4V44h-4a1.3 1.3 0 00-1 .37 1.31 1.31 0 00-.37 1V52a1.28 1.28 0 001.33 1.33h18.7A1.3 1.3 0 0042.67 52zm-5.34-37.33V8A1.27 1.27 0 0036 6.67h-8A1.31 1.31 0 0027 7a1.3 1.3 0 00-.37 1v6.67a1.26 1.26 0 00.37.95 1.32 1.32 0 001 .38h8a1.3 1.3 0 001-.38 1.26 1.26 0 00.33-.95z"/></symbol><symbol viewBox="0 0 64 64" id="info-circle" xmlns="http://www.w3.org/2000/svg"><path d="M0 0h64v64H0z"/><path d="M59.7 15.9C62.6 20.8 64 26.2 64 32c0 5.8-1.4 11.2-4.3 16.1-2.9 4.9-6.7 8.8-11.6 11.6C43.2 62.6 37.8 64 32 64c-5.8 0-11.2-1.4-16.1-4.3C11 56.8 7.1 53 4.3 48.1 1.4 43.2 0 37.8 0 32c0-5.8 1.4-11.2 4.3-16.1C7.2 11 11 7.1 15.9 4.3 20.8 1.4 26.2 0 32 0c5.8 0 11.2 1.4 16.1 4.3C53 7.2 56.9 11 59.7 15.9zM42.7 52v-6.7c0-.4-.1-.7-.4-1-.3-.3-.6-.4-1-.4h-4V22.7c0-.4-.1-.7-.4-1-.2-.2-.6-.4-1-.4H22.6c-.4 0-.7.1-1 .4-.2.3-.4.6-.4 1v6.7c0 .4.1.7.4 1 .3.2.6.4 1 .4h4V44h-4c-.4 0-.7.1-1 .4-.2.2-.4.6-.4 1v6.7c0 .4.1.7.4 1 .3.3.6.4 1 .4h18.7c.4 0 .7-.1 1-.4.2-.4.4-.7.4-1.1zm-5.4-37.3V8c0-.4-.1-.7-.4-1-.2-.2-.6-.4-1-.4h-8c-.4 0-.7.1-1 .4-.2.2-.4.6-.4 1v6.7c0 .4.1.7.4 1 .3.2.6.4 1 .4h8c.4 0 .7-.1 1-.4.3-.3.4-.6.4-1z"/></symbol><symbol viewBox="0 0 16 16" id="instagram" xmlns="http://www.w3.org/2000/svg"><path fill-rule="evenodd" clip-rule="evenodd" d="M13.105 3.708a.949.949 0 11-1.898-.002.949.949 0 011.898.002zm-5.17 6.847a2.635 2.635 0 01-2.637-2.632A2.634 2.634 0 017.934 5.29a2.635 2.635 0 012.637 2.632 2.635 2.635 0 01-2.637 2.632zm0-6.686a4.058 4.058 0 00-4.061 4.054 4.058 4.058 0 004.06 4.054 4.058 4.058 0 004.061-4.054 4.058 4.058 0 00-4.06-4.054zM4.672.075c-.841.039-1.416.172-1.92.367a3.88 3.88 0 00-1.4.911c-.44.439-.71.879-.912 1.399-.196.501-.33 1.075-.368 1.916a72.435 72.435 0 000 6.51c.039.842.172 1.415.368 1.917.202.519.472.96.912 1.398.44.44.88.71 1.4.912.504.194 1.079.328 1.92.367a73.27 73.27 0 006.522 0c.842-.039 1.416-.172 1.92-.367.52-.202.96-.473 1.4-.912.44-.438.71-.879.912-1.398.196-.502.33-1.075.368-1.917a71.981 71.981 0 000-6.51c-.038-.84-.172-1.415-.367-1.916a3.862 3.862 0 00-.913-1.399 3.876 3.876 0 00-1.4-.91c-.504-.196-1.078-.33-1.92-.368-2.162-.1-4.36-.1-6.522 0zm6.457 1.421c.77.035 1.19.163 1.468.272.37.143.633.314.91.591.276.276.448.54.591.907.109.279.237.697.273 1.467a69.992 69.992 0 010 6.38c-.036.77-.164 1.189-.273 1.466a2.445 2.445 0 01-.591.909c-.277.276-.54.448-.91.59-.278.108-.697.237-1.468.273a71.716 71.716 0 01-6.392 0c-.77-.036-1.19-.165-1.468-.272a2.451 2.451 0 01-.909-.591 2.454 2.454 0 01-.592-.909c-.109-.277-.237-.695-.272-1.466a70.883 70.883 0 010-6.38c.035-.77.163-1.188.272-1.467.144-.368.315-.63.592-.907a2.42 2.42 0 01.909-.59c.279-.11.697-.238 1.468-.273a71.031 71.031 0 016.392 0z"/></symbol><symbol viewBox="0 0 64 64" id="key" xmlns="http://www.w3.org/2000/svg"><g clip-path="url(#bdclip0)"><path d="M0 0h64v64H0z"/><path d="M61.2 29.168H27.5c-1.4-7-7.9-11.8-15-11.1-7.1.7-12.5 6.7-12.5 13.8 0 7.1 5.4 13.1 12.5 13.8 7.1.7 13.6-4.1 15-11.1h17v5.6c0 1.5 1.2 2.8 2.8 2.8 1.5 0 2.8-1.2 2.8-2.8v-5.6h2.8v5.6c0 1.5 1.2 2.8 2.8 2.8 1.5 0 2.8-1.2 2.8-2.8v-5.6h2.8c1.5 0 2.8-1.2 2.8-2.8 0-1.6-1.3-2.6-2.9-2.6zm-47.3 11.1c-4.6 0-8.3-3.7-8.3-8.3 0-4.6 3.7-8.3 8.3-8.3 4.6 0 8.3 3.7 8.3 8.3 0 2.2-.9 4.3-2.4 5.9-1.6 1.6-3.7 2.4-5.9 2.4z"/></g><defs><clipPath id="bdclip0"><path d="M0 0h64v64H0z"/></clipPath></defs></symbol><symbol viewBox="0 0 12 13" id="link" xmlns="http://www.w3.org/2000/svg"><path d="M11.796 4.935l-3.771 3.76a.662.662 0 01-.74.15c-.285-.121-.428-.331-.428-.63v-1.71c-1 0-1.8.084-2.4.252-.6.167-1.064.436-1.393.806-.757.848-.978 2.532-.664 5.053.021.17-.046.288-.204.352a.335.335 0 01-.407-.096C.596 11.284 0 9.845 0 8.556c0-.427.018-.82.054-1.18.035-.36.112-.757.23-1.191.118-.434.277-.823.477-1.164.2-.342.473-.682.82-1.02.346-.339.703-.582 1.22-.844.636-.323 1.049-.406 1.742-.545a11.818 11.818 0 012.314-.208V.694c0-.299.143-.509.429-.63.278-.12.525-.071.739.15l3.771 3.76a.656.656 0 01.204.48.655.655 0 01-.204.481z"/></symbol><symbol viewBox="0 0 64 64" id="location" xmlns="http://www.w3.org/2000/svg"><path d="M0 0h64v64H0z"/><path d="M15.703 6.6c4.4-4.4 9.8-6.6 16.1-6.6 6.3 0 11.7 2.2 16.1 6.6 4.4 4.4 6.7 9.7 6.7 15.9 0 5-1.9 10.9-5.7 17.9-3.8 7-7.6 12.6-11.4 17l-5.7 6.6c-.7-.7-1.5-1.6-2.5-2.8-1-1.2-2.8-3.5-5.4-6.9-2.6-3.4-4.9-6.8-6.9-10s-3.8-6.9-5.5-11c-1.7-4.1-2.5-7.7-2.5-10.9-.1-6.2 2.2-11.4 6.7-15.8zm10.3 21.5c1.6 1.6 3.5 2.4 5.8 2.4s4.2-.8 5.8-2.4c1.6-1.6 2.4-3.5 2.4-5.6 0-2.1-.8-4.1-2.4-5.6-1.6-1.6-3.5-2.4-5.8-2.4s-4.2.8-5.8 2.4c-1.6 1.6-2.4 3.5-2.4 5.6 0 2.1.8 4 2.4 5.6z"/></symbol><symbol viewBox="0 0 18 11" id="menu" xmlns="http://www.w3.org/2000/svg"><path d="M0 0h18v1H0V0zm0 5h18v1H0V5zm18 5H0v1h18v-1z"/></symbol><symbol viewBox="0 0 23 20" id="message" xmlns="http://www.w3.org/2000/svg"><path d="M6.733 0H17.14c3.219 0 5.838 2.699 5.838 6.016V9.71c.049 1.415.196 8.555-1.779 10.153a.611.611 0 01-.575.107.634.634 0 01-.408-.432c-.299-1.054-1.434-3.789-3.076-3.789H6.732c-3.22 0-5.838-2.699-5.838-6.016V6.016C.895 2.699 3.514 0 6.733 0zM2.141 9.733c0 2.61 2.06 4.733 4.592 4.733H17.14c1.981 0 3.22 2.095 3.826 3.494.66-1.799.858-5.572.766-8.227V6.016c0-2.61-2.06-4.732-4.592-4.732H6.733c-2.532 0-4.592 2.123-4.592 4.732v3.717z"/></symbol><symbol viewBox="0 0 11 1" id="minus" xmlns="http://www.w3.org/2000/svg"><path d="M11 .5H0"/></symbol><symbol viewBox="0 0 64 64" id="odnoklassniki" xmlns="http://www.w3.org/2000/svg"><g clip-path="url(#bjclip0)"><path d="M0 0h64v64H0z"/><path d="M50.7 34.4c.3.6.5 1.2.5 1.8 0 .5 0 1-.2 1.4-.2.4-.5.9-.9 1.4-.5.5-1 .9-1.5 1.3s-1.3.9-2.2 1.5c-2.7 1.7-6.5 2.9-11.3 3.4l2.6 2.6 9.5 9.5c.7.7 1.1 1.6 1.1 2.6s-.4 1.9-1.1 2.6l-.4.5c-.7.7-1.6 1.1-2.6 1.1s-1.9-.4-2.6-1.1c-1.6-1.6-4.8-4.8-9.5-9.6L22.6 63c-.7.7-1.6 1.1-2.6 1.1s-1.9-.4-2.6-1.1l-.4-.5c-.7-.7-1.1-1.6-1.1-2.6s.4-1.9 1.1-2.6l9.5-9.5 2.6-2.6c-4.8-.5-8.6-1.6-11.3-3.4-.9-.6-1.7-1.1-2.2-1.5-.5-.4-1-.8-1.5-1.3s-.8-.9-.9-1.4c-.2-.4-.2-.9-.2-1.4 0-.5.2-1.1.5-1.8.2-.5.6-.9 1-1.3s.9-.6 1.5-.8c.6-.2 1.2-.1 2 .1s1.5.6 2.3 1.3c.1.1.3.2.5.4s.8.5 1.5.9c.8.4 1.6.8 2.5 1.1.9.3 2 .6 3.3.9 1.3.3 2.7.4 4 .4 2.2 0 4.2-.3 6.2-.9 2-.6 3.4-1.2 4.3-1.8l1.4-.9c.8-.6 1.6-1 2.3-1.3.8-.2 1.4-.2 2-.1.6.2 1.1.4 1.5.8.3.3.6.7.9 1.2zm-7.2-6.8c-3.2 3.2-7 4.8-11.5 4.8s-8.3-1.6-11.5-4.8c-3.2-3.2-4.8-7-4.8-11.4 0-4.5 1.6-8.3 4.8-11.5C23.7 1.5 27.5 0 32 0s8.3 1.6 11.5 4.8c3.2 3.2 4.8 7 4.8 11.5-.1 4.4-1.7 8.2-4.8 11.3zm-5.9-17C36 9 34.2 8.3 32 8.3c-2.2 0-4.1.8-5.6 2.3-1.6 1.5-2.4 3.4-2.4 5.6 0 2.2.8 4.1 2.3 5.6 1.6 1.6 3.4 2.3 5.6 2.3 2.2 0 4.1-.8 5.6-2.3 1.6-1.6 2.3-3.4 2.3-5.6.2-2.2-.6-4.1-2.2-5.6z"/></g><defs><clipPath id="bjclip0"><path d="M0 0h64v64H0z"/></clipPath></defs></symbol><symbol viewBox="0 0 64 64" id="ok" xmlns="http://www.w3.org/2000/svg"><path d="M50.68 34.36a5.45 5.45 0 01.54 1.77 3.53 3.53 0 01-.17 1.44 4 4 0 01-.94 1.43 13.43 13.43 0 01-1.52 1.32c-.54.39-1.27.88-2.2 1.48q-4.11 2.61-11.25 3.36l2.61 2.57 9.54 9.53a3.69 3.69 0 011.07 2.65 3.55 3.55 0 01-1.07 2.6l-.43.47a3.8 3.8 0 01-5.29 0Q39.18 60.5 32 53.36l-9.5 9.57A3.69 3.69 0 0119.86 64a3.57 3.57 0 01-2.61-1.07l-.43-.47a3.46 3.46 0 01-1.1-2.6 3.6 3.6 0 011.1-2.65l9.54-9.53 2.57-2.57q-7.24-.75-11.32-3.36c-.93-.6-1.67-1.09-2.2-1.48A12.61 12.61 0 0113.89 39a4.08 4.08 0 01-1-1.38 3.37 3.37 0 01-.15-1.44 5 5 0 01.53-1.77 3.76 3.76 0 011-1.25 4.15 4.15 0 011.5-.79 3.63 3.63 0 012 .07 6.8 6.8 0 012.32 1.25c.12.1.3.23.54.4s.75.45 1.54.87A18.17 18.17 0 0024.68 36a22.51 22.51 0 003.29.86 21.44 21.44 0 0010.25-.52 17.39 17.39 0 004.28-1.8l1.36-.9a6.71 6.71 0 012.32-1.25 3.63 3.63 0 012-.07 4.15 4.15 0 011.5.79 3.76 3.76 0 011 1.25zm-7.21-6.72A15.62 15.62 0 0132 32.39a15.58 15.58 0 01-11.46-4.75 15.55 15.55 0 01-4.75-11.43 15.61 15.61 0 014.75-11.46A15.58 15.58 0 0132 0a15.62 15.62 0 0111.47 4.75 15.65 15.65 0 014.75 11.46 15.59 15.59 0 01-4.75 11.43zm-5.85-17.09a7.93 7.93 0 00-11.25 0A7.71 7.71 0 0024 16.21a7.67 7.67 0 002.33 5.63 7.93 7.93 0 0011.25 0A7.69 7.69 0 0040 16.21a7.72 7.72 0 00-2.38-5.66z"/></symbol><symbol viewBox="0 0 11 11" id="plus" xmlns="http://www.w3.org/2000/svg"><path d="M5.133 6.133V11h1V6.133H11v-1H6.133V0h-1v5.133H0v1h5.133z"/></symbol><symbol viewBox="0 0 64 64" id="radio-checked" xmlns="http://www.w3.org/2000/svg"><path d="M13.63 13.63A25 25 0 0132 6a25 25 0 0118.38 7.63A25 25 0 0158 32a25.07 25.07 0 01-7.62 18.38A25.07 25.07 0 0132 58a25 25 0 01-18.37-7.62A25 25 0 016 32a25 25 0 017.63-18.37zm3.68 33.06A20 20 0 0032 52.75a20 20 0 0014.69-6.06A20 20 0 0052.75 32a20 20 0 00-6.06-14.69A20 20 0 0032 11.25a20 20 0 00-14.69 6.06A20 20 0 0011.25 32a20 20 0 006.06 14.69zm5.5-23.88A12.53 12.53 0 0132 19a13 13 0 0113 13 13 13 0 01-13 13 13 13 0 01-13-13 12.53 12.53 0 013.81-9.19z"/></symbol><symbol viewBox="0 0 64 64" id="radio-unchecked" xmlns="http://www.w3.org/2000/svg"><path d="M0 0h64v64H0z"/><path d="M13.6 13.6C18.7 8.5 24.8 6 32 6c7.2 0 13.3 2.5 18.4 7.6C55.5 18.7 58 24.8 58 32c0 7.2-2.5 13.3-7.6 18.4C45.3 55.5 39.2 58 32 58c-7.2 0-13.3-2.5-18.4-7.6C8.5 45.3 6 39.2 6 32c0-7.2 2.5-13.3 7.6-18.4zm3.7 33.1c4 4 8.9 6.1 14.7 6.1 5.8 0 10.6-2 14.7-6.1 4-4 6.1-8.9 6.1-14.7 0-5.8-2-10.6-6.1-14.7-4-4-8.9-6.1-14.7-6.1-5.8 0-10.6 2-14.7 6.1s-6.1 8.9-6.1 14.7c0 5.8 2.1 10.6 6.1 14.7z"/></symbol><symbol viewBox="0 0 20 18" id="refresh" xmlns="http://www.w3.org/2000/svg"><path d="M19.01 13.078a.739.739 0 00-.93-.473l-.96.311A8.983 8.983 0 0018.016 9c0-4.963-4.04-9-9.008-9C4.041 0 0 4.037 0 9s4.04 9 9.008 9a.738.738 0 100-1.475c-4.153 0-7.531-3.376-7.531-7.525 0-4.15 3.378-7.525 7.531-7.525S16.539 4.851 16.539 9a7.507 7.507 0 01-.751 3.28l-.328-1.01a.739.739 0 00-1.405.456l.87 2.678a.738.738 0 00.931.474l2.68-.87a.738.738 0 00.474-.93z"/></symbol><symbol viewBox="0 0 12 17" id="rouble" xmlns="http://www.w3.org/2000/svg"><path d="M12 4.951c0 1.72-.553 3.049-1.67 3.973-1.111.93-2.704 1.39-4.773 1.39H3.662v2.113h4.236V14H3.662v3H1.787v-3H0v-1.573h1.787v-2.19H0V8.666h1.787V0h4.175C9.992 0 12 1.649 12 4.951zM3.662 8.616h1.685c1.66 0 2.858-.286 3.6-.848.743-.568 1.117-1.47 1.117-2.725 0-1.119-.353-1.957-1.05-2.508-.696-.551-1.782-.827-3.257-.827H3.662v6.908z"/></symbol><symbol viewBox="0 0 20 20" id="search" xmlns="http://www.w3.org/2000/svg"><path d="M19.913 18.99l-5.125-5.147c1.252-1.737 1.959-3.242 1.959-5.435C16.747 3.763 13 0 8.372 0 3.75 0 0 3.767 0 8.408c0 4.634 3.732 8.412 8.372 8.412 2.165 0 3.703-.71 5.412-1.971L18.909 20l1.005-1.01zM15.325 8.409c0 3.898-3.163 6.984-6.953 6.984-3.834 0-6.954-3.13-6.954-6.984 0-3.858 3.112-6.984 6.954-6.984 3.837 0 6.953 3.13 6.953 6.984z"/></symbol><symbol viewBox="0 0 64 64" id="shopping-cart" xmlns="http://www.w3.org/2000/svg"><path d="M0 0h64v64H0z"/><path d="M60 28c1.1 0 2 .4 2.8 1.2.8.8 1.2 1.7 1.2 2.8 0 1.1-.4 2-1.2 2.8-.8.8-1.7 1.2-2.8 1.2h-.5l-3.6 20.7c-.2 1-.6 1.7-1.4 2.4-.7.6-1.6.9-2.6.9H12c-1 0-1.8-.3-2.6-.9-.7-.6-1.2-1.4-1.4-2.4L4.5 36H4c-1.1 0-2-.4-2.8-1.2C.4 34 0 33.1 0 32c0-1.1.4-2 1.2-2.8C2 28.4 2.9 28 4 28h56zM14.9 13.1L12 26H7.9L11 12.2c.4-1.8 1.3-3.3 2.8-4.5 1.5-1.2 3.1-1.7 5-1.7H24c0-.5.2-1 .6-1.4.4-.4.9-.6 1.4-.6h12c.5 0 1 .2 1.4.6.4.4.6.9.6 1.4h5.2c1.9 0 3.5.6 5 1.7 1.5 1.2 2.4 2.7 2.8 4.5L56.2 26H52l-2.9-12.9c-.2-.9-.7-1.7-1.4-2.2-.7-.6-1.5-.9-2.5-.9H40c0 .5-.2 1-.6 1.4-.4.4-.9.6-1.4.6H26c-.5 0-1-.2-1.4-.6-.4-.4-.6-.9-.6-1.4h-5.2c-.9 0-1.8.3-2.5.9-.7.6-1.2 1.3-1.4 2.2zm.3 39.9c.5 0 1-.3 1.4-.7.4-.4.5-.9.5-1.5l-1-13c0-.5-.3-1-.7-1.4-.4-.4-.9-.5-1.5-.5-.5 0-1 .3-1.4.7-.4.4-.5.9-.5 1.4l1 13c0 .5.3 1 .6 1.3.4.4.8.5 1.4.5h.2v.2zM28 51V38c0-.5-.2-1-.6-1.4-.4-.4-.9-.6-1.4-.6-.5 0-1 .2-1.4.6-.4.4-.6.9-.6 1.4v13c0 .5.2 1 .6 1.4.4.4.9.6 1.4.6.5 0 1-.2 1.4-.6.4-.4.6-.9.6-1.4zm12 0V38c0-.5-.2-1-.6-1.4-.4-.4-.9-.6-1.4-.6-.5 0-1 .2-1.4.6-.4.4-.6.9-.6 1.4v13c0 .5.2 1 .6 1.4.4.4.9.6 1.4.6.5 0 1-.2 1.4-.6.4-.4.6-.9.6-1.4zm11 .2l1-13c0-.5-.1-1-.5-1.4-.4-.4-.8-.7-1.4-.7-.5 0-1 .1-1.5.5-.4.4-.7.8-.7 1.4l-1 13c0 .5.1 1 .5 1.5.4.4.8.7 1.4.7h.2c.5 0 1-.2 1.4-.5.3-.6.6-1 .6-1.5z"/></symbol><symbol viewBox="0 0 64 64" id="skype" xmlns="http://www.w3.org/2000/svg"><path d="M0 0h64v64H0z"/><path d="M64 48c0 4.4-1.6 8.2-4.7 11.3C56.2 62.4 52.4 64 48 64c-3.6 0-6.9-1.1-9.7-3.3-2.1.4-4.2.7-6.2.7-4 0-7.8-.8-11.4-2.3-3.6-1.5-6.8-3.6-9.4-6.2C8.7 50.3 6.5 47 5 43.4 3.5 39.8 2.7 36 2.7 32c0-2 .2-4.1.7-6.3C1.1 22.9 0 19.6 0 16c0-4.4 1.6-8.2 4.7-11.3C7.8 1.6 11.6 0 16 0c3.6 0 6.9 1.1 9.7 3.3 2.1-.4 4.2-.7 6.3-.7 4 0 7.8.8 11.4 2.3 3.6 1.5 6.8 3.6 9.4 6.3 2.6 2.6 4.7 5.8 6.2 9.4 1.5 3.6 2.3 7.4 2.3 11.4 0 2-.2 4.1-.7 6.2 2.3 2.9 3.4 6.2 3.4 9.8zm-15.1-9c0-1.4-.3-2.7-.8-3.8-.5-1.1-1.2-2.1-2-2.8-.8-.8-1.8-1.4-3-2-1.2-.6-2.4-1.1-3.4-1.4-1.1-.3-2.3-.7-3.6-1l-4.3-1c-.8-.2-1.4-.3-1.8-.4-.4-.1-.9-.3-1.5-.5s-1-.4-1.2-.7c-.3-.2-.5-.5-.7-.9-.2-.4-.3-.8-.3-1.3 0-2.1 2-3.2 6-3.2 1.2 0 2.3.2 3.2.5.9.3 1.7.7 2.3 1.2.6.5 1.1.9 1.6 1.4.5.5 1.1.9 1.7 1.2.6.3 1.3.5 2 .5 1.3 0 2.4-.4 3.1-1.3.8-.9 1.2-2 1.2-3.2 0-1.5-.8-2.9-2.3-4.2-1.6-1.2-3.5-2.2-5.9-2.8-2.4-.6-4.9-1-7.6-1-1.9 0-3.7.2-5.5.6-1.8.4-3.4 1.1-5 2-1.5.9-2.8 2.1-3.7 3.6-.9 1.5-1.4 3.3-1.4 5.4 0 1.7.3 3.2.8 4.4.5 1.3 1.3 2.3 2.3 3.1 1 .8 2.1 1.5 3.3 2 1.2.5 2.6 1 4.3 1.4l6.1 1.5c2.5.6 4.1 1.1 4.7 1.5.9.6 1.3 1.4 1.3 2.5s-.6 2-1.7 2.7c-1.1.7-2.6 1.1-4.4 1.1-1.4 0-2.7-.2-3.8-.7-1.1-.4-2-1-2.7-1.6-.7-.6-1.3-1.3-1.9-1.9-.6-.6-1.2-1.2-1.9-1.6-.7-.4-1.4-.7-2.2-.7-1.4 0-2.4.4-3.1 1.3-.7.8-1.1 1.9-1.1 3.1 0 2.6 1.7 4.7 5.1 6.6 3.4 1.8 7.4 2.7 12.1 2.7 2 0 4-.3 5.8-.8 1.9-.5 3.6-1.3 5.1-2.2 1.5-1 2.8-2.3 3.7-3.9.6-1.6 1.1-3.4 1.1-5.4z"/></symbol><symbol viewBox="0 0 64 64" id="telegram" xmlns="http://www.w3.org/2000/svg"><path d="M0 0h64v64H0z"/><path d="M54.108 55.273c-.4 1.6-1 2.6-1.9 3.1-.9.4-2 .3-3.4-.5l-14.7-10.9-7.1 6.9c-.5.5-.9.8-1.1 1-.5.3-1.1.4-1.9.4l1.1-15 27.3-24.7c.4-.3.5-.5.4-.8-.1-.2-.4-.3-.9-.3s-.9.2-1.4.5l-33.7 21.3-14.5-4.5c-1.6-.5-2.4-1.2-2.3-2.1.1-1 1.1-1.8 3-2.6l56.7-21.8c1.4-.5 2.6-.3 3.4.5.8.8 1.1 2.2.7 4.2l-9.7 45.3z"/></symbol><symbol viewBox="0 0 48 48" id="throbber" xmlns="http://www.w3.org/2000/svg"><path d="M46 24c0 12.2-9.8 22-22 22S2 36.2 2 24h22V2c12.2 0 22 9.8 22 22z"/><path d="M24 46c12.2 0 22-9.8 22-22S36.2 2 24 2V0c13.3 0 24 10.7 24 24S37.3 48 24 48 0 37.3 0 24h2c0 12.2 9.8 22 22 22z"/><path d="M24 0v2C11.8 2 2 11.8 2 24H0C0 10.7 10.7 0 24 0z"/></symbol><symbol viewBox="0 0 8 4" id="unwrap" xmlns="http://www.w3.org/2000/svg"><path d="M0 0h7.466L3.733 3.733 0 0z"/></symbol><symbol viewBox="0 0 30 16" id="up" xmlns="http://www.w3.org/2000/svg"><path d="M15.142 1l.354-.354-.354-.353-.353.353.353.354zM1.354 15.496L15.496 1.354l-.707-.708L.646 14.79l.708.707zM14.789 1.354L28.93 15.496l.707-.707L15.496.646l-.707.708z"/></symbol><symbol viewBox="0 0 13 13" id="user" xmlns="http://www.w3.org/2000/svg"><path d="M13 13H0v-.7c0-2.7 1.6-5 4-6-.7-.7-1.1-1.7-1.1-2.7 0-2 1.6-3.6 3.6-3.6s3.6 1.6 3.6 3.6c0 1-.4 2-1.2 2.6 2.5 1 4 3.4 4 6l.1.8zM1 12h11c-.1-2.1-1.4-4-3.4-4.8l-1.5-.6 1.1-1.1c.6-.5.9-1.2.9-1.9C9.1 2.2 7.9 1 6.5 1 5.1 1 3.9 2.2 3.9 3.6c0 .7.3 1.4.8 1.9l1.1 1.1-1.4.6C2.4 8 1.1 9.9 1 12z"/></symbol><symbol viewBox="0 0 64 64" id="viber" xmlns="http://www.w3.org/2000/svg"><g clip-path="url(#byclip0)"><path d="M0 0h64v64H0z"/><path d="M55.836 6.5c2.8 2.4 4.7 6.1 5.9 11.1 1.2 5.4 1.3 12 .4 19.6-.8 6.1-3 10.7-6.9 13.9-2.1 1.7-4.8 2.9-8.1 3.8l-.8.1c-1.3.4-3.3.8-6 1.1-4.3.6-8.7.7-13 .4-1.8 1.9-3 3.3-3.8 4.1l-1 1.1c-.9 1-1.6 1.7-2 2-.8.5-1.5.6-2.4.4-.5-.2-.9-.5-1.1-.9-.2-.5-.4-.9-.4-1.4v-7.3c-4.6-1.3-8.1-3.7-10.6-7.3-1.8-2.8-3-6.4-3.6-10.8-.4-2.5-.5-5.8-.4-10 .1-4.4.6-8.2 1.5-11.3 1-3.4 2.6-6.2 4.8-8.4 1.9-1.8 4.4-3.2 7.5-4.3 2.4-.8 5.2-1.5 8.2-1.9 2.2-.3 4.4-.5 6.6-.5h2.8c6.2.1 11.5 1 16 2.6 2.8 1.3 4.9 2.5 6.4 3.9zm1.7 29.6c.8-6.5.8-12.1-.3-16.8-.9-4.4-2.5-7.6-4.9-9.6-1.2-1.1-3-2-5.5-2.9-3.9-1.3-8.5-2-13.8-2.1h-2.4c-1.9 0-3.8.1-5.6.4-2.6.3-4.9.8-7 1.5-2.6.9-4.7 2.1-6.2 3.6-1.8 1.8-3.2 4.1-4.1 7-.8 2.6-1.2 5.7-1.3 9.4v.8c-.1 3.6 0 6.4.3 8.4.5 3.5 1.5 6.4 3 8.8 2 2.8 4.9 4.8 8.6 5.9v10.6c0 .6.1.9.4 1.1.3.1.6 0 1.1-.4.8-.8 2.5-2.7 5-5.6l3.5-4.3c3.7.3 7.4.1 11.1-.4 2.4-.3 4.2-.7 5.3-1l.8-.1c2.7-.7 4.8-1.7 6.5-3 3-2.6 4.9-6.3 5.5-11.3zm-10.3 5.2c.6-1.2.4-2.2-.5-3-1.5-1.4-3.4-2.8-5.8-4-.6-.4-1.2-.6-1.8-.4-.6.2-1.1.4-1.4.8l-1.3 1.5c-.3.3-.6.5-1.1.6l-.6.1c-1.9-.5-3.6-1.4-5.1-2.6-1.3-.9-2.3-2.1-3.3-3.5-.7-1-1.2-2-1.6-3.1l-.5-1.4v-.6c.1-.5.3-.9.6-1.1l1.5-1.1c.4-.3.7-.8.8-1.4.1-.6 0-1.3-.3-1.9-.7-1.2-1.3-2.2-1.9-3l-2.3-2.8c-.8-.9-1.8-1.1-3-.5-1.4.8-2.5 1.8-3.4 2.8-.9 1.3-1.2 2.6-.9 3.8l.8 1.6c.6 1.6 1.5 3.4 2.6 5.4 1.2 2 2.4 3.9 3.8 5.7 1.6 2 3.3 3.8 5.3 5.3s4.3 3 7 4.5c2.5 1.3 4.5 2.2 5.9 2.6 1.2.4 2.4.1 3.8-.9.9-.9 1.8-2 2.7-3.4zm1.3-12.2c0-5.3-1.6-9.6-4.9-12.8-3.1-3.1-7-4.6-11.8-4.6-.6 0-.9.3-.9.8s.3.8.9.8c4.3 0 7.8 1.3 10.5 4 3 2.9 4.5 6.8 4.5 11.8 0 .5.3.8.8.8.7-.1.9-.3.9-.8zm-5.8-1.8c0 .6.3.9.8.9s.8-.3.8-.8c.1-3.2-.9-5.8-2.8-8-2-2.2-4.7-3.4-8.2-3.6-.5 0-.8.3-.8.8s.2.8.7.8c3.1.3 5.5 1.3 7.1 3.1 1.6 1.9 2.4 4.2 2.4 6.8zm-2.5-1.3c-.2-3.7-2-5.6-5.6-5.8-.5 0-.8.3-.8.8s.2.8.7.8c2.6.2 4 1.6 4.1 4.3 0 .5.3.8.8.8.5-.1.8-.4.8-.9z"/></g><defs><clipPath id="byclip0"><path d="M0 0h64v64H0z"/></clipPath></defs></symbol><symbol viewBox="0 0 19 12" id="vk" xmlns="http://www.w3.org/2000/svg"><path d="M15.745 5.43S18.241 1.914 18.49.76c.086-.415-.097-.647-.53-.647h-2.165c-.497 0-.676.216-.827.529 0 0-1.172 2.491-2.598 4.066-.454.507-.685.658-.94.658-.205 0-.297-.168-.297-.626V.728c0-.566-.07-.728-.53-.728H7.13c-.265 0-.432.151-.432.36 0 .53.81.648.81 2.082v2.956c0 .598-.033.825-.313.825-.746 0-2.518-2.556-3.506-5.463C3.489.162 3.273 0 2.71 0H.546C.232 0 0 .216 0 .529c0 .576.675 3.251 3.338 6.837 1.788 2.41 4.137 3.716 6.254 3.716 1.291 0 1.604-.216 1.604-.76v-1.85c0-.464.184-.664.448-.664.297 0 .821.097 2.048 1.305 1.458 1.39 1.556 1.968 2.349 1.968h2.43c.25 0 .481-.119.481-.528 0-.545-.712-1.521-1.804-2.675-.443-.599-1.171-1.241-1.404-1.537-.329-.346-.232-.545 0-.911h.001z"/></symbol><symbol viewBox="0 0 37 37" id="wallet" xmlns="http://www.w3.org/2000/svg"><path d="M36.814 17.236H35.04V9.07a3.554 3.554 0 00-3.55-3.55h-2.405l-2.46-4.424a2.13 2.13 0 00-2.898-.828L14.284 5.52H3.736a3.554 3.554 0 00-3.55 3.55v24.38A3.554 3.554 0 003.736 37h27.752a3.554 3.554 0 003.55-3.55v-7.16h1.776v-9.053zM31.488 6.94c1.094 0 1.987.83 2.107 1.893h-2.668L29.874 6.94h1.614zm-7.07-5.43a.724.724 0 01.964.275l3.92 7.048H11.247l13.17-7.323zm9.2 31.94c0 1.174-.955 2.13-2.13 2.13H3.736a2.133 2.133 0 01-2.13-2.13V9.07c0-1.175.955-2.13 2.13-2.13h7.994L8.325 8.834H4.18a.71.71 0 100 1.42h29.439v6.983h-5.193a4.38 4.38 0 00-4.374 4.374v.305a4.38 4.38 0 004.374 4.374h5.193v7.16zm1.776-8.58h-6.968a2.957 2.957 0 01-2.954-2.954v-.306a2.957 2.957 0 012.954-2.954h6.968v6.213zM30.6 21.82a1.567 1.567 0 11-3.135.001 1.567 1.567 0 013.135 0z"/></symbol><symbol viewBox="0 0 64 64" id="whatsapp" xmlns="http://www.w3.org/2000/svg"><path d="M0 0h64v64H0z"/><path d="M46.8 38.6l-.4-.2c-2.9-1.6-4.8-2.5-5.5-2.8-.7-.3-1.3-.1-1.7.6-.4.7-1.2 1.7-2.4 3-.4.5-1 .6-1.8.2-2.7-1.3-4.7-2.5-6-3.6-1.7-1.5-3.3-3.4-4.8-5.8-.1-.4-.2-.7-.1-.9.1-.2.3-.5.7-.9.8-.8 1.4-1.7 1.8-2.6.3-.4.3-.9 0-1.4L24 18.4c-.3-.9-.8-1.4-1.6-1.4h-1.6c-.8 0-1.5.3-2.2 1v.2c-1.9 1.9-2.8 4.1-2.8 6.6s1.1 5.2 3.4 8v.2c4 5.7 8.5 9.7 13.4 11.8 2.4 1.1 4.3 1.7 5.6 2 1.3.3 2.7.3 4 0 .8-.1 1.8-.6 3-1.3 1.2-.7 2-1.6 2.4-2.5.3-.8.4-1.6.5-2.3.1-.7 0-1.2-.1-1.4-.1-.2-.5-.4-1.2-.7z"/><path d="M61.5 19.6c-1.7-3.9-4-7.3-7-10.3-3-3-6.4-5.3-10.3-6.9C40.3.8 36.3 0 32 0c-5.7 0-11 1.4-15.9 4.3S7.4 11 4.5 15.9C1.6 20.8.2 26 .2 31.7c0 5.7 1.5 11 4.4 15.9L0 64l16.8-4.4c4.7 2.5 9.7 3.8 15.2 3.8 5.7 0 11.1-1.4 16-4.3s8.8-6.7 11.7-11.5c2.9-4.8 4.3-10.1 4.3-15.8 0-4.3-.8-8.3-2.5-12.2zM55 44.9c-2.4 4.1-5.6 7.3-9.7 9.6S36.8 58 32 58c-4.8.1-9.3-1.1-13.4-3.6l-1-.6-10 2.6 2.6-9.6-.6-1c-2.7-4.3-4-8.9-4-14 0-4.8 1.2-9.2 3.6-13.3 2.4-4.1 5.6-7.3 9.6-9.6S27.2 5.4 32 5.4c3.5 0 6.8.7 10 2s6.1 3.2 8.6 5.7 4.5 5.3 5.9 8.6c1.4 3.3 2.1 6.6 2.1 10.1 0 4.7-1.2 9-3.6 13.1z"/></symbol><symbol viewBox="0 0 8 4" id="wrap" xmlns="http://www.w3.org/2000/svg"><path d="M0 4h7.466L3.733.267 0 4z"/></symbol><symbol viewBox="0 0 23 16" id="youtube" xmlns="http://www.w3.org/2000/svg"><path d="M22.195 3.397s-.219-1.543-.891-2.222C20.452.283 19.496.28 19.058.227 15.92 0 11.215 0 11.215 0h-.01S6.499 0 3.36.227c-.438.052-1.393.056-2.246.948-.672.68-.89 2.222-.89 2.222S0 5.208 0 7.019v1.698c0 1.812.225 3.623.225 3.623s.218 1.542.89 2.222c.853.891 1.973.863 2.472.956 1.794.172 7.622.225 7.622.225s4.712-.007 7.849-.233c.438-.052 1.394-.057 2.246-.948.672-.68.891-2.222.891-2.222s.224-1.811.224-3.623V7.02c0-1.81-.224-3.622-.224-3.622zm-13.3 7.378V4.486l6.057 3.155-6.057 3.134z"/></symbol></svg>