<?xml version="1.0" encoding="utf-8"?><svg xmlns="http://www.w3.org/2000/svg" xmlns:xlink="http://www.w3.org/1999/xlink"><symbol viewBox="0 0 9 6" id="arrow-down" xmlns="http://www.w3.org/2000/svg"><path d="M4.536 4.536l-.354.353.354.354.353-.354-.353-.353zM7.718.646L4.182 4.182l.707.707 3.536-3.535-.707-.708zM4.889 4.182L1.354.646l-.708.708 3.536 3.535.707-.707z"/></symbol><symbol viewBox="0 0 15 23" id="arrow-left" xmlns="http://www.w3.org/2000/svg"><path d="M3.1 11.9l-1.06 1.06L.98 11.9l1.06-1.061 1.06 1.06zm-1.06-1.061l9.9-9.9 2.12 2.122-9.899 9.9-2.121-2.122zm9.9 12.02l-9.9-9.899 2.12-2.12 9.9 9.9-2.122 2.12z"/></symbol><symbol viewBox="0 0 8 12" id="arrow-left-b" xmlns="http://www.w3.org/2000/svg"><path d="M2 6l-.707-.707L.586 6l.707.707L2 6zm-.707.707l5 5 1.414-1.414-5-5-1.414 1.414zm5-6.414l-5 5 1.414 1.414 5-5L6.293.293z"/></symbol><symbol viewBox="0 0 15 23" id="arrow-left-w" xmlns="http://www.w3.org/2000/svg"><path d="M3.1 11.9L2 13l-1-1.1 1-1.06zM2 10.84l9.9-9.9 2.12 2.12L4.16 13zm9.9 12L2 13l2.12-2.12 9.9 9.9z"/></symbol><symbol viewBox="0 0 15 23" id="arrow-right" xmlns="http://www.w3.org/2000/svg"><path d="M11.9 11.9l1.06 1.06 1.06-1.06-1.06-1.061-1.06 1.06zm1.06-1.061l-9.9-9.9L.94 3.061l9.899 9.9 2.121-2.122zm-9.9 12.02l9.9-9.899-2.121-2.121-9.9 9.9 2.122 2.12z"/></symbol><symbol viewBox="0 0 8 12" id="arrow-right-b" xmlns="http://www.w3.org/2000/svg"><path d="M6 6l.707.707L7.414 6l-.707-.707L6 6zm.707-.707l-5-5L.293 1.707l5 5 1.414-1.414zm-5 6.414l5-5-1.414-1.414-5 5 1.414 1.414z"/></symbol><symbol viewBox="0 0 15 23" id="arrow-right-w" xmlns="http://www.w3.org/2000/svg"><path d="M11.9 11.9L13 13l1-1.1-1-1.06zm1.1-1.06L3.06.94.94 3.06l9.9 9.9zm-9.9 12L13 13l-2.12-2.12-9.9 9.9z"/></symbol><symbol viewBox="0 0 9 5" id="arrow-up" xmlns="http://www.w3.org/2000/svg"><path d="M4.536 1L4.182.647l.354-.354.353.354L4.536 1zm3.182 3.89L4.182 1.353l.707-.707 3.536 3.535-.707.707zM4.889 1.353L1.354 4.889l-.708-.707L4.182.647l.707.707z"/></symbol><symbol viewBox="0 0 16 20" id="cart" xmlns="http://www.w3.org/2000/svg"><path d="M11.951 3.724h2.628c.416 5.425.845 10.854 1.278 16.276H0L1.235 3.724h2.667A4.08 4.08 0 015.14 1.132 4.012 4.012 0 017.928 0c1.078 0 2.06.435 2.785 1.132a4.063 4.063 0 011.238 2.592zm-2.05-1.76a2.873 2.873 0 00-1.973-.791c-.758 0-1.456.303-1.972.792a2.907 2.907 0 00-.886 1.759h5.717a2.908 2.908 0 00-.886-1.76zM3.885 4.897H2.332l-1.06 13.935h13.357l-1.06-13.935h-1.597v2.76h-1.168v-2.76H5.053v2.76H3.885v-2.76z"/></symbol><symbol viewBox="0 0 13 10" id="checked" xmlns="http://www.w3.org/2000/svg"><path d="M4.536 8.071l-.708.707.708.707.707-.707-.707-.707zM10.9.293L3.827 7.364l1.415 1.414 7.07-7.07L10.9.292zM5.242 7.364L1.707 3.828.293 5.243l3.535 3.535 1.415-1.414z"/></symbol><symbol viewBox="0 0 13 10" id="checked-white" xmlns="http://www.w3.org/2000/svg"><path d="M4.54 8.07l-.71.71.71.71.71-.71zM10.9.29L3.83 7.36l1.41 1.42 7.07-7.07zM5.24 7.36L1.71 3.83.29 5.24l3.54 3.54z"/></symbol><symbol viewBox="0 0 13 13" id="close" xmlns="http://www.w3.org/2000/svg"><path d="M11.6 12.4L6.5 7.2l-5.1 5.2-.8-.8 5.2-5.1L.6 1.4l.8-.8 5.1 5.2L11.6.6l.8.8-5.2 5.1 5.2 5.1z"/></symbol><symbol viewBox="0 0 30 30" id="discount" xmlns="http://www.w3.org/2000/svg"><path class="amcls-1" d="M12 13.16v-2.92A1.17 1.17 0 0010.62 9c-.84 0-1.35.41-1.35 1.26v2.92c0 .85.51 1.26 1.35 1.26A1.17 1.17 0 0012 13.16zm7.07 2.58A1.17 1.17 0 0017.73 17v2.92a1.17 1.17 0 001.34 1.26 1.17 1.17 0 001.34-1.26V17a1.17 1.17 0 00-1.34-1.26z"/><path class="amcls-1" d="M15 0a15 15 0 1015 15A15 15 0 0015 0zM8.11 13.16v-2.92C8.11 8.57 9.2 8 10.62 8s2.5.62 2.5 2.29v2.92c0 1.67-1.11 2.29-2.5 2.29s-2.51-.67-2.51-2.34zm2 8.32a.56.56 0 01-.6.18.61.61 0 01-.47-.72.64.64 0 01.12-.23L19.68 8.43a.52.52 0 01.54-.17.67.67 0 01.49.78.72.72 0 01-.12.25zm11.43-1.56c0 1.67-1.1 2.29-2.5 2.29s-2.51-.62-2.51-2.29V17c0-1.67 1.09-2.29 2.51-2.29s2.5.62 2.5 2.29z"/></symbol><symbol viewBox="0 0 15 20" id="document" xmlns="http://www.w3.org/2000/svg"><path d="M2.87 12.734h8.424a.58.58 0 01.575.586.58.58 0 01-.575.586H2.871a.58.58 0 01-.574-.586.58.58 0 01.574-.586zm3.064-2.929H2.871a.58.58 0 00-.574.586.593.593 0 00.35.54c.07.03.145.046.224.046h3.063a.58.58 0 00.574-.586.58.58 0 00-.574-.586zm2.298 5.859h3.063a.58.58 0 01.575.586.58.58 0 01-.575.586H8.232a.58.58 0 01-.574-.586.58.58 0 01.574-.586z"/><path fill-rule="evenodd" clip-rule="evenodd" d="M3.455 0h10.137a.57.57 0 01.466.243.59.59 0 01.109.343v18.828a.59.59 0 01-.132.373.569.569 0 01-.443.213H.574a.57.57 0 01-.46-.235.591.591 0 01-.114-.35V3.524c0-.155.06-.305.168-.414L3.05.17A.568.568 0 013.455 0zM1.15 18.828h11.87V1.172H3.692L1.15 3.768v15.06z"/></symbol><symbol viewBox="0 0 18 5" id="dots" xmlns="http://www.w3.org/2000/svg"><circle cx="2.143" cy="2.143" r="2.143"/><circle cx="9" cy="2.143" r="2.143"/><circle cx="15.857" cy="2.143" r="2.143"/></symbol><symbol viewBox="0 0 18 18" id="edit" xmlns="http://www.w3.org/2000/svg"><path d="M17.358 16.723H.642a.635.635 0 00-.627.639c0 .342.29.638.627.638h16.732a.635.635 0 00.626-.638.649.649 0 00-.642-.639zM.015 11.07L0 14.108c0 .171.061.343.183.467a.606.606 0 00.443.187l2.965-.015a.61.61 0 00.443-.187L14.272 4.126a.667.667 0 000-.918L11.338.187a.637.637 0 00-.902 0L8.39 2.289.2 10.619a.7.7 0 00-.184.452zm10.88-9.513l2.063 2.102-1.162 1.184L9.733 2.74l1.162-1.183zm-9.611 9.794L8.832 3.66l2.063 2.102-7.549 7.677-2.078.015.016-2.102z"/></symbol><symbol viewBox="0 0 20 20" id="exchange" xmlns="http://www.w3.org/2000/svg"><path d="M19.31 15.638a.502.502 0 00-.503-.503H1.711l3.005-3.01a.499.499 0 10-.706-.706L.15 15.282a.499.499 0 000 .707l3.86 3.864a.497.497 0 00.355.147.499.499 0 00.355-.855l-3.005-3.009h17.1c.27 0 .495-.22.495-.498zm-.147-11.631L15.304.147a.499.499 0 10-.706.707l3.005 3.01H.503a.502.502 0 100 1.005h17.1L14.598 7.87a.499.499 0 00.355.854c.13 0 .257-.049.355-.147l3.859-3.863a.503.503 0 00-.004-.707z"/></symbol><symbol viewBox="0 0 15 9" id="eye" xmlns="http://www.w3.org/2000/svg"><path d="M7.5.9c1.917 0 3.54.865 4.563 1.591 1.213.86 1.837 1.692 1.999 2.009-.162.317-.786 1.15-1.999 2.009C11.04 7.235 9.417 8.1 7.5 8.1c-1.917 0-3.54-.865-4.563-1.591-1.213-.86-1.837-1.692-2-2.009.163-.317.787-1.15 2-2.009C3.96 1.765 5.583.9 7.5.9zm0-.9C3.358 0 0 3.6 0 4.5 0 5.4 3.358 9 7.5 9 11.642 9 15 5.4 15 4.5 15 3.6 11.642 0 7.5 0zm0 1.8c-1.506 0-2.727 1.209-2.727 2.7S5.993 7.2 7.5 7.2c1.506 0 2.727-1.209 2.727-2.7S9.007 1.8 7.5 1.8z"/></symbol><symbol viewBox="0 0 10 19" id="fb" xmlns="http://www.w3.org/2000/svg"><path d="M6.412 18.994V10.33h2.911l.437-3.377H6.412V4.801c0-.977.274-1.647 1.675-1.647h1.792V.134A24.198 24.198 0 007.272 0C4.689 0 2.92 1.577 2.92 4.464v2.489H0v3.377h2.92v8.664h3.493z"/></symbol><symbol viewBox="0 0 23 20" id="heart" xmlns="http://www.w3.org/2000/svg"><path d="M20.822 1.857A6.2 6.2 0 0016.39.015a6.222 6.222 0 00-4.44 1.847l-.617.623-.63-.633A6.232 6.232 0 006.264 0a6.214 6.214 0 00-4.43 1.842A6.255 6.255 0 000 6.298a6.27 6.27 0 001.844 4.453l9.019 9.057a.65.65 0 00.913.006l9.036-9.045a6.266 6.266 0 001.84-4.456 6.236 6.236 0 00-1.83-4.456zM19.9 9.85l-8.582 8.584-8.561-8.6a4.979 4.979 0 01-1.46-3.535c0-1.336.514-2.588 1.455-3.53a4.926 4.926 0 013.51-1.46c1.33 0 2.582.52 3.523 1.464l1.087 1.091a.645.645 0 00.916 0l1.076-1.08a4.945 4.945 0 013.52-1.467 4.978 4.978 0 014.971 4.997A4.964 4.964 0 0119.9 9.85z"/></symbol><symbol viewBox="0 0 15 15" id="info" xmlns="http://www.w3.org/2000/svg"><path class="aust0" d="M8.9 3.9c-.2-.2-.4-.3-.6-.3-.3 0-.4.1-.6.3-.2.1-.2.3-.2.5s.1.4.2.6c.2.2.3.2.6.2h.3c.1 0 .2-.1.3-.2 0-.1.1-.2.2-.3v-.3c0-.2-.1-.4-.2-.5zM7.5 10l1.2-3.9h-.3l-2 .3v.2h.2c.1 0 .2 0 .3.1.1.1.1.2.1.3v.3c0 .1 0 .2-.1.2L6 10.2v.5c0 .2.1.4.2.5.2.2.3.2.6.2.6 0 1.2-.5 1.8-1.5l-.3-.1c-.2.4-.4.6-.6.7-.1.1-.1.1-.2.1 0 0-.1 0-.1-.1l-.1-.1v-.1c.1.1.1-.1.2-.3z"/><path class="aust0" d="M12.8 2.2C11.5.9 9.6 0 7.5 0c-2 0-3.9.9-5.3 2.2C.9 3.6 0 5.5 0 7.5c0 2.1.9 4 2.2 5.3C3.6 14.2 5.5 15 7.5 15c2.1 0 4-.8 5.3-2.2 1.4-1.4 2.2-3.2 2.2-5.3 0-2-.8-3.9-2.2-5.3zM7.5.9c1.8 0 3.5.7 4.7 1.9 1.2 1.2 2 2.9 2 4.7s-.7 3.5-2 4.7c-1.2 1.2-2.9 2-4.7 2s-3.5-.7-4.7-2C1.6 11 .9 9.3.9 7.5S1.6 4 2.8 2.8C4 1.6 5.7.9 7.5.9z"/></symbol><symbol viewBox="0 0 16 16" id="insta" xmlns="http://www.w3.org/2000/svg"><path fill-rule="evenodd" clip-rule="evenodd" d="M13.105 3.708a.949.949 0 11-1.898-.002.949.949 0 011.898.002zm-5.17 6.847a2.635 2.635 0 01-2.637-2.632A2.634 2.634 0 017.934 5.29a2.635 2.635 0 012.637 2.632 2.635 2.635 0 01-2.637 2.632zm0-6.686a4.058 4.058 0 00-4.061 4.054 4.058 4.058 0 004.06 4.054 4.058 4.058 0 004.061-4.054 4.058 4.058 0 00-4.06-4.054zM4.672.075c-.841.039-1.416.172-1.92.367a3.88 3.88 0 00-1.4.911c-.44.439-.71.879-.912 1.399-.196.501-.33 1.075-.368 1.916a72.435 72.435 0 000 6.51c.039.842.172 1.415.368 1.917.202.519.472.96.912 1.398.44.44.88.71 1.4.912.504.194 1.079.328 1.92.367a73.27 73.27 0 006.522 0c.842-.039 1.416-.172 1.92-.367.52-.202.96-.473 1.4-.912.44-.438.71-.879.912-1.398.196-.502.33-1.075.368-1.917a71.981 71.981 0 000-6.51c-.038-.84-.172-1.415-.367-1.916a3.862 3.862 0 00-.913-1.399 3.876 3.876 0 00-1.4-.91c-.504-.196-1.078-.33-1.92-.368-2.162-.1-4.36-.1-6.522 0zm6.457 1.421c.77.035 1.19.163 1.468.272.37.143.633.314.91.591.276.276.448.54.591.907.109.279.237.697.273 1.467a69.992 69.992 0 010 6.38c-.036.77-.164 1.189-.273 1.466a2.445 2.445 0 01-.591.909c-.277.276-.54.448-.91.59-.278.108-.697.237-1.468.273a71.716 71.716 0 01-6.392 0c-.77-.036-1.19-.165-1.468-.272a2.451 2.451 0 01-.909-.591 2.454 2.454 0 01-.592-.909c-.109-.277-.237-.695-.272-1.466a70.883 70.883 0 010-6.38c.035-.77.163-1.188.272-1.467.144-.368.315-.63.592-.907a2.42 2.42 0 01.909-.59c.279-.11.697-.238 1.468-.273a71.031 71.031 0 016.392 0z"/></symbol><symbol viewBox="0 0 12 13" id="link" xmlns="http://www.w3.org/2000/svg"><path d="M11.796 4.935l-3.771 3.76a.662.662 0 01-.74.15c-.285-.121-.428-.331-.428-.63v-1.71c-1 0-1.8.084-2.4.252-.6.167-1.064.436-1.393.806-.757.848-.978 2.532-.664 5.053.021.17-.046.288-.204.352a.335.335 0 01-.407-.096C.596 11.284 0 9.845 0 8.556c0-.427.018-.82.054-1.18.035-.36.112-.757.23-1.191.118-.434.277-.823.477-1.164.2-.342.473-.682.82-1.02.346-.339.703-.582 1.22-.844.636-.323 1.049-.406 1.742-.545a11.818 11.818 0 012.314-.208V.694c0-.299.143-.509.429-.63.278-.12.525-.071.739.15l3.771 3.76a.656.656 0 01.204.48.655.655 0 01-.204.481z"/></symbol><symbol viewBox="0 0 64 64" id="location" xmlns="http://www.w3.org/2000/svg"><path d="M15.86 6.57A22.23 22.23 0 0132 0a22.23 22.23 0 0116.14 6.57 21.38 21.38 0 016.72 15.86q0 7.42-5.72 17.86a102.92 102.92 0 01-11.43 17.14L32 64c-.67-.67-1.5-1.6-2.5-2.79s-2.81-3.5-5.43-6.92-4.93-6.77-6.93-10a74.68 74.68 0 01-5.5-11 29.56 29.56 0 01-2.5-10.86 21.38 21.38 0 016.72-15.86zm10.35 21.5A7.89 7.89 0 0032 30.43a7.89 7.89 0 005.79-2.36 7.94 7.94 0 000-11.28A7.85 7.85 0 0032 14.43a7.85 7.85 0 00-5.79 2.36 7.94 7.94 0 000 11.28z"/></symbol><symbol viewBox="0 0 18 11" id="menu" xmlns="http://www.w3.org/2000/svg"><path d="M0 0h18v1H0V0zm0 5h18v1H0V5zm18 5H0v1h18v-1z"/></symbol><symbol viewBox="0 0 23 20" id="message" xmlns="http://www.w3.org/2000/svg"><path d="M6.733 0H17.14c3.219 0 5.838 2.699 5.838 6.016V9.71c.049 1.415.196 8.555-1.779 10.153a.611.611 0 01-.575.107.634.634 0 01-.408-.432c-.299-1.054-1.434-3.789-3.076-3.789H6.732c-3.22 0-5.838-2.699-5.838-6.016V6.016C.895 2.699 3.514 0 6.733 0zM2.141 9.733c0 2.61 2.06 4.733 4.592 4.733H17.14c1.981 0 3.22 2.095 3.826 3.494.66-1.799.858-5.572.766-8.227V6.016c0-2.61-2.06-4.732-4.592-4.732H6.733c-2.532 0-4.592 2.123-4.592 4.732v3.717z"/></symbol><symbol viewBox="0 0 11 1" id="minus" xmlns="http://www.w3.org/2000/svg"><path d="M11 .5H0"/></symbol><symbol viewBox="0 0 64 64" id="ok" xmlns="http://www.w3.org/2000/svg"><path d="M50.68 34.36a5.45 5.45 0 01.54 1.77 3.53 3.53 0 01-.17 1.44 4 4 0 01-.94 1.43 13.43 13.43 0 01-1.52 1.32c-.54.39-1.27.88-2.2 1.48q-4.11 2.61-11.25 3.36l2.61 2.57 9.54 9.53a3.69 3.69 0 011.07 2.65 3.55 3.55 0 01-1.07 2.6l-.43.47a3.8 3.8 0 01-5.29 0Q39.18 60.5 32 53.36l-9.5 9.57A3.69 3.69 0 0119.86 64a3.57 3.57 0 01-2.61-1.07l-.43-.47a3.46 3.46 0 01-1.1-2.6 3.6 3.6 0 011.1-2.65l9.54-9.53 2.57-2.57q-7.24-.75-11.32-3.36c-.93-.6-1.67-1.09-2.2-1.48A12.61 12.61 0 0113.89 39a4.08 4.08 0 01-1-1.38 3.37 3.37 0 01-.15-1.44 5 5 0 01.53-1.77 3.76 3.76 0 011-1.25 4.15 4.15 0 011.5-.79 3.63 3.63 0 012 .07 6.8 6.8 0 012.32 1.25c.12.1.3.23.54.4s.75.45 1.54.87A18.17 18.17 0 0024.68 36a22.51 22.51 0 003.29.86 21.44 21.44 0 0010.25-.52 17.39 17.39 0 004.28-1.8l1.36-.9a6.71 6.71 0 012.32-1.25 3.63 3.63 0 012-.07 4.15 4.15 0 011.5.79 3.76 3.76 0 011 1.25zm-7.21-6.72A15.62 15.62 0 0132 32.39a15.58 15.58 0 01-11.46-4.75 15.55 15.55 0 01-4.75-11.43 15.61 15.61 0 014.75-11.46A15.58 15.58 0 0132 0a15.62 15.62 0 0111.47 4.75 15.65 15.65 0 014.75 11.46 15.59 15.59 0 01-4.75 11.43zm-5.85-17.09a7.93 7.93 0 00-11.25 0A7.71 7.71 0 0024 16.21a7.67 7.67 0 002.33 5.63 7.93 7.93 0 0011.25 0A7.69 7.69 0 0040 16.21a7.72 7.72 0 00-2.38-5.66z"/></symbol><symbol viewBox="0 0 11 11" id="plus" xmlns="http://www.w3.org/2000/svg"><path d="M5.133 6.133V11h1V6.133H11v-1H6.133V0h-1v5.133H0v1h5.133z"/></symbol><symbol viewBox="0 0 11 11" id="radio" xmlns="http://www.w3.org/2000/svg"><path d="M5.5.5a5 5 0 11-5 5 5 5 0 015-5m0-.5A5.5 5.5 0 1011 5.5 5.5 5.5 0 005.5 0z"/></symbol><symbol viewBox="0 0 11 11" id="radio-checked" xmlns="http://www.w3.org/2000/svg"><path d="M5.5.5a5 5 0 11-5 5 5 5 0 015-5m0-.5A5.5 5.5 0 1011 5.5 5.5 5.5 0 005.5 0z"/><circle cx="5.5" cy="5.5" r="2.5"/></symbol><symbol viewBox="0 0 20 18" id="refresh" xmlns="http://www.w3.org/2000/svg"><path d="M19.01 13.078a.739.739 0 00-.93-.473l-.96.311A8.983 8.983 0 0018.016 9c0-4.963-4.04-9-9.008-9C4.041 0 0 4.037 0 9s4.04 9 9.008 9a.738.738 0 100-1.475c-4.153 0-7.531-3.376-7.531-7.525 0-4.15 3.378-7.525 7.531-7.525S16.539 4.851 16.539 9a7.507 7.507 0 01-.751 3.28l-.328-1.01a.739.739 0 00-1.405.456l.87 2.678a.738.738 0 00.931.474l2.68-.87a.738.738 0 00.474-.93z"/></symbol><symbol viewBox="0 0 12 17" id="rouble" xmlns="http://www.w3.org/2000/svg"><path d="M12 4.951c0 1.72-.553 3.049-1.67 3.973-1.111.93-2.704 1.39-4.773 1.39H3.662v2.113h4.236V14H3.662v3H1.787v-3H0v-1.573h1.787v-2.19H0V8.666h1.787V0h4.175C9.992 0 12 1.649 12 4.951zM3.662 8.616h1.685c1.66 0 2.858-.286 3.6-.848.743-.568 1.117-1.47 1.117-2.725 0-1.119-.353-1.957-1.05-2.508-.696-.551-1.782-.827-3.257-.827H3.662v6.908z"/></symbol><symbol viewBox="0 0 20 20" id="search" xmlns="http://www.w3.org/2000/svg"><path d="M19.913 18.99l-5.125-5.147c1.252-1.737 1.959-3.242 1.959-5.435C16.747 3.763 13 0 8.372 0 3.75 0 0 3.767 0 8.408c0 4.634 3.732 8.412 8.372 8.412 2.165 0 3.703-.71 5.412-1.971L18.909 20l1.005-1.01zM15.325 8.409c0 3.898-3.163 6.984-6.953 6.984-3.834 0-6.954-3.13-6.954-6.984 0-3.858 3.112-6.984 6.954-6.984 3.837 0 6.953 3.13 6.953 6.984z"/></symbol><symbol viewBox="0 0 64 64" id="telegram" xmlns="http://www.w3.org/2000/svg"><path d="M54.12 55.54c-.38 1.62-1 2.64-1.93 3.07a3.64 3.64 0 01-3.36-.5l-14.7-10.85L27 54.11a8.66 8.66 0 01-1.14 1 3.66 3.66 0 01-1.86.43l1.14-15L52.4 15.85c.38-.29.5-.55.36-.79s-.43-.33-.86-.28a3.35 3.35 0 00-1.35.5l-33.7 21.27L2.29 32C.67 31.5-.09 30.79 0 29.84S1.1 28 3 27.27L59.68 5.43a3.19 3.19 0 013.43.5c.86.81 1.09 2.21.71 4.21z"/></symbol><symbol viewBox="0 0 48 48" id="throbber" xmlns="http://www.w3.org/2000/svg"><path d="M46 24c0 12.2-9.8 22-22 22S2 36.2 2 24h22V2c12.2 0 22 9.8 22 22z"/><path d="M24 46c12.2 0 22-9.8 22-22S36.2 2 24 2V0c13.3 0 24 10.7 24 24S37.3 48 24 48 0 37.3 0 24h2c0 12.2 9.8 22 22 22z"/><path d="M24 0v2C11.8 2 2 11.8 2 24H0C0 10.7 10.7 0 24 0z"/></symbol><symbol viewBox="0 0 8 4" id="unwrap" xmlns="http://www.w3.org/2000/svg"><path d="M0 0h7.466L3.733 3.733 0 0z"/></symbol><symbol viewBox="0 0 30 16" id="up" xmlns="http://www.w3.org/2000/svg"><path d="M15.142 1l.354-.354-.354-.353-.353.353.353.354zM1.354 15.496L15.496 1.354l-.707-.708L.646 14.79l.708.707zM14.789 1.354L28.93 15.496l.707-.707L15.496.646l-.707.708z"/></symbol><symbol viewBox="0 0 21 25" id="user" xmlns="http://www.w3.org/2000/svg"><path d="M10.2 0c2.89 0 5.1 2.21 5.1 5.1 0 2.89-2.21 5.1-5.1 5.1-2.89 0-5.1-2.21-5.1-5.1C5.1 2.21 7.31 0 10.2 0zm0 24.14c-4.25 0-7.99-2.21-10.2-5.44 0-3.4 6.8-5.27 10.2-5.27 3.4 0 10.2 1.87 10.2 5.27-2.21 3.23-5.95 5.44-10.2 5.44z"/></symbol><symbol viewBox="0 0 64 64" id="viber" xmlns="http://www.w3.org/2000/svg"><path d="M60.77 55.87a4.32 4.32 0 00-.94-5.65A50.26 50.26 0 0049 42.67a4.27 4.27 0 00-3.42-.82 4.39 4.39 0 00-2.71 1.53l-2.36 2.83a3.16 3.16 0 01-2.12 1.18l-1.18.23a24.55 24.55 0 01-9.66-4.95 24.75 24.75 0 01-6.13-6.6 30.34 30.34 0 01-3.07-5.89l-.94-2.6V26.4a3.18 3.18 0 011.18-2.12l2.83-2.12a4.44 4.44 0 001.53-2.71 5.53 5.53 0 00-.59-3.65c-1.26-2.2-2.43-4.09-3.53-5.66L14.56 5A4.33 4.33 0 008.9 4a24.08 24.08 0 00-6.36 5.19Q-.05 13 .89 16.27l1.41 3.06a69.75 69.75 0 005 10.26 96.58 96.58 0 007.08 10.72 58.38 58.38 0 009.9 9.91 96.8 96.8 0 0013.2 8.48 63.72 63.72 0 0011.08 4.95q3.3 1.18 7.07-1.65a20.29 20.29 0 005.14-6.13zm2.59-23.1q0-15.09-9.19-24.05Q45.44 0 32 0q-1.65 0-1.65 1.53T32 3.06q12 0 19.8 7.55 8.49 8.25 8.49 22.16 0 1.41 1.53 1.41t1.54-1.41zm-11.08-3.3c0 1.1.51 1.65 1.54 1.65s1.53-.47 1.53-1.42A20.79 20.79 0 0050 14.62q-5.49-6.13-15.4-6.84-1.41 0-1.53 1.53c-.08 1 .35 1.53 1.3 1.53q8.72.72 13.43 5.9a17.34 17.34 0 014.48 12.73zm-4.71-2.59Q47.09 16.5 37 16c-.94 0-1.46.51-1.53 1.53s.35 1.54 1.29 1.54q7.32.46 7.78 8c0 .94.51 1.42 1.54 1.42s1.49-.49 1.49-1.61z"/></symbol><symbol viewBox="0 0 19 12" id="vk" xmlns="http://www.w3.org/2000/svg"><path d="M15.745 5.43S18.241 1.914 18.49.76c.086-.415-.097-.647-.53-.647h-2.165c-.497 0-.676.216-.827.529 0 0-1.172 2.491-2.598 4.066-.454.507-.685.658-.94.658-.205 0-.297-.168-.297-.626V.728c0-.566-.07-.728-.53-.728H7.13c-.265 0-.432.151-.432.36 0 .53.81.648.81 2.082v2.956c0 .598-.033.825-.313.825-.746 0-2.518-2.556-3.506-5.463C3.489.162 3.273 0 2.71 0H.546C.232 0 0 .216 0 .529c0 .576.675 3.251 3.338 6.837 1.788 2.41 4.137 3.716 6.254 3.716 1.291 0 1.604-.216 1.604-.76v-1.85c0-.464.184-.664.448-.664.297 0 .821.097 2.048 1.305 1.458 1.39 1.556 1.968 2.349 1.968h2.43c.25 0 .481-.119.481-.528 0-.545-.712-1.521-1.804-2.675-.443-.599-1.171-1.241-1.404-1.537-.329-.346-.232-.545 0-.911h.001z"/></symbol><symbol viewBox="0 0 80 20" id="webest" xmlns="http://www.w3.org/2000/svg"><path d="M9.4 4.898a4.77 4.77 0 013.376 1.407 4.767 4.767 0 011.395 3.38 4.767 4.767 0 01-4.772 4.776 4.767 4.767 0 01-4.772-4.776c0-1.319.532-2.516 1.396-3.38a4.768 4.768 0 013.376-1.407zm1.649 3.136a2.334 2.334 0 00-1.65-.687 2.33 2.33 0 00-2.325 2.338c0 .642.255 1.23.676 1.65a2.32 2.32 0 001.65.677 2.325 2.325 0 002.335-2.327c0-.643-.265-1.23-.686-1.651z"/><path d="M0 7.435a9.679 9.679 0 013.41-5.352A9.725 9.725 0 019.4 0a9.653 9.653 0 016.841 2.837 9.65 9.65 0 012.835 6.848c0 .997-.155 1.983-.454 2.925a9.87 9.87 0 01-1.318 2.649l-2.413-1.707a6.781 6.781 0 00.908-1.84 6.693 6.693 0 00-1.65-6.782 6.681 6.681 0 00-4.75-1.971A6.7 6.7 0 002.867 8.11L0 7.435zm37.797-.543l-1.838 6.56c-.155.521-.354.909-.598 1.142-.343.31-.863.476-1.539.476-1.151 0-1.838-.399-2.07-1.174l-1.074-3.524c-.044-.166-.088-.244-.122-.244-.022 0-.066.078-.122.244l-1.062 3.524c-.233.775-.92 1.174-2.07 1.174-.687 0-1.196-.166-1.54-.476-.243-.233-.442-.62-.597-1.142l-1.838-6.56h2.834l1.218 4.654c.033.156.088.244.144.244.044 0 .088-.077.144-.232l1.184-3.901c.178-.576.742-.853 1.705-.853.975 0 1.54.277 1.716.853l1.185 3.9c.055.156.1.233.133.233.066 0 .11-.088.155-.243l1.218-4.655h2.834zm8.58 3.17c0 .72-.155 1.219-.487 1.485-.188.143-.454.221-.786.221h-4.407c-.022.266.023.488.133.665.111.177.3.3.565.344.133.022.387.033.775.033h3.92v2.16h-5.105c-.775 0-1.317-.044-1.65-.133a1.986 1.986 0 01-1.206-.897c-.277-.465-.42-1.43-.42-2.914 0-1.053.01-1.718.044-1.995.077-.632.287-1.12.62-1.452.332-.343.863-.565 1.605-.675.476-.067 1.207-.1 2.192-.1.963 0 1.639.022 2.048.066.565.089.996.244 1.295.477.576.465.864 1.374.864 2.715zm-2.99-.61c0-.354-.298-.554-.907-.598-.155-.011-.299-.011-.432-.011-.62 0-1.007.077-1.162.232-.155.144-.222.421-.189.81h2.204c.332 0 .487-.145.487-.433zm12.3 1.463c0 1.208-.176 2.116-.53 2.715-.532.897-1.473 1.34-2.846 1.34h-3.554c-.564 0-.996-.155-1.295-.465-.233-.255-.354-.587-.354-.997V4.299h2.989v2.593h2.17c1.373 0 2.336.433 2.878 1.308.366.598.543 1.507.543 2.715zm-3.044-.033c0-.543-.066-.964-.199-1.264-.177-.41-.51-.62-.985-.62h-1.362v3.08c0 .289.044.488.144.588.1.1.277.144.542.144h.61c.52 0 .863-.189 1.04-.554.144-.289.21-.754.21-1.374zm12.267-.82c0 .72-.166 1.219-.487 1.485-.188.143-.454.221-.786.221H59.23c-.023.266.022.488.132.665.111.177.3.3.565.344.133.022.388.033.775.033h3.92v2.16h-5.105c-.775 0-1.317-.044-1.65-.133a1.955 1.955 0 01-1.206-.897c-.288-.465-.42-1.43-.42-2.914 0-1.053.01-1.718.044-1.995.077-.632.288-1.12.62-1.452.332-.343.863-.565 1.605-.675.476-.067 1.207-.1 2.192-.1.952 0 1.639.022 2.048.066.565.089.997.244 1.295.477.576.465.864 1.374.864 2.715zm-2.99-.61c0-.354-.298-.554-.907-.598-.155-.011-.299-.011-.432-.011-.62 0-1.007.077-1.162.232-.155.144-.222.421-.188.81h2.203c.332 0 .487-.145.487-.433zm11.404 3.413c0 .798-.221 1.374-.675 1.729-.31.255-.753.377-1.318.377h-5.779V12.81h4.406a.368.368 0 00.178-.056c.055-.033.077-.088.077-.155 0-.077-.044-.133-.122-.177-.077-.045-.387-.155-.93-.333l-1.738-.565c-.841-.277-1.395-.631-1.66-1.063-.2-.333-.3-.787-.3-1.363 0-.588.122-1.064.377-1.441.343-.51.974-.765 1.871-.765h5.403v2.073h-4.395c-.189 0-.31 0-.344.01-.1.023-.144.067-.144.145 0 .077.056.144.166.177.089.044.288.122.61.233l2.047.687c.953.321 1.573.687 1.85 1.086.276.41.42.93.42 1.562zM80 8.965h-2.303v1.85c0 .765.177 1.308.52 1.607.288.255.72.388 1.307.388h.443v2.16h-1.738c-1.13 0-1.96-.177-2.502-.543-.676-.454-1.019-1.119-1.019-1.983v-3.48h-1.14V6.893h1.14V4.3h2.99v2.593H80v2.073zm-64.334 8.078a9.797 9.797 0 01-2.923 1.728 9.744 9.744 0 01-3.344.588c-.42 0-.852-.023-1.306-.089a8.536 8.536 0 01-1.284-.266l.786-2.848c.288.089.587.144.885.189.288.033.598.055.92.055.808 0 1.594-.144 2.324-.41a6.823 6.823 0 002.037-1.186l1.905 2.239zm-11.337.875c-.465-.288-.897-.61-1.307-.964a9.226 9.226 0 01-1.118-1.164l2.28-1.872c.244.299.5.565.787.82.277.244.587.465.908.665l-1.55 2.515z"/></symbol><symbol viewBox="0 0 64 64" id="whatsapp" xmlns="http://www.w3.org/2000/svg"><path d="M46.8 38.6l-.4-.2a61.3 61.3 0 00-5.5-2.8 1.27 1.27 0 00-1.7.6 22.3 22.3 0 01-2.4 3c-.4.53-1 .6-1.8.2a34.42 34.42 0 01-6-3.6 23.9 23.9 0 01-4.8-5.8 1.53 1.53 0 01-.1-.9 3 3 0 01.7-.9 8.34 8.34 0 001.8-2.6 1.31 1.31 0 000-1.4L24 18.4c-.27-.93-.8-1.4-1.6-1.4h-1.6a3.05 3.05 0 00-2.2 1v.2a9 9 0 00-2.8 6.6q0 3.79 3.4 8v.2q6 8.59 13.4 11.8a29.25 29.25 0 005.6 2 10 10 0 004 0 9 9 0 003-1.3 5.69 5.69 0 002.4-2.5 10.25 10.25 0 00.5-2.3 2.61 2.61 0 00-.1-1.4 2.86 2.86 0 00-1.2-.7z"/><path d="M61.5 19.6a32.83 32.83 0 00-7-10.3A31.56 31.56 0 0032 0a30.76 30.76 0 00-15.9 4.3A32.25 32.25 0 004.5 15.9a31.05 31.05 0 00.1 31.7L0 64l16.8-4.4A31.39 31.39 0 0032 63.4a31.27 31.27 0 0016-4.3 32.34 32.34 0 0011.7-11.5A30.22 30.22 0 0064 31.8a30.44 30.44 0 00-2.5-12.2zM55 44.9A26.5 26.5 0 0132 58a23.91 23.91 0 01-13.4-3.6l-1-.6-10 2.6 2.6-9.6-.6-1a25.88 25.88 0 01-4-14 25.71 25.71 0 013.6-13.3 26.46 26.46 0 019.6-9.6A26.37 26.37 0 0142 7.4a27.12 27.12 0 018.6 5.7 26.45 26.45 0 015.9 8.6A25.51 25.51 0 0155 44.9z"/></symbol><symbol viewBox="0 0 8 4" id="wrap" xmlns="http://www.w3.org/2000/svg"><path d="M0 4h7.466L3.733.267 0 4z"/></symbol><symbol viewBox="0 0 23 16" id="youtube" xmlns="http://www.w3.org/2000/svg"><path d="M22.195 3.397s-.219-1.543-.891-2.222C20.452.283 19.496.28 19.058.227 15.92 0 11.215 0 11.215 0h-.01S6.499 0 3.36.227c-.438.052-1.393.056-2.246.948-.672.68-.89 2.222-.89 2.222S0 5.208 0 7.019v1.698c0 1.812.225 3.623.225 3.623s.218 1.542.89 2.222c.853.891 1.973.863 2.472.956 1.794.172 7.622.225 7.622.225s4.712-.007 7.849-.233c.438-.052 1.394-.057 2.246-.948.672-.68.891-2.222.891-2.222s.224-1.811.224-3.623V7.02c0-1.81-.224-3.622-.224-3.622zm-13.3 7.378V4.486l6.057 3.155-6.057 3.134z"/></symbol></svg>