<?xml version="1.0" encoding="UTF-8"?>
<svg width="19px" height="8px" viewBox="0 0 19 8" version="1.1" xmlns="http://www.w3.org/2000/svg" xmlns:xlink="http://www.w3.org/1999/xlink">
    <!-- Generator: Sketch 47 (45396) - http://www.bohemiancoding.com/sketch -->
    <title>Login icon</title>
    <desc>Created with Sketch.</desc>
    <defs></defs>
    <g id="Main" stroke="none" stroke-width="1" fill="none" fill-rule="evenodd">
        <g id="Kalinza-main" transform="translate(-1162.000000, -16.000000)" fill-rule="nonzero" fill="#000000">
            <g id="top">
                <path d="M1179.59896,19.2000456 L1169.91908,19.2000456 C1169.5084,17.1881898 1167.64095,15.814103 1165.59792,16.0204823 C1163.55488,16.2268616 1162,17.9466582 1162,20 C1162,22.0533418 1163.55488,23.7731384 1165.59792,23.9795177 C1167.64095,24.185897 1169.5084,22.8118102 1169.91908,20.7999544 L1174.79902,20.7999544 L1174.79902,22.3998632 C1174.79902,22.8416658 1175.15719,23.1998175 1175.59901,23.1998175 C1176.04083,23.1998175 1176.399,22.8416658 1176.399,22.3998632 L1176.399,20.7999544 L1177.19899,20.7999544 L1177.19899,22.3998632 C1177.19899,22.8416658 1177.55716,23.1998175 1177.99898,23.1998175 C1178.4408,23.1998175 1178.79897,22.8416658 1178.79897,22.3998632 L1178.79897,20.7999544 L1179.59896,20.7999544 C1180.04078,20.7999544 1180.39895,20.4418026 1180.39895,20 C1180.39895,19.5581974 1180.04078,19.2000456 1179.59896,19.2000456 Z M1165.99913,22.3998632 C1164.67367,22.3998632 1163.59916,21.3254078 1163.59916,20 C1163.59916,18.6745922 1164.67367,17.6001368 1165.99913,17.6001368 C1167.3246,17.6001368 1168.3991,18.6745922 1168.3991,20 C1168.3991,20.6364833 1168.14625,21.2468979 1167.69617,21.6969595 C1167.24609,22.1470212 1166.63564,22.3998632 1165.99913,22.3998632 Z" id="Login-icon"></path>
            </g>
        </g>
    </g>
</svg>