<?xml version="1.0" encoding="UTF-8"?>
<svg width="16px" height="16px" viewBox="0 0 16 16" version="1.1" xmlns="http://www.w3.org/2000/svg" xmlns:xlink="http://www.w3.org/1999/xlink">
    <!-- Generator: Sketch 48.1 (47250) - http://www.bohemiancoding.com/sketch -->
    <title>close-icon</title>
    <desc>Created with Sketch.</desc>
    <defs></defs>
    <g id="Kalinza-basket-1" stroke="none" stroke-width="1" fill="none" fill-rule="evenodd" transform="translate(-854.000000, -270.000000)">
        <g id="Basket" transform="translate(34.000000, 151.000000)" fill="#13A0DB" fill-rule="nonzero">
            <g id="Table-tovar" transform="translate(1.000000, 104.000000)">
                <g id="1-товар" transform="translate(47.000000, 0.000000)">
                    <path d="M772.363636,30.6363636 C772.587413,30.8601399 772.867133,30.972028 773.146853,30.972028 C773.426573,30.972028 773.706294,30.8601399 773.93007,30.6363636 L780,24.5944056 L786.06993,30.6643357 C786.293706,30.8881119 786.573427,31 786.853147,31 C787.132867,31 787.412587,30.8881119 787.636364,30.6643357 C788.083916,30.2167832 788.083916,29.5174825 787.636364,29.0699301 L781.594406,23 L787.664336,16.9300699 C788.111888,16.4825175 788.111888,15.7832168 787.664336,15.3356643 C787.216783,14.8881119 786.517483,14.8881119 786.06993,15.3356643 L780,21.4055944 L773.93007,15.3636364 C773.482517,14.9160839 772.783217,14.9160839 772.335664,15.3636364 C771.888112,15.8111888 771.888112,16.5104895 772.335664,16.958042 L778.405594,23 L772.363636,29.0699301 C771.916084,29.4895105 771.916084,30.2167832 772.363636,30.6363636 Z" id="close-icon"></path>
                </g>
            </g>
        </g>
    </g>
</svg>