<?xml version="1.0" encoding="UTF-8"?>
<svg width="19px" height="8px" viewBox="0 0 19 8" version="1.1" xmlns="http://www.w3.org/2000/svg" xmlns:xlink="http://www.w3.org/1999/xlink">
    <!-- Generator: Sketch 48.1 (47250) - http://www.bohemiancoding.com/sketch -->
    <title>Login icon</title>
    <desc>Created with Sketch.</desc>
    <defs></defs>
    <g id="Kalinza-main-sign-in" stroke="none" stroke-width="1" fill="none" fill-rule="evenodd" transform="translate(-1162.000000, -16.000000)" opacity="0.049999997">
        <g id="Main" transform="translate(0.000000, 9.000000)" fill="#000000" fill-rule="nonzero">
            <g id="top">
                <path d="M1179.59896,10.2000456 L1169.91908,10.2000456 C1169.5084,8.18818975 1167.64095,6.81410305 1165.59792,7.0204823 C1163.55488,7.22686155 1162,8.94665821 1162,11 C1162,13.0533418 1163.55488,14.7731384 1165.59792,14.9795177 C1167.64095,15.185897 1169.5084,13.8118102 1169.91908,11.7999544 L1174.79902,11.7999544 L1174.79902,13.3998632 C1174.79902,13.8416658 1175.15719,14.1998175 1175.59901,14.1998175 C1176.04083,14.1998175 1176.399,13.8416658 1176.399,13.3998632 L1176.399,11.7999544 L1177.19899,11.7999544 L1177.19899,13.3998632 C1177.19899,13.8416658 1177.55716,14.1998175 1177.99898,14.1998175 C1178.4408,14.1998175 1178.79897,13.8416658 1178.79897,13.3998632 L1178.79897,11.7999544 L1179.59896,11.7999544 C1180.04078,11.7999544 1180.39895,11.4418026 1180.39895,11 C1180.39895,10.5581974 1180.04078,10.2000456 1179.59896,10.2000456 Z M1165.99913,13.3998632 C1164.67367,13.3998632 1163.59916,12.3254078 1163.59916,11 C1163.59916,9.67459218 1164.67367,8.60013684 1165.99913,8.60013684 C1167.3246,8.60013684 1168.3991,9.67459218 1168.3991,11 C1168.3991,11.6364833 1168.14625,12.2468979 1167.69617,12.6969595 C1167.24609,13.1470212 1166.63564,13.3998632 1165.99913,13.3998632 Z" id="Login-icon"></path>
            </g>
        </g>
    </g>
</svg>