<svg width="16" height="20" fill="none" xmlns="http://www.w3.org/2000/svg"><path d="M11.951 3.724h2.628c.416 5.425.845 10.854 1.278 16.276H0L1.235 3.724h2.667A4.08 4.08 0 0 1 5.14 1.132 4.012 4.012 0 0 1 7.928 0c1.078 0 2.06.435 2.785 1.132a4.063 4.063 0 0 1 1.238 2.592zm-2.05-1.76a2.873 2.873 0 0 0-1.973-.791c-.758 0-1.456.303-1.972.792a2.907 2.907 0 0 0-.886 1.759h5.717a2.908 2.908 0 0 0-.886-1.76zM3.885 4.897H2.332l-1.06 13.935h13.357l-1.06-13.935h-1.597v2.76h-1.168v-2.76H5.053v2.76H3.885v-2.76z" fill="#333"/></svg>