<svg width="18" height="18" fill="none" xmlns="http://www.w3.org/2000/svg"><path d="M17.358 16.723H.642a.635.635 0 0 0-.627.639c0 .342.29.638.627.638h16.732a.635.635 0 0 0 .626-.638.649.649 0 0 0-.642-.639zM.015 11.07L0 14.108c0 .171.061.343.183.467a.606.606 0 0 0 .443.187l2.965-.015a.61.61 0 0 0 .443-.187L14.272 4.126a.667.667 0 0 0 0-.918L11.338.187a.637.637 0 0 0-.902 0L8.39 2.289.2 10.619a.7.7 0 0 0-.184.452zm10.88-9.513l2.063 2.102-1.162 1.184L9.733 2.74l1.162-1.183zm-9.611 9.794L8.832 3.66l2.063 2.102-7.549 7.677-2.078.015.016-2.102z" fill="#333"/></svg>