<svg width="20" height="20" fill="none" xmlns="http://www.w3.org/2000/svg"><path d="M19.31 15.638a.502.502 0 0 0-.503-.503H1.711l3.005-3.01a.499.499 0 1 0-.706-.706L.15 15.282a.499.499 0 0 0 0 .707l3.86 3.864a.497.497 0 0 0 .355.147.499.499 0 0 0 .355-.855l-3.005-3.009h17.1c.27 0 .495-.22.495-.498zm-.147-11.631L15.304.147a.499.499 0 1 0-.706.707l3.005 3.01H.503a.502.502 0 1 0 0 1.005h17.1L14.598 7.87a.499.499 0 0 0 .355.854c.13 0 .257-.049.355-.147l3.859-3.863a.503.503 0 0 0-.004-.707z" fill="#000"/></svg>