<svg width="36" height="36" viewBox="0 0 36 36" fill="none" xmlns="http://www.w3.org/2000/svg">
<path d="M35.1143 17.6344C31.5283 11.5664 25.0174 7.7625 18.0002 7.7625C10.983 7.7625 4.46504 11.5664 0.886133 17.6344C0.738477 17.8523 0.738477 18.1477 0.886133 18.3656C4.47207 24.4336 10.983 28.2375 18.0002 28.2375C25.0174 28.2375 31.5354 24.4336 35.1143 18.3656C35.2619 18.1477 35.2619 17.8523 35.1143 17.6344ZM18.0002 26.775C11.6369 26.775 5.70957 23.4141 2.41895 18C5.70957 12.5859 11.6369 9.225 18.0002 9.225C24.3635 9.225 30.2908 12.5859 33.5814 18C30.2908 23.4141 24.3635 26.775 18.0002 26.775Z" fill="#1FA4DC"/>
<path d="M18.0002 11.4187C14.3439 11.4187 11.4189 14.3437 11.4189 18C11.4189 21.6562 14.3439 24.5812 18.0002 24.5812C21.6564 24.5812 24.5814 21.6562 24.5814 18C24.5814 14.3437 21.6564 11.4187 18.0002 11.4187ZM18.0002 23.1187C15.1455 23.1187 12.8814 20.8477 12.8814 18C12.8814 15.1523 15.1525 12.8812 18.0002 12.8812C20.8479 12.8812 23.1189 15.1523 23.1189 18C23.1189 20.8477 20.8549 23.1187 18.0002 23.1187Z" fill="#1FA4DC"/>
<path d="M18.0002 15.075V16.5375C18.8018 16.5375 19.4627 17.1984 19.4627 18C19.4627 18.8016 18.8018 19.4625 18.0002 19.4625C17.1986 19.4625 16.5377 18.8016 16.5377 18H15.0752C15.0752 19.6102 16.39 20.925 18.0002 20.925C19.6104 20.925 20.9252 19.6102 20.9252 18C20.9252 16.3898 19.6104 15.075 18.0002 15.075Z" fill="#1FA4DC"/>
</svg>
