<svg width="38" height="38" viewBox="0 0 38 38" fill="none" xmlns="http://www.w3.org/2000/svg">
<g clip-path="url(#clip0)">
<path d="M37.8671 23.2877V23.275C37.7369 22.53 37.5025 21.8073 37.1703 21.1279C37.1713 21.119 37.1691 21.11 37.1642 21.1026C33.0982 8.60692 32.4203 7.58734 32.1924 7.2518C30.7801 5.13008 26.4544 5.06668 25.9667 5.06668C25.6169 5.06668 25.3334 5.35026 25.3334 5.70001C25.3334 6.04977 25.6169 6.33335 25.9667 6.33335C27.1069 6.33335 30.2544 6.62466 31.141 7.94822C31.4069 8.35364 32.2558 10.279 34.903 18.2779C33.4492 17.1034 31.6358 16.4639 29.7667 16.4667C27.1091 16.4698 24.6162 17.7553 23.0725 19.9185C21.974 18.8822 20.5095 18.324 19 18.3667C17.4885 18.3225 16.0214 18.8806 14.9214 19.9185C13.613 18.0757 11.602 16.8551 9.36335 16.5446C7.12504 16.2341 4.85766 16.8613 3.09712 18.2779C5.74426 10.279 6.59314 8.35364 6.85909 7.94822C7.74569 6.62466 10.8935 6.33335 12.0334 6.33335C12.3831 6.33335 12.6667 6.04977 12.6667 5.70001C12.6667 5.35026 12.3831 5.06668 12.0334 5.06668C11.5457 5.06668 7.21998 5.13008 5.80766 7.2518C5.57974 7.58734 4.90219 8.60692 0.835926 21.1026C0.835926 21.1091 0.829741 21.1152 0.829741 21.1279C0.497612 21.8073 0.263205 22.53 0.133013 23.275V23.2877C0.0467333 23.7537 0.00220204 24.2263 3.73225e-05 24.7C-0.0101677 28.102 2.07321 31.1598 5.24266 32.3956C8.41212 33.6313 12.0154 32.7905 14.3103 30.2794C16.6056 27.7683 17.1201 24.1044 15.6055 21.0583C16.4633 20.0947 17.7114 19.5709 19 19.6333C20.289 19.5709 21.5368 20.0947 22.3946 21.0583C20.8898 24.1022 21.4087 27.7578 23.7015 30.2621C25.9942 32.7667 29.5901 33.6056 32.7543 32.3749C35.9188 31.1437 38.0025 28.0955 38 24.7C37.9979 24.2263 37.9533 23.7537 37.8671 23.2877ZM8.23337 31.6667C4.38575 31.6667 1.2667 28.5476 1.2667 24.7C1.2667 20.8524 4.38575 17.7333 8.23337 17.7333C12.081 17.7333 15.2 20.8524 15.2 24.7C15.1976 28.5467 12.0801 31.6642 8.23337 31.6667ZM29.7667 31.6667C25.9191 31.6667 22.8 28.5476 22.8 24.7C22.8 20.8524 25.9191 17.7333 29.7667 17.7333C33.6143 17.7333 36.7334 20.8524 36.7334 24.7C36.7309 28.5467 33.6134 31.6642 29.7667 31.6667Z" fill="#1FA4DC"/>
<path d="M3.80009 23.4333C3.52084 23.4336 3.27437 23.2512 3.19335 22.984C3.11233 22.7168 3.21561 22.428 3.44786 22.273L7.24786 19.7397C7.53886 19.5455 7.93221 19.624 8.12642 19.915C8.32063 20.206 8.24208 20.5994 7.95108 20.7936L4.15108 23.3269C4.04717 23.3962 3.92502 23.4333 3.80009 23.4333Z" fill="#1FA4DC"/>
<path d="M3.16678 26.6C2.88754 26.6003 2.64107 26.4178 2.56005 26.1507C2.47902 25.8835 2.58231 25.5946 2.81456 25.4397L6.61455 22.9064C6.90555 22.7122 7.29891 22.7907 7.49312 23.0817C7.68732 23.3727 7.60878 23.7661 7.31778 23.9603L3.51778 26.4936C3.41387 26.5629 3.29172 26.6 3.16678 26.6Z" fill="#1FA4DC"/>
<path d="M25.3333 22.8C25.054 22.8003 24.8076 22.6179 24.7266 22.3507C24.6455 22.0835 24.7488 21.7947 24.9811 21.6397L28.7811 19.1064C29.0721 18.9122 29.4654 18.9907 29.6596 19.2817C29.8538 19.5727 29.7753 19.9661 29.4843 20.1603L25.6843 22.6936C25.5804 22.7629 25.4582 22.8 25.3333 22.8Z" fill="#1FA4DC"/>
<path d="M24.7 25.9667C24.4207 25.967 24.1743 25.7845 24.0932 25.5173C24.0122 25.2501 24.1155 24.9613 24.3478 24.8064L28.1478 22.273C28.4388 22.0788 28.8321 22.1574 29.0263 22.4484C29.2205 22.7394 29.142 23.1327 28.851 23.327L25.051 25.8603C24.9471 25.9296 24.8249 25.9667 24.7 25.9667Z" fill="#1FA4DC"/>
</g>
<defs>
<clipPath id="clip0">
<rect width="38" height="38" fill="white"/>
</clipPath>
</defs>
</svg>
