<svg width="23" height="20" fill="none" xmlns="http://www.w3.org/2000/svg"><path d="M20.822 1.857A6.2 6.2 0 0 0 16.39.015a6.222 6.222 0 0 0-4.44 1.847l-.617.623-.63-.633A6.232 6.232 0 0 0 6.264 0a6.214 6.214 0 0 0-4.43 1.842A6.255 6.255 0 0 0 0 6.298a6.27 6.27 0 0 0 1.844 4.453l9.019 9.057a.65.65 0 0 0 .913.006l9.036-9.045a6.266 6.266 0 0 0 1.84-4.456 6.236 6.236 0 0 0-1.83-4.456zM19.9 9.85l-8.582 8.584-8.561-8.6a4.979 4.979 0 0 1-1.46-3.535c0-1.336.514-2.588 1.455-3.53a4.926 4.926 0 0 1 3.51-1.46c1.33 0 2.582.52 3.523 1.464l1.087 1.091a.645.645 0 0 0 .916 0l1.076-1.08a4.945 4.945 0 0 1 3.52-1.467 4.978 4.978 0 0 1 4.971 4.997A4.964 4.964 0 0 1 19.9 9.85z" fill="#333"/></svg>