<svg width="64" height="64" viewBox="0 0 64 64" fill="none" xmlns="http://www.w3.org/2000/svg">
<path d="M59.7 15.9C62.6 20.8 64 26.2 64 32C64 37.8 62.6 43.2 59.7 48.1C56.8 53 53 56.9 48.1 59.7C43.2 62.6 37.8 64 32 64C26.2 64 20.8 62.6 15.9 59.7C11 56.8 7.1 53 4.3 48.1C1.4 43.2 0 37.8 0 32C0 26.2 1.4 20.8 4.3 15.9C7.2 11 11 7.1 15.9 4.3C20.8 1.4 26.2 0 32 0C37.8 0 43.2 1.4 48.1 4.3C53 7.2 56.9 11 59.7 15.9ZM42.7 52V45.3C42.7 44.9 42.6 44.6 42.3 44.3C42 44 41.7 43.9 41.3 43.9H37.3V22.7C37.3 22.3 37.2 22 36.9 21.7C36.7 21.5 36.3 21.3 35.9 21.3H22.6C22.2 21.3 21.9 21.4 21.6 21.7C21.4 22 21.2 22.3 21.2 22.7V29.4C21.2 29.8 21.3 30.1 21.6 30.4C21.9 30.6 22.2 30.8 22.6 30.8H26.6V44H22.6C22.2 44 21.9 44.1 21.6 44.4C21.4 44.6 21.2 45 21.2 45.4V52.1C21.2 52.5 21.3 52.8 21.6 53.1C21.9 53.4 22.2 53.5 22.6 53.5H41.3C41.7 53.5 42 53.4 42.3 53.1C42.5 52.7 42.7 52.4 42.7 52ZM37.3 14.7V8C37.3 7.6 37.2 7.3 36.9 7C36.7 6.8 36.3 6.6 35.9 6.6H27.9C27.5 6.6 27.2 6.7 26.9 7C26.7 7.2 26.5 7.6 26.5 8V14.7C26.5 15.1 26.6 15.4 26.9 15.7C27.2 15.9 27.5 16.1 27.9 16.1H35.9C36.3 16.1 36.6 16 36.9 15.7C37.2 15.4 37.3 15.1 37.3 14.7Z" fill="#4F4F4F"/>
</svg>
