<svg version="1.1" id="Layer_1" xmlns="http://www.w3.org/2000/svg" x="0" y="0" viewBox="0 0 15 15" xml:space="preserve"><style>.st0{fill:#999}</style><path class="st0" d="M8.9 3.9c-.2-.2-.4-.3-.6-.3-.3 0-.4.1-.6.3-.2.1-.2.3-.2.5s.1.4.2.6c.2.2.3.2.6.2h.3c.1 0 .2-.1.3-.2 0-.1.1-.2.2-.3v-.3c0-.2-.1-.4-.2-.5zM7.5 10l1.2-3.9h-.3l-2 .3v.2h.2c.1 0 .2 0 .3.1.1.1.1.2.1.3v.3c0 .1 0 .2-.1.2L6 10.2v.5c0 .2.1.4.2.5.2.2.3.2.6.2.6 0 1.2-.5 1.8-1.5l-.3-.1c-.2.4-.4.6-.6.7-.1.1-.1.1-.2.1 0 0-.1 0-.1-.1l-.1-.1v-.1c.1.1.1-.1.2-.3z"/><path class="st0" d="M12.8 2.2C11.5.9 9.6 0 7.5 0c-2 0-3.9.9-5.3 2.2C.9 3.6 0 5.5 0 7.5c0 2.1.9 4 2.2 5.3C3.6 14.2 5.5 15 7.5 15c2.1 0 4-.8 5.3-2.2 1.4-1.4 2.2-3.2 2.2-5.3 0-2-.8-3.9-2.2-5.3zM7.5.9c1.8 0 3.5.7 4.7 1.9 1.2 1.2 2 2.9 2 4.7s-.7 3.5-2 4.7c-1.2 1.2-2.9 2-4.7 2s-3.5-.7-4.7-2C1.6 11 .9 9.3.9 7.5S1.6 4 2.8 2.8C4 1.6 5.7.9 7.5.9z"/></svg>