<svg width="64" height="64" viewBox="0 0 64 64" fill="none" xmlns="http://www.w3.org/2000/svg">
<g clip-path="url(#clip0)">
<rect width="64" height="64" fill="white"/>
<path d="M61.2 29.1677H27.5C26.1 22.1677 19.6 17.3677 12.5 18.0677C5.4 18.7677 0 24.7677 0 31.8677C0 38.9677 5.4 44.9677 12.5 45.6677C19.6 46.3677 26.1 41.5677 27.5 34.5677H44.5V40.1677C44.5 41.6677 45.7001 42.9677 47.3 42.9677C48.8 42.9677 50.1 41.7677 50.1 40.1677V34.5677H52.9V40.1677C52.9 41.6677 54.1 42.9677 55.7 42.9677C57.2 42.9677 58.5 41.7677 58.5 40.1677V34.5677H61.3C62.8 34.5677 64.1 33.3677 64.1 31.7677C64.1 30.1677 62.7999 29.1677 61.2 29.1677ZM13.9 40.2677C9.30002 40.2677 5.59998 36.5677 5.59998 31.9677C5.59998 27.3677 9.30002 23.6677 13.9 23.6677C18.5 23.6677 22.2 27.3677 22.2 31.9677C22.2 34.1677 21.3 36.2677 19.8 37.8677C18.2 39.4677 16.1 40.2677 13.9 40.2677Z" fill="#4F4F4F"/>
</g>
<defs>
<clipPath id="clip0">
<rect width="64" height="64" fill="white"/>
</clipPath>
</defs>
</svg>
