<svg width="64" height="64" viewBox="0 0 64 64" fill="none" xmlns="http://www.w3.org/2000/svg">
<rect width="64" height="64" fill="white"/>
<path d="M15.7031 6.6C20.1031 2.2 25.5031 0 31.8031 0C38.1031 0 43.5031 2.2 47.9031 6.6C52.3031 11 54.6031 16.3 54.6031 22.5C54.6031 27.5 52.7031 33.4 48.9031 40.4C45.1031 47.4 41.3031 53 37.5031 57.4L31.8031 64C31.1031 63.3 30.3031 62.4 29.3031 61.2C28.3031 60 26.5031 57.7 23.9031 54.3C21.3031 50.9 19.0031 47.5 17.0031 44.3C15.0031 41.1 13.2031 37.4 11.5031 33.3C9.80313 29.2 9.00313 25.6 9.00313 22.4C8.90313 16.2 11.2031 11 15.7031 6.6ZM26.0031 28.1C27.6031 29.7 29.5031 30.5 31.8031 30.5C34.1031 30.5 36.0031 29.7 37.6031 28.1C39.2031 26.5 40.0031 24.6 40.0031 22.5C40.0031 20.4 39.2031 18.4 37.6031 16.9C36.0031 15.3 34.1031 14.5 31.8031 14.5C29.5031 14.5 27.6031 15.3 26.0031 16.9C24.4031 18.5 23.6031 20.4 23.6031 22.5C23.6031 24.6 24.4031 26.5 26.0031 28.1Z" fill="#4F4F4F"/>
</svg>
