<svg id="Layer_1" data-name="Layer 1" xmlns="http://www.w3.org/2000/svg" viewBox="0 0 64 64"><title>ok</title><path d="M50.68,34.36a5.45,5.45,0,0,1,.54,1.77,3.53,3.53,0,0,1-.17,1.44A4,4,0,0,1,50.11,39a13.43,13.43,0,0,1-1.52,1.32c-.54.39-1.27.88-2.2,1.48q-4.11,2.61-11.25,3.36l2.61,2.57,9.54,9.53a3.69,3.69,0,0,1,1.07,2.65,3.55,3.55,0,0,1-1.07,2.6l-.43.47a3.8,3.8,0,0,1-5.29,0Q39.18,60.5,32,53.36L22.5,62.93A3.69,3.69,0,0,1,19.86,64a3.57,3.57,0,0,1-2.61-1.07l-.43-.47a3.46,3.46,0,0,1-1.1-2.6,3.6,3.6,0,0,1,1.1-2.65l9.54-9.53,2.57-2.57q-7.24-.75-11.32-3.36c-.93-.6-1.67-1.09-2.2-1.48A12.61,12.61,0,0,1,13.89,39a4.08,4.08,0,0,1-1-1.38,3.37,3.37,0,0,1-.15-1.44,5,5,0,0,1,.53-1.77,3.76,3.76,0,0,1,1-1.25,4.15,4.15,0,0,1,1.5-.79,3.63,3.63,0,0,1,2,.07,6.8,6.8,0,0,1,2.32,1.25c.12.1.3.23.54.4s.75.45,1.54.87A18.17,18.17,0,0,0,24.68,36a22.51,22.51,0,0,0,3.29.86,21.44,21.44,0,0,0,10.25-.52,17.39,17.39,0,0,0,4.28-1.8l1.36-.9a6.71,6.71,0,0,1,2.32-1.25,3.63,3.63,0,0,1,2-.07,4.15,4.15,0,0,1,1.5.79A3.76,3.76,0,0,1,50.68,34.36Zm-7.21-6.72A15.62,15.62,0,0,1,32,32.39a15.58,15.58,0,0,1-11.46-4.75,15.55,15.55,0,0,1-4.75-11.43A15.61,15.61,0,0,1,20.54,4.75,15.58,15.58,0,0,1,32,0,15.62,15.62,0,0,1,43.47,4.75a15.65,15.65,0,0,1,4.75,11.46A15.59,15.59,0,0,1,43.47,27.64ZM37.62,10.55a7.93,7.93,0,0,0-11.25,0A7.71,7.71,0,0,0,24,16.21a7.67,7.67,0,0,0,2.33,5.63,7.93,7.93,0,0,0,11.25,0A7.69,7.69,0,0,0,40,16.21,7.72,7.72,0,0,0,37.62,10.55Z"/></svg>