<svg width="64" height="64" viewBox="0 0 64 64" fill="none" xmlns="http://www.w3.org/2000/svg">
<rect width="64" height="64" fill="white"/>
<path d="M13.6 13.6C18.7 8.50001 24.8 6 32 6C39.2 6 45.3 8.50001 50.4 13.6C55.5 18.7 58 24.8 58 32C58 39.2 55.5 45.3 50.4 50.4C45.3 55.5 39.2 58 32 58C24.8 58 18.7 55.5 13.6 50.4C8.50001 45.3 6 39.2 6 32C6 24.8 8.50001 18.7 13.6 13.6ZM17.3 46.7C21.3 50.7 26.2 52.8 32 52.8C37.8 52.8 42.6 50.8 46.7 46.7C50.7 42.7 52.8 37.8 52.8 32C52.8 26.2 50.8 21.4 46.7 17.3C42.7 13.3 37.8 11.2 32 11.2C26.2 11.2 21.4 13.2 17.3 17.3C13.2 21.4 11.2 26.2 11.2 32C11.2 37.8 13.3 42.6 17.3 46.7Z" fill="#4F4F4F"/>
</svg>
