<svg id="Layer_1" data-name="Layer 1" xmlns="http://www.w3.org/2000/svg" viewBox="0 0 64 64"><title>radio-checked</title><path d="M13.63,13.63A25,25,0,0,1,32,6a25,25,0,0,1,18.38,7.63A25,25,0,0,1,58,32a25.07,25.07,0,0,1-7.62,18.38A25.07,25.07,0,0,1,32,58a25,25,0,0,1-18.37-7.62A25,25,0,0,1,6,32,25,25,0,0,1,13.63,13.63Zm3.68,33.06A20,20,0,0,0,32,52.75a20,20,0,0,0,14.69-6.06A20,20,0,0,0,52.75,32a20,20,0,0,0-6.06-14.69A20,20,0,0,0,32,11.25a20,20,0,0,0-14.69,6.06A20,20,0,0,0,11.25,32,20,20,0,0,0,17.31,46.69Zm5.5-23.88A12.53,12.53,0,0,1,32,19,13,13,0,0,1,45,32,13,13,0,0,1,32,45,13,13,0,0,1,19,32,12.53,12.53,0,0,1,22.81,22.81Z"/></svg>