<svg width="18" height="18" viewBox="0 0 18 18" fill="none" xmlns="http://www.w3.org/2000/svg">
<path fill-rule="evenodd" clip-rule="evenodd" d="M7.5 14C3.91015 14 1 11.0899 1 7.5C1 3.91015 3.91015 1 7.5 1C11.0899 1 14 3.91015 14 7.5C14 9.11513 13.4109 10.5927 12.4359 11.7295L16.9988 16.2874L16.2921 16.9949L11.7287 12.4365C10.592 13.4112 9.11476 14 7.5 14ZM7.5 13C10.5376 13 13 10.5376 13 7.5C13 4.46243 10.5376 2 7.5 2C4.46243 2 2 4.46243 2 7.5C2 10.5376 4.46243 13 7.5 13Z" fill="#232122"/>
<path d="M12.4359 11.7295L12.0564 11.404L11.7547 11.7557L12.0825 12.0832L12.4359 11.7295ZM16.9988 16.2874L17.3526 16.6407L17.7059 16.287L17.3522 15.9336L16.9988 16.2874ZM16.2921 16.9949L15.9388 17.3486L16.2925 17.702L16.6459 17.3482L16.2921 16.9949ZM11.7287 12.4365L12.0821 12.0828L11.7546 11.7557L11.4033 12.057L11.7287 12.4365ZM0.5 7.5C0.5 11.366 3.63401 14.5 7.5 14.5V13.5C4.18629 13.5 1.5 10.8137 1.5 7.5H0.5ZM7.5 0.5C3.63401 0.5 0.5 3.63401 0.5 7.5H1.5C1.5 4.18629 4.18629 1.5 7.5 1.5V0.5ZM14.5 7.5C14.5 3.63401 11.366 0.5 7.5 0.5V1.5C10.8137 1.5 13.5 4.18629 13.5 7.5H14.5ZM12.8154 12.055C13.8652 10.831 14.5 9.23899 14.5 7.5H13.5C13.5 8.99128 12.9566 10.3544 12.0564 11.404L12.8154 12.055ZM12.0825 12.0832L16.6455 16.6411L17.3522 15.9336L12.7892 11.3757L12.0825 12.0832ZM16.6451 15.934L15.9384 16.6415L16.6459 17.3482L17.3526 16.6407L16.6451 15.934ZM16.6455 16.6411L12.0821 12.0828L11.3754 12.7903L15.9388 17.3486L16.6455 16.6411ZM7.5 14.5C9.23859 14.5 10.8303 13.8655 12.0542 12.8161L11.4033 12.057C10.3537 12.9568 8.99094 13.5 7.5 13.5V14.5ZM12.5 7.5C12.5 10.2614 10.2614 12.5 7.5 12.5V13.5C10.8137 13.5 13.5 10.8137 13.5 7.5H12.5ZM7.5 2.5C10.2614 2.5 12.5 4.73858 12.5 7.5H13.5C13.5 4.18629 10.8137 1.5 7.5 1.5V2.5ZM2.5 7.5C2.5 4.73858 4.73858 2.5 7.5 2.5V1.5C4.18629 1.5 1.5 4.18629 1.5 7.5H2.5ZM7.5 12.5C4.73858 12.5 2.5 10.2614 2.5 7.5H1.5C1.5 10.8137 4.18629 13.5 7.5 13.5V12.5Z" fill="#232122"/>
</svg>
