<svg width="64" height="64" viewBox="0 0 64 64" fill="none" xmlns="http://www.w3.org/2000/svg">
<rect width="64" height="64" fill="white"/>
<path d="M64 48C64 52.4 62.4 56.2 59.3 59.3C56.2 62.4 52.4 64 48 64C44.4 64 41.1 62.9 38.3 60.7C36.2 61.1 34.1 61.4 32.1 61.4C28.1 61.4 24.3 60.6 20.7 59.1C17.1 57.6 13.9 55.5 11.3 52.9C8.7 50.3 6.5 47 5 43.4C3.5 39.8 2.7 36 2.7 32C2.7 30 2.9 27.9 3.4 25.7C1.1 22.9 0 19.6 0 16C0 11.6 1.6 7.8 4.7 4.7C7.8 1.6 11.6 0 16 0C19.6 0 22.9 1.1 25.7 3.3C27.8 2.9 29.9 2.60001 32 2.60001C36 2.60001 39.8 3.39999 43.4 4.89999C47 6.39999 50.2 8.5 52.8 11.2C55.4 13.8 57.5 17 59 20.6C60.5 24.2 61.3 28 61.3 32C61.3 34 61.1 36.1 60.6 38.2C62.9 41.1 64 44.4 64 48ZM48.9 39C48.9 37.6 48.6 36.3 48.1 35.2C47.6 34.1 46.9 33.1 46.1 32.4C45.3 31.6 44.3 31 43.1 30.4C41.9 29.8 40.7 29.3 39.7 29C38.6 28.7 37.4 28.3 36.1 28L31.8 27C31 26.8 30.4 26.7 30 26.6C29.6 26.5 29.1 26.3 28.5 26.1C27.9 25.9 27.5 25.7 27.3 25.4C27 25.2 26.8 24.9 26.6 24.5C26.4 24.1 26.3 23.7 26.3 23.2C26.3 21.1 28.3 20 32.3 20C33.5 20 34.6 20.2 35.5 20.5C36.4 20.8 37.2 21.2 37.8 21.7C38.4 22.2 38.9 22.6 39.4 23.1C39.9 23.6 40.5 24 41.1 24.3C41.7 24.6 42.4 24.8 43.1 24.8C44.4 24.8 45.5 24.4 46.2 23.5C47 22.6 47.4 21.5 47.4 20.3C47.4 18.8 46.6 17.4 45.1 16.1C43.5 14.9 41.6 13.9 39.2 13.3C36.8 12.7 34.3 12.3 31.6 12.3C29.7 12.3 27.9 12.5 26.1 12.9C24.3 13.3 22.7 14 21.1 14.9C19.6 15.8 18.3 17 17.4 18.5C16.5 20 16 21.8 16 23.9C16 25.6 16.3 27.1 16.8 28.3C17.3 29.6 18.1 30.6 19.1 31.4C20.1 32.2 21.2 32.9 22.4 33.4C23.6 33.9 25 34.4 26.7 34.8L32.8 36.3C35.3 36.9 36.9 37.4 37.5 37.8C38.4 38.4 38.8 39.2 38.8 40.3C38.8 41.4 38.2 42.3 37.1 43C36 43.7 34.5 44.1 32.7 44.1C31.3 44.1 30 43.9 28.9 43.4C27.8 43 26.9 42.4 26.2 41.8C25.5 41.2 24.9 40.5 24.3 39.9C23.7 39.3 23.1 38.7 22.4 38.3C21.7 37.9 21 37.6 20.2 37.6C18.8 37.6 17.8 38 17.1 38.9C16.4 39.7 16 40.8 16 42C16 44.6 17.7 46.7 21.1 48.6C24.5 50.4 28.5 51.3 33.2 51.3C35.2 51.3 37.2 51 39 50.5C40.9 50 42.6 49.2 44.1 48.3C45.6 47.3 46.9 46 47.8 44.4C48.4 42.8 48.9 41 48.9 39Z" fill="#4F4F4F"/>
</svg>
