<svg width="64" height="64" viewBox="0 0 64 64" fill="none" xmlns="http://www.w3.org/2000/svg">
<rect width="64" height="64" fill="white"/>
<path d="M54.1084 55.2726C53.7084 56.8726 53.1083 57.8726 52.2083 58.3726C51.3083 58.7726 50.2084 58.6726 48.8084 57.8726L34.1084 46.9726L27.0084 53.8726C26.5084 54.3726 26.1083 54.6726 25.9083 54.8726C25.4083 55.1726 24.8083 55.2726 24.0084 55.2726L25.1084 40.2726L52.4083 15.5726C52.8083 15.2726 52.9084 15.0726 52.8084 14.7726C52.7084 14.5726 52.4083 14.4726 51.9083 14.4726C51.4083 14.4726 51.0084 14.6726 50.5084 14.9726L16.8084 36.2726L2.30835 31.7726C0.708354 31.2726 -0.0916495 30.5726 0.00835053 29.6726C0.108351 28.6726 1.10835 27.8726 3.00835 27.0726L59.7083 5.2726C61.1083 4.7726 62.3084 4.9726 63.1084 5.7726C63.9084 6.5726 64.2084 7.9726 63.8084 9.9726L54.1084 55.2726Z" fill="#4F4F4F"/>
</svg>
