<?xml version="1.0" encoding="utf-8"?>
<!-- Generator: Adobe Illustrator 23.0.0, SVG Export Plug-In . SVG Version: 6.00 Build 0)  -->
<svg version="1.1" id="Layer_1" xmlns="http://www.w3.org/2000/svg" xmlns:xlink="http://www.w3.org/1999/xlink" x="0px" y="0px"
	 viewBox="0 0 48 48" style="enable-background:new 0 0 48 48;" xml:space="preserve">
<style type="text/css">
	.st0{fill:none;}
	.st1{fill:#1FA4DC;}
	.st2{fill:url(#SVGID_1_);}
</style>
<path class="st0" d="M46,24c0,12.2-9.8,22-22,22S2,36.2,2,24h22V2C36.2,2,46,11.8,46,24z"/>
<path class="st1" d="M24,46c12.2,0,22-9.8,22-22S36.2,2,24,2V0c13.3,0,24,10.7,24,24S37.3,48,24,48S0,37.3,0,24h2
	C2,36.2,11.8,46,24,46z"/>
<linearGradient id="SVGID_1_" gradientUnits="userSpaceOnUse" x1="11.4559" y1="33.3408" x2="9.4559" y2="22.9808" gradientTransform="matrix(1 0 0 -1 0 48)">
	<stop  offset="0" style="stop-color:#1FA4DC;stop-opacity:0"/>
	<stop  offset="1" style="stop-color:#1FA4DC"/>
</linearGradient>
<path class="st2" d="M24,0v2C11.8,2,2,11.8,2,24H0C0,10.7,10.7,0,24,0z"/>
</svg>
