<svg width="64" height="64" viewBox="0 0 64 64" fill="none" xmlns="http://www.w3.org/2000/svg">
<g clip-path="url(#clip0)">
<path d="M42.7326 29.3429L40.4363 31.475L43.3372 32.66C54.2888 37.1336 62 47.8909 62 60.4444C62 60.9663 61.9867 61.485 61.9604 62H2.03959C2.01331 61.485 2 60.9663 2 60.4444C2 47.8909 9.71117 37.1336 20.6628 32.66L23.5637 31.475L21.2674 29.3429C18.1614 26.4589 16.2222 22.3463 16.2222 17.7778C16.2222 9.06395 23.2862 2 32 2C40.7138 2 47.7778 9.06395 47.7778 17.7778C47.7778 22.3463 45.8386 26.4589 42.7326 29.3429Z" stroke="#4F4F4F" stroke-width="4"/>
</g>
<defs>
<clipPath id="clip0">
<rect width="64" height="64" fill="white"/>
</clipPath>
</defs>
</svg>
