<svg width="64" height="64" viewBox="0 0 64 64" fill="none" xmlns="http://www.w3.org/2000/svg">
<rect width="64" height="64" fill="white"/>
<path d="M46.8 38.6L46.4 38.4C43.5 36.8 41.6 35.9 40.9 35.6C40.2 35.3 39.6 35.5 39.2 36.2C38.8 36.9 38 37.9 36.8 39.2C36.4 39.7 35.8 39.8 35 39.4C32.3 38.1 30.3 36.9 29 35.8C27.3 34.3 25.7 32.4 24.2 30C24.1 29.6 24 29.3 24.1 29.1C24.2 28.9 24.4 28.6 24.8 28.2C25.6 27.4 26.2 26.5 26.6 25.6C26.9 25.2 26.9 24.7 26.6 24.2L24 18.4C23.7 17.5 23.2 17 22.4 17H20.8C20 17 19.3 17.3 18.6 18V18.2C16.7 20.1 15.8 22.3 15.8 24.8C15.8 27.3 16.9 30 19.2 32.8V33C23.2 38.7 27.7 42.7 32.6 44.8C35 45.9 36.9 46.5 38.2 46.8C39.5 47.1 40.9 47.1 42.2 46.8C43 46.7 44 46.2 45.2 45.5C46.4 44.8 47.2 43.9 47.6 43C47.9 42.2 48 41.4 48.1 40.7C48.2 40 48.1 39.5 48 39.3C47.9 39.1 47.5 38.9 46.8 38.6Z" fill="#4F4F4F"/>
<path d="M61.5 19.6C59.8 15.7 57.5 12.3 54.5 9.3C51.5 6.3 48.1 4 44.2 2.4C40.3 0.8 36.3 0 32 0C26.3 0 21 1.4 16.1 4.3C11.2 7.2 7.4 11 4.5 15.9C1.6 20.8 0.199997 26 0.199997 31.7C0.199997 37.4 1.70001 42.7 4.60001 47.6L0 64L16.8 59.6C21.5 62.1 26.5 63.4 32 63.4C37.7 63.4 43.1 62 48 59.1C52.9 56.2 56.8 52.4 59.7 47.6C62.6 42.8 64 37.5 64 31.8C64 27.5 63.2 23.5 61.5 19.6ZM55 44.9C52.6 49 49.4 52.2 45.3 54.5C41.2 56.8 36.8 58 32 58C27.2 58.1 22.7 56.9 18.6 54.4L17.6 53.8L7.60001 56.4L10.2 46.8L9.60001 45.8C6.90001 41.5 5.60001 36.9 5.60001 31.8C5.60001 27 6.8 22.6 9.2 18.5C11.6 14.4 14.8 11.2 18.8 8.9C22.8 6.6 27.2 5.4 32 5.4C35.5 5.4 38.8 6.1 42 7.4C45.2 8.7 48.1 10.6 50.6 13.1C53.1 15.6 55.1 18.4 56.5 21.7C57.9 25 58.6 28.3 58.6 31.8C58.6 36.5 57.4 40.8 55 44.9Z" fill="#4F4F4F"/>
</svg>
