<svg id="Layer_1" data-name="Layer 1" xmlns="http://www.w3.org/2000/svg" viewBox="0 0 64 64"><title>cart</title><path d="M60,28a4,4,0,1,1,0,8h-.47L55.94,56.68a3.91,3.91,0,0,1-1.38,2.38A3.86,3.86,0,0,1,52,60H12a3.86,3.86,0,0,1-2.56-.94,3.91,3.91,0,0,1-1.38-2.38L4.47,36H4a3.87,3.87,0,0,1-2.83-1.17,4,4,0,0,1,0-5.66A3.87,3.87,0,0,1,4,28ZM14.87,13.12,12,26H7.84L11,12.22a7.62,7.62,0,0,1,2.78-4.49,7.87,7.87,0,0,1,5-1.73H24a2,2,0,0,1,2-2H38a2,2,0,0,1,2,2h5.22a7.87,7.87,0,0,1,5,1.73A7.62,7.62,0,0,1,53,12.22L56.16,26H52l-2.9-12.88a4.22,4.22,0,0,0-1.43-2.25A3.83,3.83,0,0,0,45.22,10H40a2,2,0,0,1-2,2H26a2,2,0,0,1-2-2H18.78a3.81,3.81,0,0,0-2.48.87A4.16,4.16,0,0,0,14.87,13.12ZM15.16,53A2,2,0,0,0,17,50.84l-1-13A2,2,0,0,0,13.84,36,2,2,0,0,0,12,38.15l1,13a1.93,1.93,0,0,0,.64,1.31A2,2,0,0,0,15,53ZM28,51V38a2,2,0,0,0-.59-1.41,2,2,0,0,0-2.82,0A2,2,0,0,0,24,38V51a2,2,0,0,0,4,0Zm12,0V38a2,2,0,0,0-.59-1.41,2,2,0,0,0-2.82,0A2,2,0,0,0,36,38V51a2,2,0,0,0,4,0Zm11,.16,1-13A2,2,0,0,0,50.16,36,2,2,0,0,0,48,37.84l-1,13A2,2,0,0,0,48.84,53H49a2,2,0,0,0,1.36-.53A1.93,1.93,0,0,0,51,51.16Z"/></svg>