<svg width="42" height="42" viewBox="0 0 42 42" fill="none" xmlns="http://www.w3.org/2000/svg">
<path d="M35.4375 30.0234C34.531 30.0234 33.7969 30.7576 33.7969 31.6641C33.7969 32.5706 34.531 33.3047 35.4375 33.3047C36.344 33.3047 37.0781 32.5706 37.0781 31.6641C37.0781 30.7576 36.344 30.0234 35.4375 30.0234Z" fill="#1FA4DC"/>
<path d="M34.6172 23.4609C34.1644 23.4609 33.7969 23.8285 33.7969 24.2812C33.7969 24.734 34.1644 25.1016 34.6172 25.1016C35.07 25.1016 35.4375 24.734 35.4375 24.2812C35.4375 23.8285 35.07 23.4609 34.6172 23.4609Z" fill="#1FA4DC"/>
<path d="M10.3359 30.0234C9.42943 30.0234 8.69531 30.7576 8.69531 31.6641C8.69531 32.5706 9.42943 33.3047 10.3359 33.3047C11.2424 33.3047 11.9766 32.5706 11.9766 31.6641C11.9766 30.7576 11.2424 30.0234 10.3359 30.0234Z" fill="#1FA4DC"/>
<path d="M38.5521 20.2322L37.1377 14.5746C37.6405 14.0937 37.8984 13.4557 37.8984 12.7969C37.8984 11.4398 36.7945 10.3359 35.4375 10.3359H28.875V7.875C28.875 6.51796 27.7711 5.41406 26.4141 5.41406H2.46094C1.1039 5.41406 0 6.51796 0 7.875V29.2031C0 30.5602 1.1039 31.6641 2.46094 31.6641H5.41406C5.41406 34.3781 7.62186 36.5859 10.3359 36.5859C13.05 36.5859 15.2578 34.3781 15.2578 31.6641H30.5156C30.5156 34.3781 32.7234 36.5859 35.4375 36.5859C38.1516 36.5859 40.3594 34.3781 40.3594 31.6641C40.3594 31.6173 40.3571 31.5708 40.3559 31.524C41.3123 31.1866 42 30.2737 42 29.2031V24.2812C42 22.242 40.5042 20.5463 38.5521 20.2322ZM35.6173 15.2578L36.8477 20.1797H30.035L31.9159 18.2987C32.2364 17.9783 32.2364 17.4592 31.9159 17.1388C31.5955 16.8183 31.0764 16.8183 30.756 17.1388L28.875 19.0194V15.2578H35.6173ZM36.2578 12.7969C36.2578 13.2496 35.8903 13.6172 35.4375 13.6172H28.875V11.9766H35.4375C35.89 11.9766 36.2578 12.3444 36.2578 12.7969ZM10.3359 34.9453C8.52676 34.9453 7.05469 33.4732 7.05469 31.6641C7.05469 29.8302 8.55336 28.3828 10.3359 28.3828C12.1227 28.3828 13.6172 29.8341 13.6172 31.6641C13.6172 33.4732 12.1451 34.9453 10.3359 34.9453ZM14.9762 30.0234C14.2911 28.0877 12.4367 26.7422 10.3359 26.7422C8.23421 26.7422 6.37921 28.0887 5.6954 30.0234H2.46094C2.00848 30.0234 1.64062 29.6556 1.64062 29.2031V7.875C1.64062 7.42255 2.00848 7.05469 2.46094 7.05469H26.4141C26.8665 7.05469 27.2344 7.42255 27.2344 7.875V30.0234H14.9762ZM35.4375 34.9453C33.6283 34.9453 32.1562 33.4732 32.1562 31.6641C32.1562 29.8302 33.6549 28.3828 35.4375 28.3828C37.2242 28.3828 38.7188 29.8341 38.7188 31.6641C38.7188 33.4732 37.2467 34.9453 35.4375 34.9453ZM40.0194 29.8667C39.2917 28.0153 37.4812 26.7422 35.4375 26.7422C33.3358 26.7422 31.4808 28.0887 30.797 30.0234H28.875V21.8203H37.8984C38.9677 21.8203 39.8797 22.506 40.2184 23.4609H37.8984C37.4453 23.4609 37.0781 23.8282 37.0781 24.2812C37.0781 24.7343 37.4453 25.1016 37.8984 25.1016H40.3594V29.2031C40.3594 29.4758 40.2248 29.7174 40.0194 29.8667Z" fill="#1FA4DC"/>
<path d="M14.4375 10.3359C10.3667 10.3359 7.05469 13.6479 7.05469 17.7188C7.05469 21.7896 10.3667 25.1016 14.4375 25.1016C18.5083 25.1016 21.8203 21.7896 21.8203 17.7188C21.8203 13.6479 18.5083 10.3359 14.4375 10.3359ZM14.4375 23.4609C11.2713 23.4609 8.69531 20.885 8.69531 17.7188C8.69531 14.5525 11.2713 11.9766 14.4375 11.9766C17.6037 11.9766 20.1797 14.5525 20.1797 17.7188C20.1797 20.885 17.6037 23.4609 14.4375 23.4609Z" fill="#1FA4DC"/>
<path d="M17.7188 16.8984H15.2578V14.4375C15.2578 13.9844 14.8906 13.6172 14.4375 13.6172C13.9844 13.6172 13.6172 13.9844 13.6172 14.4375V17.7188C13.6172 18.1718 13.9844 18.5391 14.4375 18.5391H17.7188C18.1718 18.5391 18.5391 18.1718 18.5391 17.7188C18.5391 17.2657 18.1718 16.8984 17.7188 16.8984Z" fill="#1FA4DC"/>
</svg>
