<svg id="Layer_1" data-name="Layer 1" xmlns="http://www.w3.org/2000/svg" viewBox="0 0 30 30"><defs><style>.cls-1{fill:#333}</style></defs><path class="cls-1" d="M12 13.16v-2.92A1.17 1.17 0 0 0 10.62 9c-.84 0-1.35.41-1.35 1.26v2.92c0 .85.51 1.26 1.35 1.26A1.17 1.17 0 0 0 12 13.16zm7.07 2.58A1.17 1.17 0 0 0 17.73 17v2.92a1.17 1.17 0 0 0 1.34 1.26 1.17 1.17 0 0 0 1.34-1.26V17a1.17 1.17 0 0 0-1.34-1.26z"/><path class="cls-1" d="M15 0a15 15 0 1 0 15 15A15 15 0 0 0 15 0zM8.11 13.16v-2.92C8.11 8.57 9.2 8 10.62 8s2.5.62 2.5 2.29v2.92c0 1.67-1.11 2.29-2.5 2.29s-2.51-.67-2.51-2.34zm2 8.32a.56.56 0 0 1-.6.18.61.61 0 0 1-.47-.72.64.64 0 0 1 .12-.23L19.68 8.43a.52.52 0 0 1 .54-.17.67.67 0 0 1 .49.78.72.72 0 0 1-.12.25zm11.43-1.56c0 1.67-1.1 2.29-2.5 2.29s-2.51-.62-2.51-2.29V17c0-1.67 1.09-2.29 2.51-2.29s2.5.62 2.5 2.29z"/></svg>