<svg width="15" height="20" fill="none" xmlns="http://www.w3.org/2000/svg"><path d="M2.87 12.734h8.424a.58.58 0 0 1 .575.586.58.58 0 0 1-.575.586H2.871a.58.58 0 0 1-.574-.586.58.58 0 0 1 .574-.586zm3.064-2.929H2.871a.58.58 0 0 0-.574.586.593.593 0 0 0 .35.54c.07.03.145.046.224.046h3.063a.58.58 0 0 0 .574-.586.58.58 0 0 0-.574-.586zm2.298 5.859h3.063a.58.58 0 0 1 .575.586.58.58 0 0 1-.575.586H8.232a.58.58 0 0 1-.574-.586.58.58 0 0 1 .574-.586z" fill="#333"/><path fill-rule="evenodd" clip-rule="evenodd" d="M3.455 0h10.137a.57.57 0 0 1 .466.243.59.59 0 0 1 .109.343v18.828a.59.59 0 0 1-.132.373.569.569 0 0 1-.443.213H.574a.57.57 0 0 1-.46-.235.591.591 0 0 1-.114-.35V3.524c0-.155.06-.305.168-.414L3.05.17A.568.568 0 0 1 3.455 0zM1.15 18.828h11.87V1.172H3.692L1.15 3.768v15.06z" fill="#333"/></svg>