<svg width="15" height="9" fill="none" xmlns="http://www.w3.org/2000/svg"><path d="M7.5.9c1.917 0 3.54.865 4.563 1.591 1.213.86 1.837 1.692 1.999 2.009-.162.317-.786 1.15-1.999 2.009C11.04 7.235 9.417 8.1 7.5 8.1c-1.917 0-3.54-.865-4.563-1.591-1.213-.86-1.837-1.692-2-2.009.163-.317.787-1.15 2-2.009C3.96 1.765 5.583.9 7.5.9zm0-.9C3.358 0 0 3.6 0 4.5 0 5.4 3.358 9 7.5 9 11.642 9 15 5.4 15 4.5 15 3.6 11.642 0 7.5 0zm0 1.8c-1.506 0-2.727 1.209-2.727 2.7S5.993 7.2 7.5 7.2c1.506 0 2.727-1.209 2.727-2.7S9.007 1.8 7.5 1.8z" fill="#999"/></svg>