<svg width="17" height="18" viewBox="0 0 17 18" fill="none" xmlns="http://www.w3.org/2000/svg">
<path d="M14.5833 0H1.45828C0.654144 0 0 0.654144 0 1.45828V3.06335C0 3.67584 0.238342 4.25171 0.671692 4.68414L5.52826 9.53751C5.72174 9.73083 5.83328 10 5.83328 10.2742V16.875C5.83328 17.1191 5.97504 17.3409 6.19751 17.4425C6.28082 17.4817 6.36993 17.5 6.45828 17.5C6.60507 17.5 6.75003 17.4483 6.86493 17.3491L9.19922 15.3484C9.7084 14.9133 10 14.2783 10 13.6084V10.2916C10 10.0108 10.1158 9.73663 10.3183 9.54163L15.3409 4.69589C15.7858 4.26666 16.0408 3.66501 16.0408 3.04672V1.45828C16.0417 0.654144 15.3876 0 14.5833 0V0Z" fill="#1FA4DC"/>
</svg>
