<svg width="64" height="56" viewBox="0 0 64 56" fill="none" xmlns="http://www.w3.org/2000/svg">
<path fill-rule="evenodd" clip-rule="evenodd" d="M8.66789 28.2424L31.9308 50.4736L55.068 28.4709L55.1481 28.4024C58.1156 25.8643 60 22.0751 60 17.8308C60 10.1563 53.8475 4 46.336 4C41.7867 4 37.7492 6.24324 35.2546 9.73469L32 14.29L28.7454 9.73469C26.2511 6.24366 22.2098 4 17.664 4C10.1525 4 4 10.1563 4 17.8308C4 21.9665 5.78495 25.6637 8.61872 28.1984L8.66789 28.2424ZM31.924 56L5.952 31.1798C2.3 27.9132 0 23.1446 0 17.8308C0 7.98269 7.908 0 17.664 0C22.1035 0 26.1625 1.65291 29.2668 4.38415C30.288 5.28266 31.2059 6.29787 32 7.40933C32.7942 6.29776 33.7119 5.28245 34.733 4.38387C37.8362 1.65279 41.8936 0 46.336 0C56.092 0 64 7.98269 64 17.8308C64 23.2859 61.572 28.1716 57.748 31.4422L31.924 56Z" fill="#4F4F4F"/>
</svg>
