<svg id="Layer_1" data-name="Layer 1" xmlns="http://www.w3.org/2000/svg" viewBox="0 0 64 64"><title>info</title><path d="M59.71,15.94A31.28,31.28,0,0,1,64,32a31.28,31.28,0,0,1-4.29,16.06A32,32,0,0,1,48.07,59.71,31.35,31.35,0,0,1,32,64a31.31,31.31,0,0,1-16.06-4.29A31.9,31.9,0,0,1,4.29,48.06,31.38,31.38,0,0,1,0,32,31.38,31.38,0,0,1,4.29,15.94,31.83,31.83,0,0,1,15.94,4.29,31.31,31.31,0,0,1,32,0,31.35,31.35,0,0,1,48.07,4.29,31.88,31.88,0,0,1,59.71,15.94ZM42.67,52V45.33a1.32,1.32,0,0,0-.38-1,1.3,1.3,0,0,0-1-.37h-4V22.67A1.28,1.28,0,0,0,36,21.33H22.67a1.28,1.28,0,0,0-1.33,1.34v6.66a1.28,1.28,0,0,0,1.33,1.34h4V44h-4a1.3,1.3,0,0,0-1,.37,1.31,1.31,0,0,0-.37,1V52a1.28,1.28,0,0,0,1.33,1.33H41.33A1.3,1.3,0,0,0,42.67,52ZM37.33,14.67V8A1.27,1.27,0,0,0,36,6.67H28A1.31,1.31,0,0,0,27,7a1.3,1.3,0,0,0-.37,1v6.67a1.26,1.26,0,0,0,.37.95A1.32,1.32,0,0,0,28,16h8a1.3,1.3,0,0,0,1-.38A1.26,1.26,0,0,0,37.33,14.67Z"/></svg>