<svg width="16" height="16" fill="none" xmlns="http://www.w3.org/2000/svg"><path fill-rule="evenodd" clip-rule="evenodd" d="M13.105 3.708a.949.949 0 1 1-1.898-.002.949.949 0 0 1 1.898.002zm-5.17 6.847a2.635 2.635 0 0 1-2.637-2.632A2.634 2.634 0 0 1 7.934 5.29a2.635 2.635 0 0 1 2.637 2.632 2.635 2.635 0 0 1-2.637 2.632zm0-6.686a4.058 4.058 0 0 0-4.061 4.054 4.058 4.058 0 0 0 4.06 4.054 4.058 4.058 0 0 0 4.061-4.054 4.058 4.058 0 0 0-4.06-4.054zM4.672.075c-.841.039-1.416.172-1.92.367a3.88 3.88 0 0 0-1.4.911c-.44.439-.71.879-.912 1.399-.196.501-.33 1.075-.368 1.916a72.435 72.435 0 0 0 0 6.51c.039.842.172 1.415.368 1.917.202.519.472.96.912 1.398.44.44.88.71 1.4.912.504.194 1.079.328 1.92.367a73.27 73.27 0 0 0 6.522 0c.842-.039 1.416-.172 1.92-.367.52-.202.96-.473 1.4-.912.44-.438.71-.879.912-1.398.196-.502.33-1.075.368-1.917a71.981 71.981 0 0 0 0-6.51c-.038-.84-.172-1.415-.367-1.916a3.862 3.862 0 0 0-.913-1.399 3.876 3.876 0 0 0-1.4-.91c-.504-.196-1.078-.33-1.92-.368-2.162-.1-4.36-.1-6.522 0zm6.457 1.421c.77.035 1.19.163 1.468.272.37.143.633.314.91.591.276.276.448.54.591.907.109.279.237.697.273 1.467a69.992 69.992 0 0 1 0 6.38c-.036.77-.164 1.189-.273 1.466a2.445 2.445 0 0 1-.591.909c-.277.276-.54.448-.91.59-.278.108-.697.237-1.468.273a71.716 71.716 0 0 1-6.392 0c-.77-.036-1.19-.165-1.468-.272a2.451 2.451 0 0 1-.909-.591 2.454 2.454 0 0 1-.592-.909c-.109-.277-.237-.695-.272-1.466a70.883 70.883 0 0 1 0-6.38c.035-.77.163-1.188.272-1.467.144-.368.315-.63.592-.907a2.42 2.42 0 0 1 .909-.59c.279-.11.697-.238 1.468-.273a71.031 71.031 0 0 1 6.392 0z" fill="#333"/></svg>