<svg width="12" height="13" fill="none" xmlns="http://www.w3.org/2000/svg"><path d="M11.796 4.935l-3.771 3.76a.662.662 0 0 1-.74.15c-.285-.121-.428-.331-.428-.63v-1.71c-1 0-1.8.084-2.4.252-.6.167-1.064.436-1.393.806-.757.848-.978 2.532-.664 5.053.021.17-.046.288-.204.352a.335.335 0 0 1-.407-.096C.596 11.284 0 9.845 0 8.556c0-.427.018-.82.054-1.18.035-.36.112-.757.23-1.191.118-.434.277-.823.477-1.164.2-.342.473-.682.82-1.02.346-.339.703-.582 1.22-.844.636-.323 1.049-.406 1.742-.545a11.818 11.818 0 0 1 2.314-.208V.694c0-.299.143-.509.429-.63.278-.12.525-.071.739.15l3.771 3.76a.656.656 0 0 1 .204.48.655.655 0 0 1-.204.481z" fill="#CCC"/></svg>