<svg id="Layer_1" data-name="Layer 1" xmlns="http://www.w3.org/2000/svg" viewBox="0 0 64 64"><title>location</title><path d="M15.86,6.57A22.23,22.23,0,0,1,32,0,22.23,22.23,0,0,1,48.14,6.57a21.38,21.38,0,0,1,6.72,15.86q0,7.42-5.72,17.86A102.92,102.92,0,0,1,37.71,57.43L32,64c-.67-.67-1.5-1.6-2.5-2.79s-2.81-3.5-5.43-6.92-4.93-6.77-6.93-10a74.68,74.68,0,0,1-5.5-11,29.56,29.56,0,0,1-2.5-10.86A21.38,21.38,0,0,1,15.86,6.57Zm10.35,21.5A7.89,7.89,0,0,0,32,30.43a7.89,7.89,0,0,0,5.79-2.36,7.94,7.94,0,0,0,0-11.28A7.85,7.85,0,0,0,32,14.43a7.85,7.85,0,0,0-5.79,2.36,7.94,7.94,0,0,0,0,11.28Z"/></svg>