<svg width="195" height="42" viewBox="0 0 195 42" fill="none" xmlns="http://www.w3.org/2000/svg">
<path d="M5.50173 41.5131C5.1665 41.5131 4.95215 41.3449 4.85583 41.0083L2.32702 32.4195L1.25336 40.8334C1.19575 41.2565 0.967238 41.4694 0.56497 41.4694C0.393109 41.4694 0.260904 41.4152 0.164586 41.3097C0.0314413 41.1557 -0.0214394 40.9627 0.00783366 40.7327L1.24014 31.6818C1.27885 31.4118 1.39689 31.1903 1.59236 31.0173C1.78783 30.8443 2.0239 30.7578 2.30058 30.7578C2.79822 30.7578 3.11739 30.9973 3.26186 31.4803L5.48567 39.1879H5.51306L7.73686 31.4793C7.88039 30.9973 8.19957 30.7578 8.69816 30.7578C8.97483 30.7578 9.21091 30.8443 9.40826 31.0173C9.60373 31.1903 9.71988 31.4118 9.7586 31.6818L10.9928 40.7327C11.0202 40.9732 10.973 41.1661 10.8493 41.3097C10.7529 41.4152 10.6151 41.4694 10.4347 41.4694C10.0324 41.4694 9.80392 41.2565 9.74632 40.8334L8.67266 32.4195L6.14762 41.0083C6.0513 41.3449 5.83506 41.5131 5.50173 41.5131Z" fill="#5D9DD7"/>
<path d="M16.075 39.0725L21.4971 31.2774C21.7351 30.9304 22.0023 30.7574 22.2997 30.7574C22.6926 30.7574 22.888 30.9684 22.888 31.3915V40.8045C22.888 41.2475 22.6793 41.469 22.2648 41.469C21.8295 41.469 21.6113 41.2551 21.6113 40.8292V33.0493L16.0542 41.0384C15.8786 41.3245 15.6462 41.468 15.3573 41.468C14.9852 41.468 14.7983 41.2465 14.7983 40.8036V31.4485C14.7983 30.9865 15.0155 30.7555 15.4508 30.7555C15.6406 30.7555 15.7917 30.823 15.904 30.957C16.0183 31.092 16.074 31.2546 16.074 31.4475V39.0725H16.075Z" fill="#5D9DD7"/>
<path d="M33.8135 34.1349C33.8135 35.0399 33.5019 35.8194 32.8786 36.4744C32.2573 37.1284 31.4934 37.4564 30.5934 37.4564H28.465V40.834C28.465 41.2579 28.2478 41.4699 27.8125 41.4699C27.6425 41.4699 27.4952 41.4015 27.3734 41.2665C27.2497 41.1315 27.1893 40.9784 27.1893 40.8054V31.5359C27.1893 31.0749 27.3998 30.8439 27.8201 30.8439H30.4301C31.4244 30.8439 32.2375 31.1452 32.8683 31.746C33.4981 32.3477 33.8135 33.1434 33.8135 34.1349ZM28.465 31.9837V36.3147H30.313C30.9674 36.3147 31.5028 36.1103 31.9155 35.6987C32.33 35.2871 32.5368 34.7566 32.5368 34.1073C32.5368 33.4657 32.3376 32.9523 31.9372 32.5654C31.5368 32.1785 31.0146 31.9846 30.3715 31.9846H28.465V31.9837Z" fill="#5D9DD7"/>
<path d="M43.535 31.9837H41.5283C41.364 31.9837 41.2243 31.9295 41.1043 31.823C40.9844 31.7156 40.9259 31.5796 40.9259 31.4133C40.9259 31.2479 40.9882 31.111 41.1119 31.0045C41.2356 30.8971 41.3848 30.8439 41.5567 30.8439H46.806C47.2262 30.8439 47.4368 31.034 47.4368 31.4133C47.4368 31.7935 47.2451 31.9837 46.8598 31.9837H44.8126V40.8054C44.8126 40.9975 44.7521 41.1562 44.6284 41.2817C44.5047 41.4062 44.3499 41.469 44.162 41.469C43.9901 41.469 43.8447 41.4005 43.721 41.2665C43.5973 41.1315 43.5368 40.9784 43.5368 40.8054V31.9837H43.535Z" fill="#5D9DD7"/>
<path d="M50.9713 40.6885V31.535C50.9713 31.0739 51.1903 30.8429 51.6313 30.8429H53.9826C54.7182 30.8429 55.3584 31.0682 55.9042 31.5207C56.4774 32.0017 56.7635 32.6035 56.7635 33.326C56.7635 33.864 56.6436 34.3403 56.4057 34.7547C56.1479 35.2072 55.7786 35.5105 55.3008 35.6645V35.693C55.9892 35.828 56.5388 36.1303 56.9496 36.6027C57.3613 37.0743 57.5652 37.656 57.5652 38.349C57.5652 39.2341 57.231 39.9699 56.5615 40.5573C55.9307 41.1068 55.1658 41.3806 54.2668 41.3806H51.6851C51.2092 41.3825 50.9713 41.1515 50.9713 40.6885ZM53.8967 31.9837H52.2479V35.2909H53.7531C54.2546 35.2909 54.6682 35.1378 54.9958 34.8308C55.3244 34.5247 55.4878 34.1216 55.4878 33.6235C55.4878 33.1529 55.3405 32.7632 55.0468 32.4514C54.7522 32.1396 54.3688 31.9837 53.8967 31.9837ZM54.1252 36.3584H52.2479V40.2427H53.9817C54.6361 40.2427 55.1752 40.0887 55.5992 39.7816C56.06 39.4366 56.2905 38.9479 56.2905 38.3158C56.2905 37.6922 56.0855 37.2102 55.6786 36.8689C55.2687 36.5286 54.7503 36.3584 54.1252 36.3584Z" fill="#5D9DD7"/>
<path d="M65.5606 41.469C64.164 41.469 63.0355 40.9195 62.1762 39.8234C61.3717 38.8025 60.9723 37.5705 60.9723 36.1274C60.9723 34.6549 61.3632 33.4134 62.147 32.4029C62.9968 31.3059 64.1347 30.7574 65.5606 30.7574C66.994 30.7574 68.1375 31.3059 68.9893 32.4029C69.7617 33.4039 70.1508 34.6454 70.1508 36.1274C70.1508 37.58 69.7542 38.8129 68.9591 39.8234C68.0979 40.9195 66.9657 41.469 65.5606 41.469ZM65.5606 40.2997C66.3349 40.2997 66.994 40.0487 67.5398 39.5487C68.0469 39.0772 68.401 38.4507 68.6002 37.6712C68.7164 37.2187 68.774 36.694 68.774 36.097C68.774 34.9325 68.5341 33.9809 68.0563 33.2385C67.4916 32.363 66.6597 31.9247 65.5606 31.9247C64.4709 31.9247 63.6389 32.362 63.0648 33.2385C62.587 33.98 62.3472 34.9325 62.3472 36.097C62.3472 37.233 62.5908 38.1865 63.078 38.9555C63.6626 39.852 64.4888 40.2997 65.5606 40.2997Z" fill="#5D9DD7"/>
<path d="M75.2481 39.0725L80.6702 31.2774C80.91 30.9304 81.1773 30.7574 81.4728 30.7574C81.8657 30.7574 82.0611 30.9684 82.0611 31.3915V40.8045C82.0611 41.2475 81.8524 41.469 81.4379 41.469C81.0026 41.469 80.7854 41.2551 80.7854 40.8292V33.0493L75.2301 41.0384C75.0526 41.3245 74.8184 41.468 74.5314 41.468C74.1584 41.468 73.9723 41.2465 73.9723 40.8036V31.4485C73.9723 30.9865 74.1895 30.7555 74.6248 30.7555C74.8146 30.7555 74.9657 30.823 75.0781 30.957C75.1924 31.092 75.2481 31.2546 75.2481 31.4475V39.0725Z" fill="#5D9DD7"/>
<path d="M91.3605 41.5127C91.0253 41.5127 90.8091 41.3444 90.7146 41.0079L88.1858 32.419L87.1122 40.833C87.0546 41.256 86.826 41.469 86.4238 41.469C86.2519 41.469 86.1197 41.4148 86.0234 41.3093C85.8884 41.1553 85.8374 40.9623 85.8666 40.7322L87.0989 31.6814C87.1377 31.4114 87.2538 31.1899 87.4512 31.0169C87.6466 30.8439 87.8827 30.7574 88.1594 30.7574C88.657 30.7574 88.9762 30.9969 89.1207 31.4798L91.3445 39.1875H91.3719L93.5957 31.4789C93.7392 30.9969 94.0603 30.7574 94.556 30.7574C94.8327 30.7574 95.0707 30.8439 95.2661 31.0169C95.4616 31.1899 95.5777 31.4114 95.6165 31.6814L96.8507 40.7322C96.878 40.9727 96.8308 41.1657 96.7071 41.3093C96.6108 41.4148 96.4729 41.469 96.2926 41.469C95.8903 41.469 95.6618 41.256 95.6042 40.833L94.5305 32.419L92.0036 41.0079C91.9101 41.3444 91.6939 41.5127 91.3605 41.5127Z" fill="#5D9DD7"/>
<path d="M101.934 39.0725L107.356 31.2774C107.594 30.9304 107.861 30.7574 108.159 30.7574C108.549 30.7574 108.747 30.9684 108.747 31.3915V40.8045C108.747 41.2475 108.538 41.469 108.122 41.469C107.688 41.469 107.471 41.2551 107.471 40.8292V33.0493L101.914 41.0384C101.738 41.3245 101.506 41.468 101.217 41.468C100.844 41.468 100.658 41.2465 100.658 40.8036V31.4485C100.658 30.9865 100.875 30.7555 101.311 30.7555C101.5 30.7555 101.651 30.823 101.764 30.957C101.876 31.092 101.934 31.2546 101.934 31.4475V39.0725Z" fill="#5D9DD7"/>
<path d="M119.42 31.9837V40.7769C119.42 41.238 119.202 41.4699 118.768 41.4699C118.598 41.4699 118.45 41.4015 118.327 41.2665C118.205 41.1315 118.144 40.9785 118.144 40.8055V31.5654C118.144 31.3838 118.193 31.2165 118.286 31.0673C118.382 30.919 118.516 30.8448 118.688 30.8448H122.316C122.719 30.8448 122.92 31.035 122.92 31.4143C122.92 31.7945 122.719 31.9846 122.314 31.9846H119.42V31.9837Z" fill="#5D9DD7"/>
<path d="M131.865 31.9837H128.697C128.265 31.9837 128.049 32.1995 128.049 32.6329V39.2778C128.049 40.0468 127.872 40.6048 127.517 40.9499C127.165 41.296 126.604 41.469 125.841 41.469C125.313 41.469 125.052 41.2807 125.052 40.9052C125.052 40.5687 125.205 40.3862 125.511 40.3567C125.788 40.3282 126.064 40.2988 126.343 40.2702C126.649 40.1362 126.802 39.7902 126.802 39.2312V32.4599C126.802 31.3829 127.376 30.8439 128.522 30.8439H132.595C132.958 30.8439 133.141 31.0844 133.141 31.5654V40.8054C133.141 40.988 133.08 41.1448 132.962 41.2741C132.844 41.4053 132.695 41.4699 132.516 41.4699C132.328 41.4699 132.171 41.4015 132.049 41.2674C131.925 41.1324 131.865 40.9699 131.865 40.7769V31.9837Z" fill="#5D9DD7"/>
<path d="M137.347 41.469C137.194 41.469 137.051 41.4224 136.921 41.3311C136.791 41.2399 136.727 41.1163 136.727 40.9623C136.727 40.8283 136.747 40.7075 136.785 40.603L140.169 31.5074C140.361 30.9874 140.667 30.7279 141.088 30.7279C141.509 30.7279 141.814 30.9874 142.007 31.5074L145.389 40.603C145.43 40.7075 145.448 40.8283 145.448 40.9623C145.448 41.2988 145.241 41.469 144.828 41.469C144.52 41.469 144.315 41.315 144.209 41.0079L143.46 38.87H138.731L137.967 41.0079C137.859 41.315 137.653 41.469 137.347 41.469ZM141.087 32.2499L139.139 37.7302H143.049L141.087 32.2499Z" fill="#5D9DD7"/>
<path d="M152.219 40.371C152.765 40.371 153.235 40.2009 153.632 39.8586C154.028 39.5174 154.228 39.0725 154.228 38.524C154.228 37.6199 154.003 37.003 153.553 36.676C153.256 36.464 152.792 36.3584 152.162 36.3584C152.105 36.3584 152.03 36.3584 151.941 36.3584C151.848 36.3584 151.78 36.3584 151.732 36.3584C151.405 36.3584 151.177 36.3299 151.044 36.2719C150.852 36.1949 150.756 36.0371 150.756 35.7976C150.756 35.4905 150.924 35.3128 151.257 35.2643C151.638 35.2462 152.017 35.2263 152.389 35.2063C152.878 35.1578 153.25 34.9905 153.508 34.7025C153.824 34.3479 153.982 33.9638 153.982 33.5503C153.982 33.1387 153.833 32.7603 153.537 32.4143C153.241 32.0692 152.8 31.8962 152.217 31.8962C151.653 31.8962 151.136 32.0198 150.668 32.266C150.382 32.4181 150.168 32.5626 150.031 32.6995C149.892 32.8373 149.736 32.9067 149.565 32.9067C149.238 32.9067 149.076 32.7147 149.076 32.3297C149.076 32.1168 149.168 31.9247 149.349 31.7517C150.066 31.0872 151.021 30.7564 152.216 30.7564C153.135 30.7564 153.856 30.9827 154.382 31.4342C154.946 31.9057 155.228 32.5949 155.228 33.499C155.228 34.519 154.792 35.2415 153.924 35.6645C155.023 36.04 155.572 36.9146 155.572 38.292C155.572 39.312 155.268 40.0963 154.661 40.6448C154.052 41.1943 153.239 41.469 152.215 41.469C151.612 41.469 151.015 41.3768 150.423 41.1943C149.735 40.9823 149.224 40.6847 148.889 40.2997C148.756 40.1457 148.689 39.9813 148.689 39.8092C148.689 39.4242 148.85 39.2312 149.177 39.2312C149.367 39.2312 149.525 39.2826 149.649 39.39C150.09 39.756 150.481 40.005 150.825 40.141C151.211 40.295 151.675 40.371 152.219 40.371Z" fill="#5D9DD7"/>
<path d="M159.305 41.469C159.15 41.469 159.01 41.4224 158.879 41.3311C158.75 41.2399 158.686 41.1163 158.686 40.9623C158.686 40.8283 158.706 40.7075 158.742 40.603L162.127 31.5074C162.318 30.9874 162.624 30.7279 163.046 30.7279C163.467 30.7279 163.773 30.9874 163.964 31.5074L167.347 40.603C167.387 40.7075 167.406 40.8283 167.406 40.9623C167.406 41.2988 167.199 41.469 166.787 41.469C166.479 41.469 166.274 41.315 166.167 41.0079L165.419 38.87H160.69L159.926 41.0079C159.818 41.315 159.611 41.469 159.305 41.469ZM163.046 32.2499L161.097 37.7302H165.008L163.046 32.2499Z" fill="#5D9DD7"/>
<path d="M176.243 41.5127C175.908 41.5127 175.693 41.3444 175.597 41.0079L173.07 32.419L171.995 40.833C171.937 41.256 171.708 41.469 171.308 41.469C171.134 41.469 171.002 41.4148 170.906 41.3093C170.771 41.1553 170.72 40.9623 170.749 40.7322L171.981 31.6814C172.02 31.4114 172.138 31.1899 172.334 31.0169C172.529 30.8439 172.765 30.7574 173.044 30.7574C173.539 30.7574 173.86 30.9969 174.003 31.4798L176.227 39.1875H176.256L178.48 31.4789C178.622 30.9969 178.943 30.7574 179.439 30.7574C179.718 30.7574 179.954 30.8439 180.149 31.0169C180.345 31.1899 180.461 31.4114 180.5 31.6814L181.734 40.7322C181.761 40.9727 181.714 41.1657 181.59 41.3093C181.496 41.4148 181.356 41.469 181.176 41.469C180.776 41.469 180.545 41.256 180.489 40.833L179.414 32.419L176.887 41.0079C176.793 41.3444 176.577 41.5127 176.243 41.5127Z" fill="#5D9DD7"/>
<path d="M186.819 39.0725L192.239 31.2774C192.479 30.9304 192.744 30.7574 193.042 30.7574C193.435 30.7574 193.63 30.9684 193.63 31.3915V40.8045C193.63 41.2475 193.421 41.469 193.007 41.469C192.572 41.469 192.354 41.2551 192.354 40.8292V33.0493L186.799 41.0384C186.621 41.3245 186.387 41.468 186.102 41.468C185.728 41.468 185.543 41.2465 185.543 40.8036V31.4485C185.543 30.9865 185.759 30.7555 186.195 30.7555C186.385 30.7555 186.536 30.823 186.648 30.957C186.762 31.092 186.82 31.2546 186.82 31.4475V39.0725H186.819Z" fill="#5D9DD7"/>
<path d="M1.78027 21.62C1.29868 21.62 0.882248 21.4432 0.530027 21.0905C0.189138 20.7464 0.019165 20.3328 0.019165 19.848V1.84895C0.019165 1.36318 0.189138 0.949661 0.530027 0.606486C0.882248 0.251904 1.29868 0.0750885 1.78027 0.0750885C2.26186 0.0750885 2.6764 0.251904 3.02862 0.606486C3.36951 0.94871 3.53948 1.36318 3.53948 1.84895V9.81801L12.1486 0.712005C12.4791 0.359325 12.8899 0.173004 13.3828 0.15209C13.8644 0.141633 14.2808 0.307992 14.6311 0.651166C14.9834 0.984835 15.1637 1.39455 15.1732 1.87937C15.1939 2.37464 15.0334 2.79862 14.6916 3.15225L7.46774 10.8019L14.9777 18.7567C15.3101 19.1208 15.4697 19.5438 15.4593 20.0286C15.4498 20.5135 15.2695 20.9279 14.9173 21.2711C14.5783 21.5943 14.1703 21.7559 13.6982 21.7559C13.1968 21.7559 12.7709 21.5744 12.4196 21.2112L5.03146 13.3781L3.53948 14.9694V19.848C3.53948 20.3328 3.36951 20.7464 3.02862 21.0905C2.6764 21.4432 2.26091 21.62 1.78027 21.62Z" fill="#252324"/>
<path d="M23.1864 21.62C22.7341 21.428 22.414 21.1047 22.2232 20.6503C22.0429 20.1969 22.0429 19.7415 22.2232 19.2872L24.1335 14.6662V14.651L29.6718 1.19777C29.6916 1.14643 29.7162 1.097 29.7473 1.04567L29.7766 0.969617C29.8059 0.929691 29.8267 0.904024 29.8371 0.893567C29.8371 0.88311 29.8522 0.858394 29.8814 0.817517C29.9107 0.787098 29.9315 0.767135 29.9419 0.756678C29.9419 0.747172 29.957 0.727209 29.9862 0.69679C30.0269 0.656863 30.0467 0.632147 30.0467 0.62169C30.0561 0.611233 30.076 0.596023 30.1062 0.57606C30.1468 0.535183 30.1723 0.516171 30.1817 0.516171C30.1723 0.516171 30.1912 0.50001 30.2421 0.469591C30.2828 0.440121 30.3064 0.419208 30.3177 0.409702L30.3772 0.364071C30.4291 0.334602 30.4584 0.318441 30.4678 0.318441C30.4877 0.308935 30.5236 0.293726 30.5727 0.273763C30.6246 0.243343 30.6388 0.233835 30.6189 0.243342C30.5991 0.252848 30.6189 0.243342 30.6794 0.212922C30.7294 0.203416 30.7643 0.192959 30.7842 0.182503C30.7936 0.182503 30.8286 0.172997 30.889 0.152083L30.9475 0.136872C30.9683 0.136872 31.0032 0.131168 31.0542 0.121662L31.1279 0.106453C31.1392 0.106453 31.1685 0.106453 31.2185 0.106453C31.2592 0.106453 31.2828 0.106453 31.2941 0.106453C31.3139 0.106453 31.3441 0.106453 31.3847 0.106453H31.4754L31.566 0.121662L31.6416 0.136872C31.6614 0.136872 31.6973 0.146378 31.7464 0.167292C31.8059 0.177749 31.8257 0.182503 31.8059 0.182503C31.9277 0.212923 32.0382 0.258552 32.1373 0.318441C32.1279 0.308935 32.1487 0.318441 32.1987 0.348861C32.2488 0.379281 32.278 0.400194 32.2894 0.40875L32.3489 0.45438C32.3895 0.4848 32.415 0.505714 32.4244 0.515221C32.4339 0.515221 32.4537 0.52948 32.4848 0.560851C32.5141 0.59032 32.5387 0.611233 32.5604 0.62169C32.5604 0.632147 32.5755 0.651159 32.6048 0.681579C32.6454 0.722456 32.6652 0.747172 32.6652 0.756678L32.7096 0.817517C32.7502 0.857444 32.77 0.88311 32.77 0.893567C32.77 0.904024 32.7851 0.92874 32.8144 0.969617C32.8456 1.00954 32.8607 1.03521 32.8607 1.04567C32.8899 1.097 32.9164 1.14643 32.9343 1.19777L38.4726 14.651V14.6662L40.3848 19.2872C40.5652 19.7415 40.5652 20.1969 40.3848 20.6503C40.1931 21.1057 39.872 21.428 39.4216 21.62C39.2006 21.7112 38.975 21.7569 38.7427 21.7569C37.9495 21.7569 37.4037 21.389 37.1034 20.6503L35.6595 17.1359H26.9447L25.499 20.6503C25.1987 21.389 24.6529 21.7569 23.8597 21.7569C23.6293 21.7569 23.5131 21.7569 23.5131 21.7569C23.5131 21.7569 23.4064 21.7112 23.1864 21.62ZM34.2025 13.5749L31.2979 6.54501L28.4093 13.5749H34.2025Z" fill="#252324"/>
<path d="M49.4887 0.0304337C49.9807 0.0304337 50.3962 0.207249 50.739 0.561831C51.0893 0.905006 51.2649 1.32423 51.2649 1.81855V18.1807H59.2272C59.7183 18.1807 60.1404 18.3575 60.4907 18.7111C60.8316 19.0543 61.0034 19.4745 61.0034 19.9688C61.0034 20.4641 60.8316 20.8823 60.4907 21.2274C60.1404 21.5801 59.7183 21.7569 59.2272 21.7569H49.4887C48.9977 21.7569 48.5813 21.5801 48.2404 21.2274C47.8901 20.8833 47.7144 20.4641 47.7144 19.9688V1.81855C47.7144 1.32328 47.8901 0.905006 48.2404 0.561831C48.5813 0.207249 48.9977 0.0304337 49.4887 0.0304337Z" fill="#252324"/>
<path d="M69.7948 21.7559C69.3038 21.7559 68.8873 21.5791 68.5465 21.2264C68.1961 20.8823 68.0205 20.4631 68.0205 19.9678V1.89457C68.0205 1.3993 68.1961 0.980075 68.5465 0.636901C68.8873 0.283269 69.3047 0.106453 69.7948 0.106453C70.2868 0.106453 70.7042 0.283269 71.045 0.636901C71.3954 0.980075 71.5729 1.3993 71.5729 1.89457V19.9688C71.5729 20.464 71.3954 20.8823 71.045 21.2274C70.7042 21.5801 70.2868 21.7559 69.7948 21.7559Z" fill="#252324"/>
<path d="M95.3294 21.0744H95.3124V21.0591L84.4917 7.04412V19.9678C84.4917 20.4631 84.3161 20.8814 83.9658 21.2265C83.6249 21.5791 83.2075 21.7559 82.7155 21.7559C82.2245 21.7559 81.8081 21.5791 81.4672 21.2265C81.1169 20.8823 80.9412 20.4631 80.9412 19.9678V1.81855C80.9412 1.43545 81.0498 1.09133 81.2717 0.788078C81.4927 0.475324 81.7845 0.257632 82.1442 0.136903C82.4965 0.00571702 82.8562 -0.00378881 83.2283 0.106483C83.5899 0.217706 83.8846 0.424942 84.115 0.727239L94.9356 14.7565V1.81855C94.9356 1.32328 95.1075 0.905006 95.4484 0.561831C95.7987 0.2082 96.2208 0.0304337 96.7118 0.0304337C97.2038 0.0304337 97.6212 0.207249 97.9602 0.561831C98.3124 0.905006 98.488 1.32423 98.488 1.81855V19.9992C98.488 20.0192 98.4824 20.0505 98.4729 20.0905C98.4729 20.1304 98.4729 20.1561 98.4729 20.1665C98.4729 20.1865 98.4673 20.2169 98.4578 20.2578C98.4578 20.2977 98.4521 20.3281 98.4427 20.349L98.4257 20.4241C98.4163 20.4745 98.4059 20.5049 98.3964 20.5154C98.3964 20.5258 98.387 20.5506 98.3672 20.5914C98.3558 20.6323 98.3464 20.6627 98.3379 20.6827L98.3067 20.7578L98.2623 20.8348C98.251 20.8548 98.2369 20.8852 98.2161 20.9261L98.1698 20.9717C98.1604 20.9917 98.1405 21.0221 98.1103 21.062L98.0659 21.1228C98.0546 21.1323 98.0348 21.1533 98.0055 21.1827C97.9762 21.2227 97.9555 21.2426 97.9451 21.2426C97.9451 21.2531 97.9252 21.273 97.8856 21.3035C97.8544 21.3329 97.8299 21.3538 97.81 21.3633C97.8393 21.3434 97.8336 21.3491 97.7949 21.3786L97.7798 21.3947C97.6986 21.4546 97.6231 21.505 97.5532 21.5459H97.5381C97.4569 21.5867 97.3775 21.621 97.2963 21.6514C97.2557 21.6723 97.2463 21.6761 97.2671 21.6666C97.1877 21.697 97.1028 21.7179 97.0112 21.7265L96.9668 21.7426C96.8761 21.7531 96.7911 21.7579 96.7109 21.7579C96.6514 21.7579 96.5853 21.7531 96.5154 21.7426C96.5352 21.7531 96.5249 21.7531 96.4861 21.7426C96.4257 21.7322 96.3757 21.7227 96.335 21.7122C96.3464 21.7217 96.3256 21.717 96.2756 21.697C96.2236 21.6866 96.1849 21.677 96.1537 21.6666C96.1443 21.6666 96.1245 21.6571 96.0942 21.6362C96.0423 21.6267 96.0036 21.6115 95.9724 21.5905C95.9526 21.5905 95.9318 21.581 95.9129 21.5611C95.8723 21.5411 95.8374 21.5259 95.8062 21.5154C95.777 21.4955 95.7562 21.4803 95.7468 21.4698C95.7175 21.4499 95.6807 21.4242 95.6419 21.3947C95.6108 21.3738 95.59 21.3586 95.5815 21.3491C95.5315 21.3082 95.4871 21.2683 95.4465 21.2284L95.4295 21.2122V21.197C95.3908 21.1571 95.37 21.1361 95.37 21.1361C95.37 21.1361 95.3568 21.1143 95.3294 21.0744Z" fill="#252324"/>
<path d="M123.492 1.02951C123.813 1.6959 123.749 2.32236 123.296 2.90889L111.408 18.1806H121.52C122.012 18.1806 122.428 18.3527 122.77 18.6959C123.121 19.0505 123.296 19.4744 123.296 19.9688C123.296 20.464 123.121 20.8823 122.77 21.2274C122.428 21.5801 122.012 21.7569 121.52 21.7569H107.766C107.023 21.7569 106.486 21.4232 106.156 20.7568C105.835 20.0819 105.904 19.4497 106.366 18.8632L118.24 3.59049H108.142C107.65 3.59049 107.229 3.41938 106.877 3.0762C106.527 2.72257 106.351 2.29859 106.351 1.80332C106.351 1.30899 106.527 0.88882 106.877 0.545645C107.229 0.192014 107.65 0.0151978 108.142 0.0151978H121.897C122.629 0.0151978 123.162 0.354571 123.492 1.02951Z" fill="#252324"/>
<path d="M131.201 21.62C130.752 21.428 130.429 21.1047 130.239 20.6503C130.059 20.1969 130.059 19.7415 130.239 19.2872L132.149 14.6662V14.651L137.688 1.19777C137.707 1.14643 137.734 1.097 137.763 1.04567L137.792 0.969617C137.824 0.929691 137.842 0.904024 137.853 0.893567C137.853 0.88311 137.868 0.858394 137.899 0.817517C137.928 0.787098 137.949 0.767135 137.959 0.756678C137.959 0.747172 137.976 0.727209 138.005 0.69679C138.044 0.656863 138.064 0.632147 138.064 0.62169C138.076 0.611233 138.095 0.596023 138.125 0.57606C138.165 0.535183 138.189 0.516171 138.2 0.516171C138.189 0.516171 138.21 0.50001 138.26 0.469591C138.3 0.440121 138.326 0.419208 138.335 0.409702L138.396 0.364071C138.446 0.334602 138.475 0.318441 138.485 0.318441C138.506 0.308935 138.542 0.293726 138.591 0.273763C138.641 0.243343 138.655 0.233835 138.636 0.243342C138.617 0.252848 138.636 0.243342 138.696 0.212922C138.746 0.203416 138.781 0.192959 138.801 0.182503C138.812 0.182503 138.847 0.172997 138.906 0.152083L138.966 0.136872C138.986 0.136872 139.022 0.131168 139.071 0.121662L139.146 0.106453C139.156 0.106453 139.187 0.106453 139.237 0.106453C139.278 0.106453 139.301 0.106453 139.313 0.106453C139.332 0.106453 139.363 0.106453 139.403 0.106453H139.492L139.583 0.121662L139.658 0.136872C139.678 0.136872 139.714 0.146378 139.765 0.167292C139.824 0.177749 139.844 0.182503 139.824 0.182503C139.944 0.212923 140.055 0.258552 140.155 0.318441C140.146 0.308935 140.166 0.318441 140.215 0.348861C140.265 0.379281 140.297 0.400194 140.306 0.40875L140.366 0.45438C140.407 0.4848 140.431 0.505714 140.442 0.515221C140.451 0.515221 140.471 0.52948 140.502 0.560851C140.533 0.59032 140.557 0.611233 140.577 0.62169C140.577 0.632147 140.592 0.651159 140.621 0.681579C140.662 0.722456 140.682 0.747172 140.682 0.756678L140.728 0.817517C140.767 0.857444 140.788 0.88311 140.788 0.893567C140.788 0.904024 140.805 0.92874 140.834 0.969617C140.863 1.00954 140.878 1.03521 140.878 1.04567C140.908 1.097 140.934 1.14643 140.954 1.19777L146.492 14.651V14.6662L148.402 19.2872C148.583 19.7415 148.583 20.1969 148.402 20.6503C148.213 21.1057 147.892 21.428 147.439 21.62C147.218 21.7112 146.993 21.7569 146.762 21.7569C145.969 21.7569 145.421 21.389 145.121 20.6503L143.677 17.1359H134.964L133.518 20.6503C133.218 21.389 132.671 21.7569 131.879 21.7569C131.647 21.7569 131.533 21.7569 131.533 21.7569C131.533 21.7569 131.423 21.7112 131.201 21.62ZM142.217 13.5749L139.315 6.54501L136.425 13.5749H142.217Z" fill="#252324"/>
<path d="M170.38 6.31783C170.38 7.65156 169.968 8.85884 169.146 9.93875C168.352 11.0082 167.309 11.7716 166.014 12.2269L169.432 19.1959C169.642 19.6313 169.666 20.0809 169.505 20.5439C169.356 21.0087 169.059 21.3519 168.618 21.5734C168.367 21.6951 168.107 21.755 167.836 21.755C167.104 21.755 166.576 21.4213 166.255 20.7549L162.265 12.6195H159.212V19.8461C159.212 20.331 159.036 20.7502 158.684 21.1038C158.343 21.4479 157.927 21.619 157.435 21.619C156.954 21.619 156.537 21.4479 156.187 21.1038C155.846 20.7502 155.674 20.331 155.674 19.8461V1.78717C155.674 1.29285 155.846 0.873621 156.187 0.529496C156.537 0.175864 156.955 0 157.435 0H163.668C165.523 0 167.104 0.616001 168.408 1.84801C169.722 3.08096 170.38 4.57059 170.38 6.31783ZM163.789 9.06038C164.632 9.02996 165.352 8.75333 165.956 8.22668C166.548 7.69148 166.842 7.05647 166.842 6.31783C166.842 5.55068 166.531 4.89855 165.91 4.3624C165.288 3.8272 164.541 3.56008 163.669 3.56008H159.213V9.05943H163.789V9.06038Z" fill="#5D9DD7"/>
<path d="M191.942 0.0304072C192.423 0.0304072 192.834 0.20247 193.176 0.545644C193.517 0.888819 193.689 1.30329 193.689 1.78811V13.9998C193.689 16.1415 192.936 17.9686 191.429 19.4849C189.926 21.0002 188.115 21.7578 185.997 21.7578C183.871 21.7578 182.054 21.0002 180.549 19.4849C179.044 17.9696 178.291 16.1415 178.291 13.9998V1.78716C178.291 1.30329 178.461 0.888819 178.802 0.544694C179.143 0.201519 179.555 0.0294571 180.038 0.0294571C180.52 0.0294571 180.93 0.201519 181.272 0.544694C181.613 0.887869 181.783 1.30234 181.783 1.78716V13.9988C181.783 15.171 182.195 16.171 183.017 16.999C183.84 17.828 184.834 18.2415 185.997 18.2415C187.15 18.2415 188.139 17.828 188.962 16.999C189.784 16.171 190.196 15.171 190.196 13.9988V1.78716C190.196 1.30329 190.368 0.888819 190.709 0.544694C191.049 0.20247 191.461 0.0304072 191.942 0.0304072Z" fill="#5D9DD7"/>
</svg>
