<svg width="112" height="13" viewBox="0 0 112 13" fill="none" xmlns="http://www.w3.org/2000/svg">
<path d="M1.01845 12.503C0.739948 12.503 0.499125 12.4007 0.295434 12.1968C0.0982961 11.9978 0 11.7586 0 11.4782V1.06929C0 0.788368 0.0982961 0.549226 0.295434 0.350767C0.499125 0.14571 0.739948 0.043457 1.01845 0.043457C1.29696 0.043457 1.53669 0.14571 1.74038 0.350767C1.93752 0.548676 2.03582 0.788368 2.03582 1.06929V5.67783L7.0145 0.411789C7.20563 0.207832 7.44318 0.100082 7.72824 0.0879874C8.00674 0.0819402 8.24757 0.178146 8.45017 0.376605C8.65386 0.569567 8.75816 0.806509 8.76362 1.08688C8.77563 1.3733 8.6828 1.61849 8.48512 1.823L4.30754 6.24683L8.65058 10.8471C8.84281 11.0577 8.93509 11.3023 8.92909 11.5827C8.92363 11.8631 8.81932 12.1028 8.61563 12.3012C8.41959 12.4881 8.18368 12.5816 7.91063 12.5816C7.62066 12.5816 7.37438 12.4766 7.17123 12.2666L2.89864 7.73664L2.03582 8.65692V11.4782C2.03582 11.7586 1.93752 11.9978 1.74038 12.1968C1.53669 12.4007 1.29641 12.503 1.01845 12.503Z" fill="#252324"/>
<path d="M13.3977 12.5029C13.1361 12.3918 12.951 12.2049 12.8407 11.9421C12.7364 11.6799 12.7364 11.4166 12.8407 11.1538L13.9454 8.48148V8.47268L17.1483 0.692635C17.1597 0.662948 17.1739 0.634361 17.1919 0.604675L17.2089 0.560695C17.2258 0.537606 17.2378 0.522762 17.2438 0.516715C17.2438 0.510668 17.2526 0.496374 17.2695 0.472735C17.2864 0.455143 17.2984 0.443599 17.3044 0.437552C17.3044 0.432054 17.3132 0.42051 17.3301 0.402918C17.3536 0.379828 17.3651 0.365535 17.3651 0.359487C17.3705 0.35344 17.382 0.344644 17.3995 0.333099C17.4229 0.30946 17.4377 0.298465 17.4431 0.298465C17.4377 0.298465 17.4486 0.28912 17.4781 0.271528C17.5016 0.254485 17.5152 0.242391 17.5218 0.236894L17.5562 0.210505C17.5862 0.193463 17.6031 0.184117 17.6086 0.184117C17.6201 0.17862 17.6408 0.169824 17.6692 0.15828C17.6993 0.140688 17.7074 0.135189 17.696 0.140687C17.6845 0.146184 17.696 0.140687 17.7309 0.123095C17.7599 0.117598 17.7801 0.111551 17.7915 0.105503C17.797 0.105503 17.8172 0.100006 17.8522 0.0879116L17.886 0.0791152C17.898 0.0791152 17.9182 0.0758163 17.9477 0.0703188L17.9903 0.0615234C17.9969 0.0615234 18.0138 0.0615234 18.0427 0.0615234C18.0662 0.0615234 18.0799 0.0615234 18.0864 0.0615234C18.0979 0.0615234 18.1154 0.0615234 18.1389 0.0615234H18.1913L18.2437 0.0703188L18.2874 0.0791152C18.2989 0.0791152 18.3196 0.0846124 18.348 0.0967069C18.3824 0.102754 18.3939 0.105503 18.3824 0.105503C18.4529 0.123095 18.5168 0.149483 18.5741 0.184117C18.5686 0.17862 18.5806 0.184117 18.6096 0.201709C18.6385 0.219301 18.6555 0.231395 18.662 0.236343L18.6964 0.262731C18.7199 0.280323 18.7346 0.292418 18.7401 0.297916C18.7456 0.297916 18.757 0.306162 18.775 0.324304C18.792 0.341346 18.8062 0.35344 18.8187 0.359487C18.8187 0.365535 18.8275 0.376529 18.8444 0.394121C18.8679 0.417761 18.8794 0.432054 18.8794 0.437552L18.905 0.472735C18.9285 0.495825 18.94 0.510668 18.94 0.516715C18.94 0.522762 18.9487 0.537056 18.9656 0.560695C18.9837 0.583784 18.9924 0.598628 18.9924 0.604675C19.0093 0.634361 19.0246 0.662948 19.035 0.692635L22.2378 8.47268V8.48148L23.3436 11.1538C23.4479 11.4166 23.4479 11.6799 23.3436 11.9421C23.2328 12.2055 23.0471 12.3918 22.7866 12.5029C22.6588 12.5557 22.5283 12.5821 22.394 12.5821C21.9353 12.5821 21.6196 12.3693 21.446 11.9421L20.611 9.90973H15.5712L14.7351 11.9421C14.5614 12.3693 14.2458 12.5821 13.7871 12.5821C13.6538 12.5821 13.5867 12.5821 13.5867 12.5821C13.5867 12.5821 13.525 12.5557 13.3977 12.5029ZM19.7684 7.85037L18.0886 3.78497L16.4181 7.85037H19.7684Z" fill="#252324"/>
<path d="M28.6085 0.0178223C28.893 0.0178223 29.1333 0.120076 29.3315 0.325132C29.5341 0.523591 29.6357 0.766031 29.6357 1.0519V10.5142H34.2403C34.5243 10.5142 34.7684 10.6164 34.971 10.8209C35.1681 11.0194 35.2675 11.2624 35.2675 11.5483C35.2675 11.8347 35.1681 12.0766 34.971 12.2761C34.7684 12.4801 34.5243 12.5823 34.2403 12.5823H28.6085C28.3245 12.5823 28.0837 12.4801 27.8866 12.2761C27.684 12.0771 27.5824 11.8347 27.5824 11.5483V1.0519C27.5824 0.765481 27.684 0.523591 27.8866 0.325132C28.0837 0.120076 28.3245 0.0178223 28.6085 0.0178223Z" fill="#252324"/>
<path d="M40.3515 12.5815C40.0676 12.5815 39.8268 12.4793 39.6296 12.2753C39.427 12.0763 39.3254 11.8338 39.3254 11.5474V1.0956C39.3254 0.809182 39.427 0.566743 39.6296 0.368284C39.8268 0.163777 40.0681 0.0615234 40.3515 0.0615234C40.636 0.0615234 40.8774 0.163777 41.0746 0.368284C41.2772 0.566743 41.3798 0.809182 41.3798 1.0956V11.548C41.3798 11.8344 41.2772 12.0763 41.0746 12.2758C40.8774 12.4798 40.636 12.5815 40.3515 12.5815Z" fill="#252324"/>
<path d="M55.1183 12.1876H55.1085V12.1788L48.8509 4.07387V11.5477C48.8509 11.8341 48.7493 12.076 48.5467 12.2756C48.3496 12.4795 48.1082 12.5818 47.8237 12.5818C47.5397 12.5818 47.2989 12.4795 47.1018 12.2756C46.8992 12.0766 46.7976 11.8341 46.7976 11.5477V1.0519C46.7976 0.830352 46.8604 0.631342 46.9887 0.455972C47.1165 0.275104 47.2853 0.149212 47.4933 0.0793939C47.697 0.00352853 47.9051 -0.00196874 48.1202 0.0618021C48.3294 0.126123 48.4998 0.245968 48.633 0.420788L54.8906 8.53398V1.0519C54.8906 0.765481 54.99 0.523591 55.1872 0.325132C55.3898 0.120625 55.6339 0.0178223 55.9178 0.0178223C56.2023 0.0178223 56.4437 0.120076 56.6397 0.325132C56.8434 0.523591 56.945 0.766031 56.945 1.0519V11.5658C56.945 11.5774 56.9417 11.5955 56.9363 11.6186C56.9363 11.6417 56.9363 11.6566 56.9363 11.6626C56.9363 11.6742 56.933 11.6917 56.9275 11.7154C56.9275 11.7385 56.9243 11.7561 56.9188 11.7682L56.909 11.8116C56.9035 11.8407 56.8975 11.8583 56.892 11.8644C56.892 11.8704 56.8866 11.8847 56.8751 11.9083C56.8686 11.932 56.8631 11.9496 56.8582 11.9611L56.8402 12.0045L56.8145 12.0491C56.8079 12.0606 56.7998 12.0782 56.7877 12.1019L56.761 12.1282C56.7555 12.1398 56.7441 12.1574 56.7266 12.1805L56.7009 12.2157C56.6944 12.2211 56.6829 12.2332 56.666 12.2503C56.649 12.2734 56.637 12.2849 56.631 12.2849C56.631 12.291 56.6195 12.3025 56.5966 12.3201C56.5786 12.3371 56.5644 12.3492 56.5529 12.3547C56.5698 12.3432 56.5666 12.3465 56.5442 12.3635L56.5354 12.3729C56.4885 12.4075 56.4448 12.4367 56.4044 12.4603H56.3957C56.3487 12.4839 56.3028 12.5037 56.2559 12.5213C56.2324 12.5334 56.2269 12.5356 56.2389 12.5301C56.1931 12.5477 56.1439 12.5598 56.0909 12.5647L56.0653 12.5741C56.0128 12.5801 55.9637 12.5829 55.9173 12.5829C55.8829 12.5829 55.8446 12.5801 55.8042 12.5741C55.8157 12.5801 55.8097 12.5801 55.7873 12.5741C55.7524 12.568 55.7234 12.5625 55.6999 12.5565C55.7065 12.562 55.6945 12.5592 55.6655 12.5477C55.6355 12.5417 55.6131 12.5362 55.5951 12.5301C55.5896 12.5301 55.5782 12.5246 55.5607 12.5125C55.5306 12.507 55.5083 12.4982 55.4902 12.4861C55.4788 12.4861 55.4668 12.4806 55.4558 12.4691C55.4323 12.4575 55.4121 12.4487 55.3941 12.4427C55.3772 12.4312 55.3652 12.4224 55.3597 12.4163C55.3428 12.4048 55.3215 12.3899 55.2991 12.3729C55.2811 12.3608 55.2691 12.352 55.2642 12.3465C55.2352 12.3229 55.2095 12.2998 55.1861 12.2767L55.1762 12.2673V12.2585C55.1538 12.2354 55.1418 12.2234 55.1418 12.2234C55.1418 12.2234 55.1342 12.2107 55.1183 12.1876Z" fill="#252324"/>
<path d="M71.4049 0.595372C71.5905 0.980746 71.5534 1.34303 71.2918 1.68223L64.4166 10.5139H70.2646C70.5491 10.5139 70.7894 10.6134 70.9876 10.8119C71.1902 11.017 71.2918 11.2622 71.2918 11.548C71.2918 11.8344 71.1902 12.0763 70.9876 12.2759C70.7894 12.4798 70.5491 12.5821 70.2646 12.5821H62.3103C61.8805 12.5821 61.5703 12.3891 61.3792 12.0038C61.1935 11.6134 61.234 11.2479 61.501 10.9087L68.3675 2.0764H62.5282C62.2437 2.0764 62.0001 1.97744 61.7964 1.77898C61.5938 1.57448 61.4923 1.32929 61.4923 1.04287C61.4923 0.756998 61.5938 0.514009 61.7964 0.315549C62.0001 0.111043 62.2431 0.00878906 62.5282 0.00878906H70.4825C70.9057 0.00878906 71.2143 0.20505 71.4049 0.595372Z" fill="#252324"/>
<path d="M75.8632 12.5029C75.6032 12.3918 75.4164 12.2049 75.3067 11.9421C75.2024 11.6799 75.2024 11.4166 75.3067 11.1538L76.4114 8.48148V8.47268L79.6142 0.692635C79.6257 0.662948 79.641 0.634361 79.6579 0.604675L79.6748 0.560695C79.6929 0.537606 79.7038 0.522762 79.7098 0.516715C79.7098 0.510668 79.7185 0.496374 79.7366 0.472735C79.7535 0.455143 79.7655 0.443599 79.771 0.437552C79.771 0.432054 79.7808 0.42051 79.7977 0.402918C79.8201 0.379828 79.8321 0.365535 79.8321 0.359487C79.8387 0.35344 79.8501 0.344644 79.8671 0.333099C79.8906 0.30946 79.9042 0.298465 79.9108 0.298465C79.9042 0.298465 79.9162 0.28912 79.9452 0.271528C79.9686 0.254485 79.9834 0.242391 79.9888 0.236894L80.0238 0.210505C80.0527 0.193463 80.0697 0.184117 80.0751 0.184117C80.0877 0.17862 80.1084 0.169824 80.1368 0.15828C80.1658 0.140688 80.174 0.135189 80.1625 0.140687C80.1516 0.146184 80.1625 0.140687 80.1975 0.123095C80.2264 0.117598 80.2466 0.111551 80.2581 0.105503C80.2646 0.105503 80.2848 0.100006 80.3187 0.0879116L80.3536 0.0791152C80.3651 0.0791152 80.3859 0.0758163 80.4143 0.0703188L80.4579 0.0615234C80.4634 0.0615234 80.4814 0.0615234 80.5104 0.0615234C80.5338 0.0615234 80.5475 0.0615234 80.5541 0.0615234C80.565 0.0615234 80.583 0.0615234 80.6065 0.0615234H80.6578L80.7102 0.0703188L80.7539 0.0791152C80.7654 0.0791152 80.7861 0.0846124 80.8156 0.0967069C80.85 0.102754 80.8615 0.105503 80.85 0.105503C80.9194 0.123095 80.9833 0.149483 81.0412 0.184117C81.0357 0.17862 81.0477 0.184117 81.0761 0.201709C81.1051 0.219301 81.1231 0.231395 81.1285 0.236343L81.1635 0.262731C81.187 0.280323 81.2006 0.292418 81.2072 0.297916C81.2126 0.297916 81.2241 0.306162 81.2416 0.324304C81.2596 0.341346 81.2738 0.35344 81.2853 0.359487C81.2853 0.365535 81.294 0.376529 81.3109 0.394121C81.3344 0.417761 81.3459 0.432054 81.3459 0.437552L81.3726 0.472735C81.395 0.495825 81.407 0.510668 81.407 0.516715C81.407 0.522762 81.4169 0.537056 81.4338 0.560695C81.4507 0.583784 81.4595 0.598628 81.4595 0.604675C81.4764 0.634361 81.4917 0.662948 81.5031 0.692635L84.706 8.47268V8.48148L85.8107 11.1538C85.915 11.4166 85.915 11.6799 85.8107 11.9421C85.7009 12.2055 85.5153 12.3918 85.2537 12.5029C85.1259 12.5557 84.9954 12.5821 84.8621 12.5821C84.4034 12.5821 84.0867 12.3693 83.913 11.9421L83.0781 9.90973H78.0393L77.2033 11.9421C77.0296 12.3693 76.7129 12.5821 76.2552 12.5821C76.1209 12.5821 76.0548 12.5821 76.0548 12.5821C76.0548 12.5821 75.9915 12.5557 75.8632 12.5029ZM82.2338 7.85037L80.5551 3.78497L78.8841 7.85037H82.2338Z" fill="#252324"/>
<path d="M98.5203 3.65363C98.5203 4.42493 98.2822 5.12311 97.8066 5.74762C97.3479 6.36609 96.7444 6.80754 95.9957 7.07087L97.972 11.1011C98.0938 11.3529 98.1075 11.6129 98.0146 11.8806C97.9284 12.1495 97.7563 12.3479 97.5013 12.476C97.3561 12.5464 97.2059 12.581 97.0492 12.581C96.6259 12.581 96.3207 12.388 96.135 12.0027L93.8278 7.29792H92.0617V11.4771C92.0617 11.7575 91.9602 11.9999 91.7565 12.2044C91.5593 12.4034 91.3191 12.5024 91.0345 12.5024C90.756 12.5024 90.5152 12.4034 90.3126 12.2044C90.1155 11.9999 90.0161 11.7575 90.0161 11.4771V1.03353C90.0161 0.747658 90.1155 0.505219 90.3126 0.30621C90.5152 0.101703 90.7566 0 91.0345 0H94.6387C95.7118 0 96.6259 0.356236 97.3801 1.06871C98.1397 1.78174 98.5203 2.64319 98.5203 3.65363ZM94.7086 5.23966C95.1963 5.22206 95.6129 5.06209 95.9619 4.75753C96.3043 4.44802 96.4747 4.08079 96.4747 3.65363C96.4747 3.20998 96.2945 2.83286 95.9351 2.5228C95.5758 2.21329 95.1439 2.05881 94.6393 2.05881H92.0623V5.23911H94.7086V5.23966Z" fill="#5D9DD7"/>
<path d="M110.99 0.0176393C111.268 0.0176393 111.506 0.117144 111.703 0.315603C111.901 0.514062 112 0.753753 112 1.03412V8.0962C112 9.33478 111.565 10.3914 110.693 11.2683C109.824 12.1446 108.776 12.5827 107.552 12.5827C106.322 12.5827 105.272 12.1446 104.401 11.2683C103.531 10.392 103.095 9.33478 103.095 8.0962V1.03358C103.095 0.753753 103.194 0.514063 103.391 0.315054C103.588 0.116594 103.826 0.0170898 104.106 0.0170898C104.384 0.0170898 104.622 0.116594 104.819 0.315054C105.017 0.513513 105.115 0.753203 105.115 1.03358V8.09565C105.115 8.77349 105.353 9.35183 105.829 9.83066C106.304 10.31 106.879 10.5492 107.552 10.5492C108.219 10.5492 108.791 10.31 109.266 9.83066C109.742 9.35183 109.98 8.77349 109.98 8.09565V1.03358C109.98 0.753753 110.079 0.514063 110.277 0.315054C110.474 0.117144 110.712 0.0176393 110.99 0.0176393Z" fill="#5D9DD7"/>
</svg>
