<svg width="23" height="20" fill="none" xmlns="http://www.w3.org/2000/svg"><path d="M6.733 0H17.14c3.219 0 5.838 2.699 5.838 6.016V9.71c.049 1.415.196 8.555-1.779 10.153a.611.611 0 0 1-.575.107.634.634 0 0 1-.408-.432c-.299-1.054-1.434-3.789-3.076-3.789H6.732c-3.22 0-5.838-2.699-5.838-6.016V6.016C.895 2.699 3.514 0 6.733 0zM2.141 9.733c0 2.61 2.06 4.733 4.592 4.733H17.14c1.981 0 3.22 2.095 3.826 3.494.66-1.799.858-5.572.766-8.227V6.016c0-2.61-2.06-4.732-4.592-4.732H6.733c-2.532 0-4.592 2.123-4.592 4.732v3.717z" fill="#999"/></svg>