<svg width="64" height="64" viewBox="0 0 64 64" fill="none" xmlns="http://www.w3.org/2000/svg">
<g clip-path="url(#clip0)">
<path d="M50.7 34.4C51 35 51.2 35.6 51.2 36.2C51.2 36.7 51.2 37.2 51 37.6C50.8 38 50.5 38.5 50.1 39C49.6 39.5 49.1 39.9 48.6 40.3C48.1 40.7 47.3 41.2 46.4 41.8C43.7 43.5 39.9 44.7 35.1 45.2L37.7 47.8L47.2 57.3C47.9 58 48.3 58.9 48.3 59.9C48.3 60.9 47.9 61.8 47.2 62.5L46.8 63C46.1 63.7 45.2 64.1 44.2 64.1C43.2 64.1 42.3 63.7 41.6 63C40 61.4 36.8 58.2 32.1 53.4L22.6 63C21.9 63.7 21 64.1 20 64.1C19 64.1 18.1 63.7 17.4 63L17 62.5C16.3 61.8 15.9 60.9 15.9 59.9C15.9 58.9 16.3 58 17 57.3L26.5 47.8L29.1 45.2C24.3 44.7 20.5 43.6 17.8 41.8C16.9 41.2 16.1 40.7 15.6 40.3C15.1 39.9 14.6 39.5 14.1 39C13.6 38.5 13.3 38.1 13.2 37.6C13 37.2 13 36.7 13 36.2C13 35.7 13.2 35.1 13.5 34.4C13.7 33.9 14.1 33.5 14.5 33.1C14.9 32.7 15.4 32.5 16 32.3C16.6 32.1 17.2 32.2 18 32.4C18.8 32.6 19.5 33 20.3 33.7C20.4 33.8 20.6 33.9 20.8 34.1C21 34.3 21.6 34.6 22.3 35C23.1 35.4 23.9 35.8 24.8 36.1C25.7 36.4 26.8 36.7 28.1 37C29.4 37.3 30.8 37.4 32.1 37.4C34.3 37.4 36.3 37.1 38.3 36.5C40.3 35.9 41.7 35.3 42.6 34.7L44 33.8C44.8 33.2 45.6 32.8 46.3 32.5C47.1 32.3 47.7 32.3 48.3 32.4C48.9 32.6 49.4 32.8 49.8 33.2C50.1 33.5 50.4 33.9 50.7 34.4ZM43.5 27.6C40.3 30.8 36.5 32.4 32 32.4C27.5 32.4 23.7 30.8 20.5 27.6C17.3 24.4 15.7 20.6 15.7 16.2C15.7 11.7 17.3 7.9 20.5 4.7C23.7 1.5 27.5 0 32 0C36.5 0 40.3 1.6 43.5 4.8C46.7 8 48.3 11.8 48.3 16.3C48.2 20.7 46.6 24.5 43.5 27.6ZM37.6 10.6C36 9 34.2 8.3 32 8.3C29.8 8.3 27.9 9.1 26.4 10.6C24.8 12.1 24 14 24 16.2C24 18.4 24.8 20.3 26.3 21.8C27.9 23.4 29.7 24.1 31.9 24.1C34.1 24.1 36 23.3 37.5 21.8C39.1 20.2 39.8 18.4 39.8 16.2C40 14 39.2 12.1 37.6 10.6Z" fill="#4F4F4F"/>
</g>
<defs>
<clipPath id="clip0">
<rect width="64" height="64" fill="white"/>
</clipPath>
</defs>
</svg>
