<svg width="20" height="18" viewBox="0 0 20 18" fill="none" xmlns="http://www.w3.org/2000/svg">
<path d="M16.1328 4.85362V2.61355C16.1328 1.17273 14.9832 0 13.5424 0H6.48035C5.03952 0 3.86637 1.1723 3.86637 2.61355V4.8532H1.13732C0.509221 4.8532 0 5.36242 0 5.99052V8.46285C0 9.09137 0.509221 9.60017 1.13732 9.60017H1.47624L2.71894 16.427C2.81716 16.9674 3.28844 17.3603 3.83771 17.3603H16.1855C16.7352 17.3603 17.2056 16.9674 17.3042 16.4266L18.5461 9.60017H18.8623C19.4904 9.60017 19.9996 9.09137 19.9996 8.46285V5.99052C19.9996 5.36242 19.4904 4.8532 18.8623 4.8532L16.1328 4.85362ZM5.97323 2.61355C5.97323 2.33871 6.2055 2.10686 6.48035 2.10686H13.5437C13.8181 2.10686 14.0268 2.33871 14.0268 2.61355V4.8532H5.97323V2.61355ZM7.54642 13.2958C7.54642 13.733 7.19696 14.087 6.75983 14.087C6.32311 14.087 5.97323 13.733 5.97323 13.2958V8.95226C5.97323 8.51512 6.32311 8.16145 6.75983 8.16145C7.19739 8.16145 7.54642 8.51597 7.54642 8.95226V13.2958ZM10.7999 13.2958C10.7999 13.733 10.45 14.087 10.0133 14.087C9.57656 14.087 9.22626 13.733 9.22626 13.2958V8.95226C9.22626 8.51512 9.57656 8.16145 10.0133 8.16145C10.4504 8.16145 10.7999 8.51597 10.7999 8.95226V13.2958ZM14.0533 13.2958C14.0533 13.733 13.7034 14.087 13.2672 14.087C12.83 14.087 12.4801 13.733 12.4801 13.2958V8.95226C12.4801 8.51512 12.83 8.16145 13.2672 8.16145C13.7034 8.16145 14.0533 8.51597 14.0533 8.95226V13.2958Z" fill="#232122"/>
</svg>
