<svg width="64" height="64" viewBox="0 0 64 64" fill="none" xmlns="http://www.w3.org/2000/svg">
<rect width="64" height="64" fill="white"/>
<path d="M60 28C61.1 28 62 28.4 62.8 29.2C63.6 30 64 30.9 64 32C64 33.1 63.6 34 62.8 34.8C62 35.6 61.1 36 60 36H59.5L55.9 56.7C55.7 57.7 55.3 58.4 54.5 59.1C53.8 59.7 52.9 60 51.9 60H12C11 60 10.2 59.7 9.4 59.1C8.7 58.5 8.2 57.7 8 56.7L4.5 36H4C2.9 36 2 35.6 1.2 34.8C0.399997 34 0 33.1 0 32C0 30.9 0.399997 30 1.2 29.2C2 28.4 2.9 28 4 28H60ZM14.9 13.1L12 26H7.9L11 12.2C11.4 10.4 12.3 8.9 13.8 7.7C15.3 6.5 16.9 6 18.8 6H24C24 5.5 24.2 5 24.6 4.6C25 4.2 25.5 4 26 4H38C38.5 4 39 4.2 39.4 4.6C39.8 5 40 5.5 40 6H45.2C47.1 6 48.7 6.6 50.2 7.7C51.7 8.9 52.6 10.4 53 12.2L56.2 26H52L49.1 13.1C48.9 12.2 48.4 11.4 47.7 10.9C47 10.3 46.2 10 45.2 10H40C40 10.5 39.8 11 39.4 11.4C39 11.8 38.5 12 38 12H26C25.5 12 25 11.8 24.6 11.4C24.2 11 24 10.5 24 10H18.8C17.9 10 17 10.3 16.3 10.9C15.6 11.5 15.1 12.2 14.9 13.1ZM15.2 53C15.7 53 16.2 52.7 16.6 52.3C17 51.9 17.1 51.4 17.1 50.8L16.1 37.8C16.1 37.3 15.8 36.8 15.4 36.4C15 36 14.5 35.9 13.9 35.9C13.4 35.9 12.9 36.2 12.5 36.6C12.1 37 12 37.5 12 38L13 51C13 51.5 13.3 52 13.6 52.3C14 52.7 14.4 52.8 15 52.8H15.2V53ZM28 51V38C28 37.5 27.8 37 27.4 36.6C27 36.2 26.5 36 26 36C25.5 36 25 36.2 24.6 36.6C24.2 37 24 37.5 24 38V51C24 51.5 24.2 52 24.6 52.4C25 52.8 25.5 53 26 53C26.5 53 27 52.8 27.4 52.4C27.8 52 28 51.5 28 51ZM40 51V38C40 37.5 39.8 37 39.4 36.6C39 36.2 38.5 36 38 36C37.5 36 37 36.2 36.6 36.6C36.2 37 36 37.5 36 38V51C36 51.5 36.2 52 36.6 52.4C37 52.8 37.5 53 38 53C38.5 53 39 52.8 39.4 52.4C39.8 52 40 51.5 40 51ZM51 51.2L52 38.2C52 37.7 51.9 37.2 51.5 36.8C51.1 36.4 50.7 36.1 50.1 36.1C49.6 36.1 49.1 36.2 48.6 36.6C48.2 37 47.9 37.4 47.9 38L46.9 51C46.9 51.5 47 52 47.4 52.5C47.8 52.9 48.2 53.2 48.8 53.2H49C49.5 53.2 50 53 50.4 52.7C50.7 52.1 51 51.7 51 51.2Z" fill="#4F4F4F"/>
</svg>
