<svg id="Layer_1" data-name="Layer 1" xmlns="http://www.w3.org/2000/svg" viewBox="0 0 64 64"><title>skype</title><path d="M64,48A16,16,0,0,1,48,64a15.6,15.6,0,0,1-9.75-3.33,31,31,0,0,1-6.25.66A28.81,28.81,0,0,1,20.61,59,29.33,29.33,0,0,1,2.67,32a31,31,0,0,1,.66-6.25A15.6,15.6,0,0,1,0,16,15.43,15.43,0,0,1,4.69,4.68,15.41,15.41,0,0,1,16,0a15.6,15.6,0,0,1,9.75,3.33A30.27,30.27,0,0,1,32,2.67,28.81,28.81,0,0,1,43.39,5,29.33,29.33,0,0,1,61.33,32a31,31,0,0,1-.66,6.25A15.6,15.6,0,0,1,64,48ZM48.88,39a8.78,8.78,0,0,0-.82-3.81,9.2,9.2,0,0,0-2-2.85,12.78,12.78,0,0,0-3-2,24,24,0,0,0-3.44-1.42c-1.07-.33-2.28-.65-3.64-1l-4.34-1-1.83-.43A15.1,15.1,0,0,1,28.29,26,4.48,4.48,0,0,1,27,25.29a3.48,3.48,0,0,1-.69-.87A2.54,2.54,0,0,1,26,23.17Q26,20,32,20a9.45,9.45,0,0,1,3.21.5,7.39,7.39,0,0,1,2.25,1.19c.56.45,1.08.92,1.58,1.39a8,8,0,0,0,1.67,1.21,4.15,4.15,0,0,0,2,.5,4,4,0,0,0,3.15-1.33,4.7,4.7,0,0,0,1.18-3.21,5.28,5.28,0,0,0-2.33-4.15,16.06,16.06,0,0,0-5.92-2.81,29.15,29.15,0,0,0-7.58-1,23.32,23.32,0,0,0-5.5.65,19.27,19.27,0,0,0-5,2,10,10,0,0,0-5.1,9,11.43,11.43,0,0,0,.79,4.44,8,8,0,0,0,2.33,3.15,14.59,14.59,0,0,0,3.33,2,24.62,24.62,0,0,0,4.3,1.35l6.08,1.5a19.9,19.9,0,0,1,4.67,1.51,2.73,2.73,0,0,1,1.33,2.49A3.13,3.13,0,0,1,36.83,43a8,8,0,0,1-4.37,1.06,10.15,10.15,0,0,1-3.81-.67,8.45,8.45,0,0,1-2.71-1.6c-.68-.62-1.32-1.25-1.9-1.87a9.77,9.77,0,0,0-1.92-1.61,4.1,4.1,0,0,0-2.24-.66,3.87,3.87,0,0,0-3.15,1.25A4.63,4.63,0,0,0,15.67,42q0,3.83,5.08,6.56a25.18,25.18,0,0,0,12.13,2.73,21.58,21.58,0,0,0,5.83-.77,18.87,18.87,0,0,0,5.1-2.22A10.9,10.9,0,0,0,48.88,39Z"/></svg>