<?xml version="1.0" encoding="utf-8"?>
<!-- Generator: Adobe Illustrator 23.0.0, SVG Export Plug-In . SVG Version: 6.00 Build 0)  -->
<svg version="1.1" id="Layer_1" xmlns="http://www.w3.org/2000/svg" xmlns:xlink="http://www.w3.org/1999/xlink" x="0px" y="0px"
	 viewBox="0 0 13 13" style="enable-background:new 0 0 13 13;" xml:space="preserve">
<style type="text/css">
	.st0{fill:#4F4F4F;}
</style>
<g>
	<path class="st0" d="M13,13H0l0-0.7c0-2.7,1.6-5,4-6C3.3,5.6,2.9,4.6,2.9,3.6c0-2,1.6-3.6,3.6-3.6s3.6,1.6,3.6,3.6
		c0,1-0.4,2-1.2,2.6c2.5,1,4,3.4,4,6L13,13z M1,12h11c-0.1-2.1-1.4-4-3.4-4.8L7.1,6.6l1.1-1.1C8.8,5,9.1,4.3,9.1,3.6
		C9.1,2.2,7.9,1,6.5,1C5.1,1,3.9,2.2,3.9,3.6c0,0.7,0.3,1.4,0.8,1.9l1.1,1.1L4.4,7.2C2.4,8,1.1,9.9,1,12z"/>
</g>
</svg>
