<svg width="64" height="64" viewBox="0 0 64 64" fill="none" xmlns="http://www.w3.org/2000/svg">
<g clip-path="url(#clip0)">
<path fill-rule="evenodd" clip-rule="evenodd" d="M36.7791 32.1415L41.3718 27.8772C44.0873 25.3559 45.7778 21.7673 45.7778 17.7778C45.7778 10.1685 39.6093 4 32 4C24.3907 4 18.2222 10.1685 18.2222 17.7778C18.2222 21.7673 19.9127 25.3559 22.6282 27.8772L27.2209 32.1415L21.4192 34.5115C11.3232 38.6356 4.18277 48.4776 4.00346 60H59.9965C59.8172 48.4776 52.6769 38.6356 42.5808 34.5115L36.7791 32.1415ZM63.8047 64H0.195306C0.0662531 62.8326 0 61.6463 0 60.4444C0 48.5566 6.48238 38.1827 16.1052 32.6649C17.3242 31.9659 18.5936 31.3449 19.9065 30.8085C18.8828 29.858 17.9713 28.7883 17.194 27.6215C15.3165 24.8031 14.2222 21.4182 14.2222 17.7778C14.2222 7.95938 22.1816 0 32 0C41.8184 0 49.7778 7.95938 49.7778 17.7778C49.7778 21.4182 48.6835 24.8031 46.806 27.6215C46.0287 28.7883 45.1172 29.858 44.0935 30.8085C45.4064 31.3449 46.6758 31.9659 47.8948 32.6649C57.5176 38.1827 64 48.5566 64 60.4444C64 61.6463 63.9337 62.8326 63.8047 64Z" fill="#4F4F4F"/>
</g>
<defs>
<clipPath id="clip0">
<rect width="64" height="64" fill="white"/>
</clipPath>
</defs>
</svg>
