<svg id="Layer_1" data-name="Layer 1" xmlns="http://www.w3.org/2000/svg" viewBox="0 0 64 64"><title>viber</title><path d="M55.48,6.25q4.13,3.63,5.88,11.12Q63.1,25.5,61.73,37q-1.12,9.12-6.87,13.88a21.22,21.22,0,0,1-8.13,3.75l-.75.12a33.83,33.83,0,0,1-6,1.13,62.13,62.13,0,0,1-13,.37c-1.75,1.92-3,3.29-3.75,4.13l-1,1.12a20,20,0,0,1-2,2,2.69,2.69,0,0,1-2.37.38,1.69,1.69,0,0,1-1.06-.94,5.58,5.58,0,0,1-.44-1.44V54.25A18.36,18.36,0,0,1,5.73,47,26,26,0,0,1,2.11,36.25a51.25,51.25,0,0,1-.38-10A43.28,43.28,0,0,1,3.23,15,19.3,19.3,0,0,1,8,6.62a21.75,21.75,0,0,1,7.5-4.25A43.7,43.7,0,0,1,23.73.5,44,44,0,0,1,30.36,0h2.75a48.1,48.1,0,0,1,16,2.62A21.6,21.6,0,0,1,55.48,6.25Zm1.75,29.63A50.18,50.18,0,0,0,57,19.12q-1.36-6.61-4.87-9.62a15.39,15.39,0,0,0-5.5-2.88A45,45,0,0,0,32.86,4.5H30.48a41.56,41.56,0,0,0-5.62.37,40.69,40.69,0,0,0-7,1.5A17.39,17.39,0,0,0,11.61,10a16.1,16.1,0,0,0-4.13,7,37.3,37.3,0,0,0-1.25,9.37v.75a60.94,60.94,0,0,0,.25,8.38,21.68,21.68,0,0,0,3,8.75,15.44,15.44,0,0,0,8.63,5.88L18,60.88c0,.58.15.93.44,1.06s.65,0,1.06-.44c.84-.83,2.5-2.71,5-5.62L28,51.63a55.49,55.49,0,0,0,11.13-.38,37.32,37.32,0,0,0,5.25-1l.75-.12a17,17,0,0,0,6.5-3Q56.23,43.38,57.23,35.88ZM46.86,41.13a2.31,2.31,0,0,0-.5-3,26.67,26.67,0,0,0-5.75-4,2.23,2.23,0,0,0-1.81-.44,2.3,2.3,0,0,0-1.44.81L36.11,36a1.74,1.74,0,0,1-1.13.63l-.62.12a13,13,0,0,1-5.13-2.62A13.21,13.21,0,0,1,26,30.62a16,16,0,0,1-1.62-3.12l-.5-1.38V25.5a1.69,1.69,0,0,1,.62-1.13L26,23.25a2.35,2.35,0,0,0,.82-1.44,3,3,0,0,0-.32-1.94c-.66-1.16-1.29-2.16-1.87-3l-2.25-2.75a2.31,2.31,0,0,0-3-.5A13,13,0,0,0,16,16.37a4.39,4.39,0,0,0-.87,3.75l.75,1.63a37.43,37.43,0,0,0,2.62,5.44,52.69,52.69,0,0,0,3.75,5.68,31.48,31.48,0,0,0,5.25,5.26,51.31,51.31,0,0,0,7,4.5,34.46,34.46,0,0,0,5.88,2.62,3.9,3.9,0,0,0,3.75-.87A11.06,11.06,0,0,0,46.86,41.13Zm1.37-12.26q0-8-4.87-12.75A15.94,15.94,0,0,0,31.61,11.5c-.59,0-.88.27-.88.81s.29.81.88.81a14.49,14.49,0,0,1,10.5,4q4.5,4.38,4.5,11.75,0,.75.81.75T48.23,28.87Zm-5.87-1.75c0,.59.27.88.81.88s.81-.25.81-.75a11,11,0,0,0-2.81-8A11.66,11.66,0,0,0,33,15.62c-.5,0-.77.28-.81.82s.19.81.69.81A10.33,10.33,0,0,1,40,20.37,9.24,9.24,0,0,1,42.36,27.12Zm-2.5-1.37c-.17-3.67-2-5.58-5.63-5.75q-.75,0-.81.81t.69.81c2.58.17,4,1.59,4.12,4.25,0,.5.27.75.82.75S39.86,26.33,39.86,25.75Z"/></svg>