<svg width="64" height="64" viewBox="0 0 64 64" fill="none" xmlns="http://www.w3.org/2000/svg">
<g clip-path="url(#clip0)">
<path d="M55.8361 6.5C58.6361 8.9 60.5361 12.6 61.7361 17.6C62.9361 23 63.0361 29.6 62.1361 37.2C61.3361 43.3 59.1361 47.9 55.2361 51.1C53.1361 52.8 50.4361 54 47.1361 54.9L46.3361 55C45.0361 55.4 43.0361 55.8 40.3361 56.1C36.0361 56.7 31.6361 56.8 27.3361 56.5C25.5361 58.4 24.3361 59.8 23.5361 60.6L22.5361 61.7C21.6361 62.7 20.9361 63.4 20.5361 63.7C19.7361 64.2 19.0361 64.3 18.1361 64.1C17.6361 63.9 17.2361 63.6 17.0361 63.2C16.8361 62.7 16.6361 62.3 16.6361 61.8V54.5C12.0361 53.2 8.53607 50.8 6.03607 47.2C4.23607 44.4 3.03607 40.8 2.43607 36.4C2.03607 33.9 1.93607 30.6 2.03607 26.4C2.13607 22 2.63607 18.2 3.53607 15.1C4.53607 11.7 6.13607 8.9 8.33607 6.7C10.2361 4.9 12.7361 3.49999 15.8361 2.39999C18.2361 1.59999 21.0361 0.9 24.0361 0.5C26.2361 0.2 28.4361 0 30.6361 0H33.4361C39.6361 0.1 44.9361 0.999998 49.4361 2.6C52.2361 3.9 54.3361 5.1 55.8361 6.5ZM57.5361 36.1C58.3361 29.6 58.3361 24 57.2361 19.3C56.3361 14.9 54.7361 11.7 52.3361 9.7C51.1361 8.6 49.3361 7.7 46.8361 6.8C42.9361 5.5 38.3361 4.8 33.0361 4.7H30.6361C28.7361 4.7 26.8361 4.8 25.0361 5.1C22.4361 5.4 20.1361 5.9 18.0361 6.6C15.4361 7.5 13.3361 8.7 11.8361 10.2C10.0361 12 8.63607 14.3 7.73607 17.2C6.93607 19.8 6.53607 22.9 6.43607 26.6V27.4C6.33607 31 6.43607 33.8 6.73607 35.8C7.23607 39.3 8.23607 42.2 9.73607 44.6C11.7361 47.4 14.6361 49.4 18.3361 50.5V61.1C18.3361 61.7 18.4361 62 18.7361 62.2C19.0361 62.3 19.3361 62.2 19.8361 61.8C20.6361 61 22.3361 59.1 24.8361 56.2L28.3361 51.9C32.0361 52.2 35.7361 52 39.4361 51.5C41.8361 51.2 43.6361 50.8 44.7361 50.5L45.5361 50.4C48.2361 49.7 50.3361 48.7 52.0361 47.4C55.0361 44.8 56.9361 41.1 57.5361 36.1ZM47.2361 41.3C47.8361 40.1 47.6361 39.1 46.7361 38.3C45.2361 36.9 43.3361 35.5 40.9361 34.3C40.3361 33.9 39.7361 33.7 39.1361 33.9C38.5361 34.1 38.0361 34.3 37.7361 34.7L36.4361 36.2C36.1361 36.5 35.8361 36.7 35.3361 36.8L34.7361 36.9C32.8361 36.4 31.1361 35.5 29.6361 34.3C28.3361 33.4 27.3361 32.2 26.3361 30.8C25.6361 29.8 25.1361 28.8 24.7361 27.7L24.2361 26.3V25.7C24.3361 25.2 24.5361 24.8 24.8361 24.6L26.3361 23.5C26.7361 23.2 27.0361 22.7 27.1361 22.1C27.2361 21.5 27.1361 20.8 26.8361 20.2C26.1361 19 25.5361 18 24.9361 17.2L22.6361 14.4C21.8361 13.5 20.8361 13.3 19.6361 13.9C18.2361 14.7 17.1361 15.7 16.2361 16.7C15.3361 18 15.0361 19.3 15.3361 20.5L16.1361 22.1C16.7361 23.7 17.6361 25.5 18.7361 27.5C19.9361 29.5 21.1361 31.4 22.5361 33.2C24.1361 35.2 25.8361 37 27.8361 38.5C29.8361 40 32.1361 41.5 34.8361 43C37.3361 44.3 39.3361 45.2 40.7361 45.6C41.9361 46 43.1361 45.7 44.5361 44.7C45.4361 43.8 46.3361 42.7 47.2361 41.3ZM48.5361 29.1C48.5361 23.8 46.9361 19.5 43.6361 16.3C40.5361 13.2 36.6361 11.7 31.8361 11.7C31.2361 11.7 30.9361 12 30.9361 12.5C30.9361 13 31.2361 13.3 31.8361 13.3C36.1361 13.3 39.6361 14.6 42.3361 17.3C45.3361 20.2 46.8361 24.1 46.8361 29.1C46.8361 29.6 47.1361 29.9 47.6361 29.9C48.3361 29.8 48.5361 29.6 48.5361 29.1ZM42.7361 27.3C42.7361 27.9 43.0361 28.2 43.5361 28.2C44.0361 28.2 44.3361 27.9 44.3361 27.4C44.4361 24.2 43.4361 21.6 41.5361 19.4C39.5361 17.2 36.8361 16 33.3361 15.8C32.8361 15.8 32.5361 16.1 32.5361 16.6C32.5361 17.1 32.7361 17.4 33.2361 17.4C36.3361 17.7 38.7361 18.7 40.3361 20.5C41.9361 22.4 42.7361 24.7 42.7361 27.3ZM40.2361 26C40.0361 22.3 38.2361 20.4 34.6361 20.2C34.1361 20.2 33.8361 20.5 33.8361 21C33.8361 21.5 34.0361 21.8 34.5361 21.8C37.1361 22 38.5361 23.4 38.6361 26.1C38.6361 26.6 38.9361 26.9 39.4361 26.9C39.9361 26.8 40.2361 26.5 40.2361 26Z" fill="#4F4F4F"/>
</g>
<defs>
<clipPath id="clip0">
<rect width="64" height="64" fill="white"/>
</clipPath>
</defs>
</svg>
