<svg id="Layer_1" data-name="Layer 1" xmlns="http://www.w3.org/2000/svg" viewBox="0 0 64 64"><title>viber</title><path d="M60.77,55.87a4.32,4.32,0,0,0-.94-5.65A50.26,50.26,0,0,0,49,42.67a4.27,4.27,0,0,0-3.42-.82,4.39,4.39,0,0,0-2.71,1.53l-2.36,2.83a3.16,3.16,0,0,1-2.12,1.18l-1.18.23a24.55,24.55,0,0,1-9.66-4.95,24.75,24.75,0,0,1-6.13-6.6,30.34,30.34,0,0,1-3.07-5.89l-.94-2.6V26.4a3.18,3.18,0,0,1,1.18-2.12l2.83-2.12a4.44,4.44,0,0,0,1.53-2.71,5.53,5.53,0,0,0-.59-3.65c-1.26-2.2-2.43-4.09-3.53-5.66L14.56,5A4.33,4.33,0,0,0,8.9,4,24.08,24.08,0,0,0,2.54,9.19Q-.05,13,.89,16.27L2.3,19.33a69.75,69.75,0,0,0,5,10.26,96.58,96.58,0,0,0,7.08,10.72,58.38,58.38,0,0,0,9.9,9.91,96.8,96.8,0,0,0,13.2,8.48,63.72,63.72,0,0,0,11.08,4.95q3.3,1.18,7.07-1.65A20.29,20.29,0,0,0,60.77,55.87Zm2.59-23.1q0-15.09-9.19-24.05Q45.44,0,32,0q-1.65,0-1.65,1.53T32,3.06q12,0,19.8,7.55,8.49,8.25,8.49,22.16,0,1.41,1.53,1.41T63.36,32.77Zm-11.08-3.3c0,1.1.51,1.65,1.54,1.65s1.53-.47,1.53-1.42A20.79,20.79,0,0,0,50,14.62Q44.51,8.49,34.6,7.78q-1.41,0-1.53,1.53c-.08,1,.35,1.53,1.3,1.53q8.72.72,13.43,5.9A17.34,17.34,0,0,1,52.28,29.47Zm-4.71-2.59Q47.09,16.5,37,16c-.94,0-1.46.51-1.53,1.53s.35,1.54,1.29,1.54q7.32.46,7.78,8c0,.94.51,1.42,1.54,1.42S47.57,28,47.57,26.88Z"/></svg>