<svg width="19" height="12" fill="none" xmlns="http://www.w3.org/2000/svg"><path d="M15.745 5.43S18.241 1.914 18.49.76c.086-.415-.097-.647-.53-.647h-2.165c-.497 0-.676.216-.827.529 0 0-1.172 2.491-2.598 4.066-.454.507-.685.658-.94.658-.205 0-.297-.168-.297-.626V.728c0-.566-.07-.728-.53-.728H7.13c-.265 0-.432.151-.432.36 0 .53.81.648.81 2.082v2.956c0 .598-.033.825-.313.825-.746 0-2.518-2.556-3.506-5.463C3.489.162 3.273 0 2.71 0H.546C.232 0 0 .216 0 .529c0 .576.675 3.251 3.338 6.837 1.788 2.41 4.137 3.716 6.254 3.716 1.291 0 1.604-.216 1.604-.76v-1.85c0-.464.184-.664.448-.664.297 0 .821.097 2.048 1.305 1.458 1.39 1.556 1.968 2.349 1.968h2.43c.25 0 .481-.119.481-.528 0-.545-.712-1.521-1.804-2.675-.443-.599-1.171-1.241-1.404-1.537-.329-.346-.232-.545 0-.911h.001z" fill="#333"/></svg>