<svg width="80" height="20" fill="none" xmlns="http://www.w3.org/2000/svg"><path d="M9.4 4.898a4.77 4.77 0 0 1 3.376 1.407 4.767 4.767 0 0 1 1.395 3.38 4.767 4.767 0 0 1-4.772 4.776 4.767 4.767 0 0 1-4.772-4.776c0-1.319.532-2.516 1.396-3.38a4.768 4.768 0 0 1 3.376-1.407zm1.649 3.136a2.334 2.334 0 0 0-1.65-.687 2.33 2.33 0 0 0-2.325 2.338c0 .642.255 1.23.676 1.65a2.32 2.32 0 0 0 1.65.677 2.325 2.325 0 0 0 2.335-2.327c0-.643-.265-1.23-.686-1.651z" fill="#999"/><path d="M0 7.435a9.679 9.679 0 0 1 3.41-5.352A9.725 9.725 0 0 1 9.4 0a9.653 9.653 0 0 1 6.841 2.837 9.65 9.65 0 0 1 2.835 6.848c0 .997-.155 1.983-.454 2.925a9.87 9.87 0 0 1-1.318 2.649l-2.413-1.707a6.781 6.781 0 0 0 .908-1.84 6.693 6.693 0 0 0-1.65-6.782 6.681 6.681 0 0 0-4.75-1.971A6.7 6.7 0 0 0 2.867 8.11L0 7.435zm37.797-.543l-1.838 6.56c-.155.521-.354.909-.598 1.142-.343.31-.863.476-1.539.476-1.151 0-1.838-.399-2.07-1.174l-1.074-3.524c-.044-.166-.088-.244-.122-.244-.022 0-.066.078-.122.244l-1.062 3.524c-.233.775-.92 1.174-2.07 1.174-.687 0-1.196-.166-1.54-.476-.243-.233-.442-.62-.597-1.142l-1.838-6.56h2.834l1.218 4.654c.033.156.088.244.144.244.044 0 .088-.077.144-.232l1.184-3.901c.178-.576.742-.853 1.705-.853.975 0 1.54.277 1.716.853l1.185 3.9c.055.156.1.233.133.233.066 0 .11-.088.155-.243l1.218-4.655h2.834zm8.58 3.17c0 .72-.155 1.219-.487 1.485-.188.143-.454.221-.786.221h-4.407c-.022.266.023.488.133.665.111.177.3.3.565.344.133.022.387.033.775.033h3.92v2.16h-5.105c-.775 0-1.317-.044-1.65-.133a1.986 1.986 0 0 1-1.206-.897c-.277-.465-.42-1.43-.42-2.914 0-1.053.01-1.718.044-1.995.077-.632.287-1.12.62-1.452.332-.343.863-.565 1.605-.675.476-.067 1.207-.1 2.192-.1.963 0 1.639.022 2.048.066.565.089.996.244 1.295.477.576.465.864 1.374.864 2.715zm-2.99-.61c0-.354-.298-.554-.907-.598-.155-.011-.299-.011-.432-.011-.62 0-1.007.077-1.162.232-.155.144-.222.421-.189.81h2.204c.332 0 .487-.145.487-.433zm12.3 1.463c0 1.208-.176 2.116-.53 2.715-.532.897-1.473 1.34-2.846 1.34h-3.554c-.564 0-.996-.155-1.295-.465-.233-.255-.354-.587-.354-.997V4.299h2.989v2.593h2.17c1.373 0 2.336.433 2.878 1.308.366.598.543 1.507.543 2.715zm-3.044-.033c0-.543-.066-.964-.199-1.264-.177-.41-.51-.62-.985-.62h-1.362v3.08c0 .289.044.488.144.588.1.1.277.144.542.144h.61c.52 0 .863-.189 1.04-.554.144-.289.21-.754.21-1.374zm12.267-.82c0 .72-.166 1.219-.487 1.485-.188.143-.454.221-.786.221H59.23c-.023.266.022.488.132.665.111.177.3.3.565.344.133.022.388.033.775.033h3.92v2.16h-5.105c-.775 0-1.317-.044-1.65-.133a1.955 1.955 0 0 1-1.206-.897c-.288-.465-.42-1.43-.42-2.914 0-1.053.01-1.718.044-1.995.077-.632.288-1.12.62-1.452.332-.343.863-.565 1.605-.675.476-.067 1.207-.1 2.192-.1.952 0 1.639.022 2.048.066.565.089.997.244 1.295.477.576.465.864 1.374.864 2.715zm-2.99-.61c0-.354-.298-.554-.907-.598-.155-.011-.299-.011-.432-.011-.62 0-1.007.077-1.162.232-.155.144-.222.421-.188.81h2.203c.332 0 .487-.145.487-.433zm11.404 3.413c0 .798-.221 1.374-.675 1.729-.31.255-.753.377-1.318.377h-5.779V12.81h4.406a.368.368 0 0 0 .178-.056c.055-.033.077-.088.077-.155 0-.077-.044-.133-.122-.177-.077-.045-.387-.155-.93-.333l-1.738-.565c-.841-.277-1.395-.631-1.66-1.063-.2-.333-.3-.787-.3-1.363 0-.588.122-1.064.377-1.441.343-.51.974-.765 1.871-.765h5.403v2.073h-4.395c-.189 0-.31 0-.344.01-.1.023-.144.067-.144.145 0 .077.056.144.166.177.089.044.288.122.61.233l2.047.687c.953.321 1.573.687 1.85 1.086.276.41.42.93.42 1.562zM80 8.965h-2.303v1.85c0 .765.177 1.308.52 1.607.288.255.72.388 1.307.388h.443v2.16h-1.738c-1.13 0-1.96-.177-2.502-.543-.676-.454-1.019-1.119-1.019-1.983v-3.48h-1.14V6.893h1.14V4.3h2.99v2.593H80v2.073zm-64.334 8.078a9.797 9.797 0 0 1-2.923 1.728 9.744 9.744 0 0 1-3.344.588c-.42 0-.852-.023-1.306-.089a8.536 8.536 0 0 1-1.284-.266l.786-2.848c.288.089.587.144.885.189.288.033.598.055.92.055.808 0 1.594-.144 2.324-.41a6.823 6.823 0 0 0 2.037-1.186l1.905 2.239zm-11.337.875c-.465-.288-.897-.61-1.307-.964a9.226 9.226 0 0 1-1.118-1.164l2.28-1.872c.244.299.5.565.787.82.277.244.587.465.908.665l-1.55 2.515z" fill="#999"/></svg>