<svg id="Layer_1" data-name="Layer 1" xmlns="http://www.w3.org/2000/svg" viewBox="0 0 64 64"><title>whatsapp</title><path d="M46.8,38.6l-.4-.2a61.3,61.3,0,0,0-5.5-2.8,1.27,1.27,0,0,0-1.7.6,22.3,22.3,0,0,1-2.4,3c-.4.53-1,.6-1.8.2a34.42,34.42,0,0,1-6-3.6A23.9,23.9,0,0,1,24.2,30a1.53,1.53,0,0,1-.1-.9,3,3,0,0,1,.7-.9,8.34,8.34,0,0,0,1.8-2.6,1.31,1.31,0,0,0,0-1.4L24,18.4c-.27-.93-.8-1.4-1.6-1.4H20.8a3.05,3.05,0,0,0-2.2,1v.2a9,9,0,0,0-2.8,6.6q0,3.79,3.4,8V33q6,8.59,13.4,11.8a29.25,29.25,0,0,0,5.6,2,10,10,0,0,0,4,0,9,9,0,0,0,3-1.3A5.69,5.69,0,0,0,47.6,43a10.25,10.25,0,0,0,.5-2.3,2.61,2.61,0,0,0-.1-1.4A2.86,2.86,0,0,0,46.8,38.6Z"/><path d="M61.5,19.6a32.83,32.83,0,0,0-7-10.3A31.56,31.56,0,0,0,32,0,30.76,30.76,0,0,0,16.1,4.3,32.25,32.25,0,0,0,4.5,15.9a31.05,31.05,0,0,0,.1,31.7L0,64l16.8-4.4A31.39,31.39,0,0,0,32,63.4a31.27,31.27,0,0,0,16-4.3A32.34,32.34,0,0,0,59.7,47.6,30.22,30.22,0,0,0,64,31.8,30.44,30.44,0,0,0,61.5,19.6ZM55,44.9A26.5,26.5,0,0,1,32,58a23.91,23.91,0,0,1-13.4-3.6l-1-.6-10,2.6,2.6-9.6-.6-1a25.88,25.88,0,0,1-4-14A25.71,25.71,0,0,1,9.2,18.5a26.46,26.46,0,0,1,9.6-9.6A26.37,26.37,0,0,1,42,7.4a27.12,27.12,0,0,1,8.6,5.7,26.45,26.45,0,0,1,5.9,8.6A25.51,25.51,0,0,1,55,44.9Z"/></svg>