<?xml version="1.0" encoding="UTF-8"?>
<svg width="37px" height="21px" viewBox="0 0 37 21" version="1.1" xmlns="http://www.w3.org/2000/svg" xmlns:xlink="http://www.w3.org/1999/xlink">
    <!-- Generator: Sketch 50.2 (55047) - http://www.bohemiancoding.com/sketch -->
    <title>delivery icon</title>
    <desc>Created with Sketch.</desc>
    <defs></defs>
    <g id="Basket" stroke="none" stroke-width="1" fill="none" fill-rule="evenodd">
        <g id="Kalinza-basket-1" transform="translate(-774.000000, -735.000000)" fill="#74D629" fill-rule="nonzero">
            <g id="Basket" transform="translate(34.000000, 151.000000)">
                <g id="banner-delivery" transform="translate(0.000000, 554.000000)">
                    <g id="delivery-icon" transform="translate(740.000000, 30.000000)">
                        <path d="M36.2828051,9.75640476 L33.7459266,8.02026187 L29.1384705,0.75303935 C28.9628361,0.476962331 28.6592636,0.309183817 28.3326847,0.309183817 L28.0431405,0.309183817 L22.6125035,0.309183817 L7.11291118,0.309183817 L7.11291118,2.21703314 L21.6585789,2.21703314 L21.6585789,8.69642612 C21.6585789,9.22332921 22.0861616,9.65091191 22.6130647,9.65091191 L32.7493559,9.65091191 L34.7901935,11.0475698 L34.7901935,15.7117003 L33.8531028,15.7117003 C33.5343798,14.5198556 32.1874756,13.4834445 29.8123902,12.602467 C27.4350603,13.4834445 26.0874079,14.5198556 25.769433,15.7117003 L18.5336339,15.7117003 C18.0566716,13.9239333 16.4282661,12.602467 14.4929213,12.602467 C12.5564542,12.602467 10.9274876,13.9239333 10.4499641,15.7117003 L7.11291118,15.7117003 L7.11291118,17.6195496 L10.3876784,17.6195496 C10.7742985,19.531888 12.4677953,20.9762422 14.4929213,20.9762422 C16.5169249,20.9762422 18.2104218,19.531888 18.5964807,17.6195496 L25.7071474,17.6195496 C26.0932063,19.531888 27.7872643,20.9762422 29.8123902,20.9762422 C31.8363939,20.9762422 33.5287684,19.531888 33.9159496,17.6195496 L35.7441182,17.6195496 C36.2710213,17.6195496 36.698604,17.1919669 36.698604,16.6661861 L36.698604,10.5442343 C36.6980429,10.228878 36.5426092,9.93484478 36.2828051,9.75640476 Z M23.5664282,2.21703314 L27.535877,2.21703314 L31.2533776,7.74306259 L23.5664282,7.74306259 L23.5664282,2.21703314 Z M14.4929213,19.0683928 C13.2359852,19.0683928 12.2124802,18.0460101 12.2124802,16.7896352 C12.2124802,15.5326991 13.2359852,14.5097552 14.4929213,14.5097552 C15.7498573,14.5097552 16.7716789,15.532138 16.7716789,16.7896352 C16.7716789,18.0460101 15.7498573,19.0683928 14.4929213,19.0683928 Z M29.8123902,19.0683928 C28.5543319,19.0683928 27.5319491,18.0460101 27.5319491,16.7896352 C27.5319491,15.5326991 28.5543319,14.5097552 29.8123902,14.5097552 C31.068204,14.5097552 32.0911479,15.532138 32.0911479,16.7896352 C32.0905867,18.0460101 31.068204,19.0683928 29.8123902,19.0683928 Z" id="Shape"></path>
                        <rect id="Rectangle-path" x="4.6927482" y="4.40713194" width="6.56580733" height="1.90784932"></rect>
                        <rect id="Rectangle-path" x="0.249703808" y="8.47926797" width="8.36872494" height="1.90784932"></rect>
                        <rect id="Rectangle-path" x="2.38817845" y="11.8859013" width="4.88689993" height="1.90784932"></rect>
                    </g>
                </g>
            </g>
        </g>
    </g>
</svg>