<?xml version="1.0" encoding="UTF-8"?>
<svg width="76px" height="44px" viewBox="0 0 76 44" version="1.1" xmlns="http://www.w3.org/2000/svg" xmlns:xlink="http://www.w3.org/1999/xlink">
    <!-- Generator: Sketch 47 (45396) - http://www.bohemiancoding.com/sketch -->
    <title>delivery icon</title>
    <desc>Created with Sketch.</desc>
    <defs></defs>
    <g id="Main" stroke="none" stroke-width="1" fill="none" fill-rule="evenodd">
        <g id="Kalinza-main" transform="translate(-490.000000, -61.000000)" fill-rule="nonzero" fill="#74D629">
            <g id="top">
                <g id="delivery-icon" transform="translate(489.526316, 61.000000)">
                    <path d="M75.5074592,20.3038694 L70.2280094,16.6908152 L60.6395196,1.56713595 C60.2740103,0.992597283 59.6422513,0.643436591 58.9626141,0.643436591 L58.3600492,0.643436591 L47.0584533,0.643436591 L14.8025449,0.643436591 L14.8025449,4.61382572 L45.0732587,4.61382572 L45.0732587,18.0979679 C45.0732587,19.1944959 45.963093,20.0843302 47.0596211,20.0843302 L68.154065,20.0843302 L72.4012136,22.9908886 L72.4012136,32.6973223 L70.4510518,32.6973223 C69.456119,28.9768341 66.0696107,26.2267557 62.0420012,26.2267557 C58.0120562,26.2267557 54.6208768,28.9768341 53.6282795,32.6973223 L38.5699949,32.6973223 C37.5773976,28.9768341 34.1885537,26.2267557 30.1609443,26.2267557 C26.1309993,26.2267557 22.7409876,28.9768341 21.7472226,32.6973223 L14.8025449,32.6973223 L14.8025449,36.6677114 L21.6176011,36.6677114 C22.4221887,40.6474426 25.946493,43.6532607 30.1609443,43.6532607 C34.37306,43.6532607 37.8973643,40.6474426 38.7007842,36.6677114 L53.498658,36.6677114 C54.3020779,40.6474426 57.8275499,43.6532607 62.0420012,43.6532607 C66.254117,43.6532607 69.7760857,40.6474426 70.5818411,36.6677114 L74.3864081,36.6677114 C75.4829362,36.6677114 76.3727705,35.7778771 76.3727705,34.6836846 L76.3727705,21.9434065 C76.3716027,21.2871245 76.0481328,20.6752175 75.5074592,20.3038694 Z M49.0436479,4.61382572 L57.3043928,4.61382572 L65.0408128,16.1139411 L49.0436479,16.1139411 L49.0436479,4.61382572 Z M30.1609443,39.6828716 C27.5451585,39.6828716 25.4151615,37.5552101 25.4151615,34.9405921 C25.4151615,32.3248063 27.5451585,30.1959771 30.1609443,30.1959771 C32.77673,30.1959771 34.9032237,32.3236386 34.9032237,34.9405921 C34.9032237,37.5552101 32.77673,39.6828716 30.1609443,39.6828716 Z M62.0420012,39.6828716 C59.4238799,39.6828716 57.2962184,37.5552101 57.2962184,34.9405921 C57.2962184,32.3248063 59.4238799,30.1959771 62.0420012,30.1959771 C64.6554515,30.1959771 66.7842807,32.3236386 66.7842807,34.9405921 C66.7831129,37.5552101 64.6554515,39.6828716 62.0420012,39.6828716 Z" id="Shape"></path>
                    <rect id="Rectangle-path" x="9.7659895" y="9.17159889" width="13.6639774" height="3.97038913"></rect>
                    <rect id="Rectangle-path" x="0.519653872" y="17.6460442" width="17.4159951" height="3.97038913"></rect>
                    <rect id="Rectangle-path" x="4.96999298" y="24.7355243" width="10.170035" height="3.97038913"></rect>
                </g>
            </g>
        </g>
    </g>
</svg>