<?xml version="1.0" encoding="UTF-8"?>
<svg width="17px" height="10px" viewBox="0 0 17 10" version="1.1" xmlns="http://www.w3.org/2000/svg" xmlns:xlink="http://www.w3.org/1999/xlink">
    <!-- Generator: Sketch 47 (45396) - http://www.bohemiancoding.com/sketch -->
    <title>vk</title>
    <desc>Created with Sketch.</desc>
    <defs></defs>
    <g id="Catalog" stroke="none" stroke-width="1" fill="none" fill-rule="evenodd">
        <g id="Kalinza-catalog" transform="translate(-836.000000, -1865.000000)" fill-rule="nonzero" fill="#000000">
            <g id="футер" transform="translate(1.000000, 1760.000000)">
                <g id="Group-7" transform="translate(835.000000, 101.000000)">
                    <path d="M16.909841,13.0310976 C16.889256,12.9853587 16.870066,12.9474188 16.8522401,12.9170221 C16.5572911,12.3693383 15.9936514,11.6970952 15.1616621,10.9001009 L15.1352798,10.8729005 C14.7398547,10.4926063 14.5007395,10.2430721 14.4006044,10.1153165 C14.2173851,9.87195121 14.176339,9.62561335 14.2764741,9.37601528 C14.3472197,9.18743433 14.6129652,8.78917694 15.0730906,8.18069974 C15.3151199,7.85822632 15.5068027,7.59977453 15.6483559,7.40505671 C16.6692688,6.00572215 17.1118783,5.11152883 16.9760914,4.72212515 L16.9233577,4.63112685 C16.8879229,4.57634249 16.7964683,4.52622471 16.6491178,4.4805178 C16.5014263,4.43490678 16.3126577,4.42736354 16.0824709,4.45776023 L13.5333973,4.47591515 C13.4921032,4.46082867 13.4331382,4.46223504 13.3563163,4.4805178 C13.2795874,4.49880056 13.2412074,4.50797391 13.2412074,4.50797391 L13.1968442,4.53082736 L13.1616264,4.55828347 C13.1321129,4.57643838 13.0996542,4.60836929 13.0642194,4.65401227 C13.0289706,4.69949544 12.9994881,4.75287344 12.975927,4.81369878 C12.6984008,5.5498357 12.3828668,6.23425669 12.0287358,6.86692979 C11.8103917,7.24418757 11.6098735,7.5711358 11.4267472,7.84796623 C11.2438689,8.12470078 11.0904421,8.32859195 10.9666218,8.45928813 C10.8426155,8.59011217 10.7306998,8.69491843 10.6301926,8.77409047 C10.5298405,8.85329446 10.4532356,8.88675959 10.4001919,8.87451781 C10.3470242,8.86227603 10.2969567,8.85013014 10.2495553,8.83798425 C10.1669981,8.78319988 10.1005927,8.70869443 10.0505252,8.61440395 C10.0002406,8.52011348 9.96638689,8.40143534 9.94868499,8.25846541 C9.93107609,8.11539959 9.92065956,7.99234253 9.91768341,7.88887871 C9.91492427,7.78554274 9.91619533,7.63937653 9.92217864,7.45079558 C9.92831695,7.26211874 9.93107609,7.13445903 9.93107609,7.06752878 C9.93107609,6.83630936 9.93544731,6.58536884 9.94422076,6.31464331 C9.95314921,6.04391778 9.96037258,5.82941495 9.96641789,5.6713905 C9.97243219,5.51320625 9.97522234,5.34584865 9.97522234,5.16941359 C9.97522234,4.99297853 9.96480581,4.85461126 9.94422076,4.75418391 C9.92388373,4.65388442 9.89266514,4.55652551 9.85152604,4.46213915 C9.81013894,4.36784867 9.74956186,4.2949094 9.67007382,4.24312955 C9.59043077,4.19141362 9.49141173,4.15037329 9.37357474,4.11988071 C9.06079983,4.04690947 8.66252257,4.00743532 8.17855696,4.00129845 C7.08107014,3.98915256 6.37587727,4.06221969 6.06313337,4.22040394 C5.93922007,4.28723831 5.82708736,4.37855624 5.72682826,4.49407006 C5.62058586,4.62796253 5.60576711,4.70102966 5.68246501,4.7130477 C6.03656502,4.76773617 6.28724377,4.89856021 6.43478027,5.10539196 L6.48794797,5.21499265 C6.52930408,5.29406879 6.57059818,5.43406618 6.61192328,5.63479301 C6.65318638,5.83551985 6.67981673,6.05756593 6.69153533,6.30080339 C6.72098683,6.74499143 6.72098683,7.12522176 6.69153533,7.44152635 C6.66199083,7.75795879 6.63408941,8.00429664 6.60745905,8.1807317 C6.5808287,8.35716676 6.54102267,8.50013669 6.48794797,8.60960952 C6.43478027,8.71911433 6.39940747,8.78604458 6.38167457,8.81033636 C6.36397267,8.83462815 6.34921592,8.84993836 6.33749732,8.85594738 C6.26079942,8.88624819 6.18103237,8.90168625 6.09847517,8.90168625 C6.01579396,8.90168625 5.91553486,8.85904778 5.79754286,8.77383476 C5.67958186,8.68862174 5.55715663,8.57157371 5.43026718,8.42249887 C5.30337773,8.27339207 5.16027445,8.0650261 5.00089534,7.79736901 C4.84164024,7.52971191 4.67640184,7.21337536 4.50527314,6.84835936 L4.36368894,6.58364285 C4.27517943,6.41334466 4.15427328,6.1653767 4.00084648,5.83996269 C3.84732667,5.51442084 3.71163277,5.19952262 3.59367177,4.89533196 C3.54651837,4.76757636 3.47567977,4.67031334 3.38127997,4.60338308 L3.33697872,4.57592697 C3.30752722,4.55163519 3.26024982,4.52584115 3.19539452,4.49835308 C3.13044621,4.47089697 3.06267677,4.45120785 2.99180716,4.43909392 L0.566584816,4.45724883 C0.318758212,4.45724883 0.15060566,4.51513359 0.0620651566,4.6307433 L0.0266303544,4.68543178 C0.0089284541,4.71589239 0,4.76453988 0,4.8315021 C0,4.89843236 0.0177019003,4.98057694 0.0531367025,5.07783996 C0.407174709,5.93572346 0.79218329,6.76308242 1.20816245,7.56004468 C1.6241416,8.35700694 1.98561999,8.99898124 2.29238059,9.48539223 C2.59920319,9.97215482 2.9119471,10.4315572 3.23061231,10.8633756 C3.54927751,11.2953538 3.76021224,11.5721843 3.86341649,11.693803 C3.96674475,11.8156455 4.04790688,11.9067396 4.10690288,11.967565 L4.32822313,12.1865426 C4.46983833,12.332581 4.67779691,12.5074818 4.95219187,12.7112451 C5.22664883,12.9151363 5.53049528,13.1158631 5.86388624,13.3137453 C6.19733919,13.5113078 6.58526192,13.6725285 7.02787143,13.7972157 C7.47041894,13.9220307 7.90115485,13.9721165 8.32014116,13.9479526 L9.33804693,13.9479526 C9.54448643,13.929574 9.70088938,13.8626437 9.80719379,13.7471299 L9.84241158,13.701391 C9.86609679,13.6650812 9.88826291,13.6086667 9.90872395,13.5327549 C9.92943301,13.4567152 9.93972553,13.3729405 9.93972553,13.2818144 C9.93368022,13.0202622 9.95299421,12.784536 9.99714045,12.5746678 C10.0412557,12.3648635 10.0915403,12.2066792 10.1477771,12.100147 C10.203983,11.9937106 10.2674122,11.9038949 10.3380028,11.8310835 C10.4087484,11.7581123 10.4591569,11.7139076 10.4887325,11.6986933 C10.5181219,11.6833831 10.5415901,11.6729952 10.559292,11.6667624 C10.7009072,11.6181149 10.8675717,11.6652282 11.0595335,11.808326 C11.2513402,11.9512959 11.4312424,12.1278268 11.5995189,12.3376311 C11.7677025,12.5476272 11.9697708,12.7832255 12.2057548,13.0447777 C12.4418938,13.3064258 12.6483643,13.5009199 12.8253213,13.6288672 L13.0022783,13.738372 C13.1204563,13.8114392 13.2738831,13.8783694 13.4627447,13.9391948 C13.6512653,13.9999882 13.8164417,14.0152025 13.9582739,13.9848058 L16.2240862,13.9483681 C16.4481965,13.9483681 16.6225804,13.9101086 16.7462767,13.8341967 C16.870221,13.7581571 16.9438498,13.6743824 16.967597,13.5832562 C16.9912822,13.4920342 16.9925532,13.3885384 16.9720922,13.2728328 C16.9511041,13.1574149 16.9304261,13.0767086 16.909841,13.0310976 Z" id="vk"></path>
                </g>
            </g>
        </g>
    </g>
</svg>