<?xml version="1.0" encoding="UTF-8"?>
<svg width="22px" height="20px" viewBox="0 0 22 20" version="1.1" xmlns="http://www.w3.org/2000/svg" xmlns:xlink="http://www.w3.org/1999/xlink">
    <!-- Generator: Sketch 48.1 (47250) - http://www.bohemiancoding.com/sketch -->
    <title>basket icon</title>
    <desc>Created with Sketch.</desc>
    <defs></defs>
    <g id="Kalinza-main-sign-in" stroke="none" stroke-width="1" fill="none" fill-rule="evenodd" transform="translate(-1029.000000, -150.000000)" opacity="0.049999997">
        <g id="Main" transform="translate(0.000000, 9.000000)" fill="#000000" fill-rule="nonzero">
            <g id="top">
                <g id="menu" transform="translate(0.000000, 131.000000)">
                    <g id="basket-icon" transform="translate(1029.000000, 10.000000)">
                        <path d="M2.57802198,18.5472527 C2.74950559,19.3385642 3.45187379,19.9015591 4.26153846,19.8967033 L16.7582418,19.8967033 C17.556351,19.8802574 18.2368794,19.3137586 18.3978022,18.5318681 L19.9142857,10.989011 L1.0989011,10.989011 L2.57802198,18.5472527 Z M8.07252747,14.4153846 L9.83076923,16.2285714 L13.8769231,12.1978022 L14.4989011,12.8197802 L9.83736264,17.4791209 L7.45054945,15.0285714 L8.07252747,14.4153846 Z" id="Shape"></path>
                        <path d="M19.9164835,6.36109489 L18.389011,6.36109489 L12.2571429,0.229226762 C12.0628061,0.0329269778 11.7785068,-0.0447840653 11.5113378,0.0253666319 C11.2441688,0.095517329 11.0347195,0.302872206 10.9618873,0.569322685 C10.8890551,0.835773164 10.963905,1.12083908 11.1582418,1.31713885 L16.2131868,6.37208391 L4.91208791,6.37208391 L9.96703297,1.31713885 C10.1613697,1.12083908 10.2362196,0.835773167 10.1633874,0.569322694 C10.0905552,0.302872221 9.88110588,0.0955173486 9.6139369,0.0253666502 C9.34676792,-0.0447840482 9.06246865,0.0329269875 8.86813187,0.229226762 L2.73626374,6.36109489 L1.20879121,6.36109489 C0.541695935,6.3623045 0.00120960456,6.90279083 0,7.5698861 L0,9.48856742 C0.000886883535,9.55640349 0.00750382542,9.62404334 0.0197802198,9.69076522 L21.1120879,9.69076522 C21.1243643,9.62404334 21.1309812,9.55640349 21.1318681,9.48856742 L21.1318681,7.5698861 C21.1312867,7.24832984 21.00284,6.94020727 20.7748475,6.71345155 C20.5468549,6.48669582 20.2380382,6.35992719 19.9164835,6.36109489 Z" id="Shape"></path>
                    </g>
                </g>
            </g>
        </g>
    </g>
</svg>