<?xml version="1.0" encoding="UTF-8"?>
<svg width="14px" height="14px" viewBox="0 0 14 14" version="1.1" xmlns="http://www.w3.org/2000/svg" xmlns:xlink="http://www.w3.org/1999/xlink">
    <!-- Generator: Sketch 48.1 (47250) - http://www.bohemiancoding.com/sketch -->
    <title>name-icon</title>
    <desc>Created with Sketch.</desc>
    <defs></defs>
    <g id="Kalinza-card-tovar" stroke="none" stroke-width="1" fill="none" fill-rule="evenodd" transform="translate(-1050.000000, -468.000000)" opacity="0.3">
        <g id="content" transform="translate(0.000000, 205.000000)" fill="#000000">
            <g id="быстро-оформить" transform="translate(1030.000000, 83.000000)">
                <g id="Input-1" transform="translate(20.000000, 178.000000)">
                    <path d="M0.763368421,15.2631579 L13.2373684,15.2631579 C13.0907368,14.2315789 12.3369474,13.3842105 11.3053684,13.1263158 L8.92905263,12.5294737 C8.79715789,12.5 8.694,12.3968421 8.66084211,12.2642105 L8.39042105,11.1810526 C8.35652632,11.0484211 8.4,10.9084211 8.50168421,10.8126316 C9.09852632,10.2821053 9.492,9.47894737 9.55536842,8.68315789 C9.57010526,8.49157895 9.73073684,8.34421053 9.92231579,8.34421053 C10.0556842,8.34421053 10.1448421,8.26315789 10.1573684,8.16 L10.3017895,7.01052632 C10.3121053,6.92947368 10.2752632,6.87052632 10.2524211,6.84842105 C10.2015789,6.78947368 9.95842105,6.78947368 9.83315789,6.65684211 C9.76463158,6.59052632 9.72852632,6.48736842 9.73294737,6.39157895 L9.80368421,4.94736842 C9.80810526,4.85157895 9.84642105,4.77052632 9.91126316,4.70421053 L10.2001053,4.41684211 C10.3681053,4.23263158 10.5022105,3.96736842 10.1514737,3.43684211 C9.84863158,2.97263158 9.29821053,2.73684211 8.51715789,2.73684211 C7.93873684,2.73684211 7.26305263,2.79578947 6.63747368,3.24526316 C6.57557895,3.28947368 6.50263158,3.31157895 6.42673684,3.31157895 C4.36431579,3.33368421 4.19705263,4.07052632 4.19705263,4.96210526 C4.19705263,5.24210526 4.29284211,6.06736842 4.32968421,6.36210526 C4.34368421,6.46526316 4.31052632,6.56842105 4.24052632,6.64947368 C4.17126316,6.73052632 4.07031579,6.77473684 3.96421053,6.77473684 C3.82273684,6.77473684 3.77189474,6.81894737 3.74905263,6.84105263 C3.72547368,6.87052632 3.68789474,6.92947368 3.69821053,7.01052632 L3.84263158,8.16 C3.85515789,8.26315789 3.94431579,8.34421053 4.04894737,8.34421053 L4.14326316,8.34421053 C4.33484211,8.34421053 4.49547368,8.49157895 4.51021053,8.68315789 C4.57210526,9.45684211 4.94789474,10.2378947 5.516,10.7684211 C5.614,10.8642105 5.65452632,11.0042105 5.62136842,11.1294737 L5.33915789,12.2642105 C5.306,12.3968421 5.20284211,12.5 5.07094737,12.5294737 L2.69389474,13.1263158 C1.66305263,13.3842105 0.91,14.2315789 0.763368421,15.2631579 L0.763368421,15.2631579 Z M0.368421053,16 C0.271157895,16 0.176842105,15.9631579 0.107578947,15.8894737 C0.0390526316,15.8231579 0,15.7273684 0,15.6315789 C0,14.1063158 1.03452632,12.78 2.51557895,12.4115789 L4.67821053,11.8663158 L4.85652632,11.1515789 C4.31642105,10.5842105 3.94210526,9.82526316 3.81389474,9.05157895 C3.44621053,8.95578947 3.16031579,8.64631579 3.11168421,8.24842105 L2.96726316,7.09894737 C2.93336842,6.83368421 3.01736842,6.56105263 3.19642105,6.35473684 C3.29663158,6.24421053 3.42042105,6.15578947 3.55747368,6.10421053 C3.51547368,5.74315789 3.46021053,5.21263158 3.46021053,4.96210526 C3.46021053,3.81263158 3.80136842,2.64105263 6.30663158,2.58210526 C7.18126316,2 8.11115789,2 8.51715789,2 C9.56273684,2 10.3194737,2.34631579 10.7682105,3.03157895 C11.3598947,3.93789474 11.0732632,4.56421053 10.7284211,4.92526316 L10.5324211,5.12421053 L10.4845263,6.11894737 C10.6068421,6.17789474 10.7173684,6.25894737 10.8072632,6.36210526 C10.9841053,6.56105263 11.0666316,6.83368421 11.0327368,7.09894737 L10.8883158,8.25578947 C10.8426316,8.61684211 10.5891579,8.91894737 10.2553684,9.02947368 C10.1264211,9.84 9.73073684,10.6210526 9.15673684,11.2031579 L9.32178947,11.8663158 L11.4844211,12.4115789 C12.9654737,12.78 14,14.1063158 14,15.6315789 C14,15.8305263 13.8349474,16 13.6315789,16 L0.368421053,16 L0.368421053,16 Z" id="name-icon"></path>
                </g>
            </g>
        </g>
    </g>
</svg>