<?xml version="1.0" encoding="UTF-8"?>
<svg width="82px" height="52px" viewBox="0 0 82 52" version="1.1" xmlns="http://www.w3.org/2000/svg" xmlns:xlink="http://www.w3.org/1999/xlink">
    <!-- Generator: Sketch 48.1 (47250) - http://www.bohemiancoding.com/sketch -->
    <title>Play</title>
    <desc>Created with Sketch.</desc>
    <defs>
        <polygon id="path-1" points="40.8470902 0.581069767 0.0403278689 0.581069767 0.0403278689 52 40.8470902 52 81.6538525 52 81.6538525 0.581069767"></polygon>
    </defs>
    <g id="Kalinza-main" stroke="none" stroke-width="1" fill="none" fill-rule="evenodd" transform="translate(-361.000000, -1495.000000)">
        <g id="Video" transform="translate(85.000000, 1344.000000)">
            <g id="Play" transform="translate(276.000000, 151.000000)">
                <g id="Group-3">
                    <mask id="mask-2" fill="white">
                        <use xlink:href="#path-1"></use>
                    </mask>
                    <g id="Clip-2"></g>
                    <path d="M79.9473115,8.60962791 C79.0083443,5.44972093 76.2418525,2.96037209 72.728623,2.11567442 C66.3608525,0.581069767 40.8265902,0.581069767 40.8265902,0.581069767 C40.8265902,0.581069767 15.293,0.581069767 8.92522951,2.11567442 C5.412,2.96037209 2.6455082,5.44972093 1.70654098,8.60962791 C0,14.3386977 0,26.2902326 0,26.2902326 C0,26.2902326 0,38.2423721 1.70654098,43.9708372 C2.6455082,47.1307442 5.412,49.6206977 8.92522951,50.4647907 C15.293,52 40.8265902,52 40.8265902,52 C40.8265902,52 66.3608525,52 72.728623,50.4647907 C76.2418525,49.6206977 79.0083443,47.1307442 79.9473115,43.9708372 C81.6538525,38.2423721 81.6538525,26.2902326 81.6538525,26.2902326 C81.6538525,26.2902326 81.6538525,14.3386977 79.9473115,8.60962791" id="Fill-1" fill="#D9252A" mask="url(#mask-2)"></path>
                </g>
                <polyline id="Fill-4" fill="#FFFFFE" points="32.2622951 37.1432599 53.4754262 26.1177847 32.2622951 15.0910993 32.2622951 37.1432599"></polyline>
            </g>
        </g>
    </g>
</svg>